<?xml version="1.0" encoding="UTF-8" standalone="no"?>
<!-- Created with Inkscape (http://www.inkscape.org/) -->

<svg
   width="109.04336mm"
   height="74.493774mm"
   viewBox="0 0 109.04336 74.493774"
   version="1.1"
   id="svg1"
   inkscape:version="1.3.2 (091e20ef0f, 2023-11-25, custom)"
   sodipodi:docname="blobs.svg"
   xmlns:inkscape="http://www.inkscape.org/namespaces/inkscape"
   xmlns:sodipodi="http://sodipodi.sourceforge.net/DTD/sodipodi-0.dtd"
   xmlns="http://www.w3.org/2000/svg"
   xmlns:svg="http://www.w3.org/2000/svg">
  <sodipodi:namedview
     id="namedview1"
     pagecolor="#ffffff"
     bordercolor="#000000"
     borderopacity="0.25"
     inkscape:showpageshadow="2"
     inkscape:pageopacity="0.0"
     inkscape:pagecheckerboard="0"
     inkscape:deskcolor="#d1d1d1"
     inkscape:document-units="mm"
     showgrid="true"
     inkscape:zoom="0.92505831"
     inkscape:cx="60.536725"
     inkscape:cy="-22.701272"
     inkscape:window-width="1920"
     inkscape:window-height="1011"
     inkscape:window-x="0"
     inkscape:window-y="32"
     inkscape:window-maximized="1"
     inkscape:current-layer="layer1">
    <inkscape:grid
       id="grid1"
       units="px"
       originx="-18.951616"
       originy="-100.84104"
       spacingx="0.26458333"
       spacingy="0.26458334"
       empcolor="#0099e5"
       empopacity="0.30196078"
       color="#0099e5"
       opacity="0.14901961"
       empspacing="5"
       dotted="false"
       gridanglex="30"
       gridanglez="30"
       visible="true" />
  </sodipodi:namedview>
  <defs
     id="defs1">
    <marker
       style="overflow:visible"
       id="ArrowWide"
       refX="0"
       refY="0"
       orient="auto-start-reverse"
       inkscape:stockid="Wide arrow"
       markerWidth="1"
       markerHeight="1"
       viewBox="0 0 1 1"
       inkscape:isstock="true"
       inkscape:collect="always"
       preserveAspectRatio="xMidYMid">
      <path
         style="fill:none;stroke:context-stroke;stroke-width:1;stroke-linecap:butt"
         d="M 3,-3 0,0 3,3"
         transform="rotate(180,0.125,0)"
         sodipodi:nodetypes="ccc"
         id="path1" />
    </marker>
  </defs>
  <g
     inkscape:label="Layer 1"
     inkscape:groupmode="layer"
     id="layer1"
     transform="translate(-18.951616,-100.84104)">
    <circle
       style="fill:none;stroke:#000000;stroke-width:0.531;stroke-dasharray:none;stroke-opacity:0.991236"
       id="path3"
       cx="72.098961"
       cy="122.36979"
       r="9.921875" />
    <circle
       style="fill:#000000;fill-opacity:1;stroke:#000000;stroke-width:0.531;stroke-dasharray:none;stroke-opacity:0.991236"
       id="path4"
       cx="72.098961"
       cy="122.36979"
       r="0.66145831" />
    <path
       style="fill:#000000;fill-opacity:1;stroke:#000000;stroke-width:0.531;stroke-dasharray:none;stroke-opacity:0.991236;marker-end:url(#ArrowWide)"
       d="m 72.09896,122.36979 c 0,-15.04512 0,-15.21354 0,-15.21354"
       id="path5" />
    <path
       style="fill:#000000;fill-opacity:1;stroke:#000000;stroke-width:0.531;stroke-dasharray:none;stroke-opacity:0.991236;marker-end:url(#ArrowWide)"
       d="m 72.09896,122.36979 12.567703,-4.63021"
       id="path6" />
    <path
       style="fill:#000000;fill-opacity:1;stroke:#000000;stroke-width:0.531;stroke-dasharray:none;stroke-opacity:0.991236;marker-end:url(#ArrowWide)"
       d="m 72.09896,122.36979 7.276036,9.92188"
       id="path7" />
    <g
       inkscape:label=""
       transform="matrix(0.58629753,0,0,0.58629753,66.636076,123.95568)"
       id="g8">
      <g
         fill="#000000"
         fill-opacity="1"
         id="g2"
         transform="matrix(0.352778,0,0,0.352778,-1.13303,-0.708422)">
        <g
           id="use1"
           transform="translate(1.993,18.93)">
          <path
             d="m 22.5,-15.109375 c 0.21875,-0.84375 0.28125,-1.09375 2.03125,-1.09375 0.46875,0 0.703125,0 0.703125,-0.46875 0,-0.25 -0.1875,-0.25 -0.65625,-0.25 h -2.96875 c -0.625,0 -0.640625,0.01563 -0.921875,0.421875 L 11.640625,-2.203125 9.78125,-16.375 C 9.71875,-16.921875 9.6875,-16.921875 9.046875,-16.921875 H 5.96875 c -0.46875,0 -0.6875,0 -0.6875,0.46875 0,0.25 0.21875,0.25 0.59375,0.25 1.515625,0 1.515625,0.1875 1.515625,0.46875 0,0.04687 0,0.203125 -0.109375,0.5625 L 4.109375,-2.53125 C 3.8125,-1.34375 3.25,-0.796875 1.59375,-0.71875 c -0.078125,0 -0.375,0.03125 -0.375,0.453125 C 1.21875,0 1.4375,0 1.53125,0 c 0.5,0 1.765625,-0.046875 2.265625,-0.046875 h 1.1875 C 5.328125,-0.046875 5.75,0 6.09375,0 c 0.171875,0 0.453125,0 0.453125,-0.46875 0,-0.21875 -0.25,-0.25 -0.359375,-0.25 C 5.375,-0.75 4.578125,-0.890625 4.578125,-1.78125 c 0,-0.25 0,-0.28125 0.109375,-0.625 L 8.109375,-16.0625 H 8.125 l 2.0625,15.390625 C 10.265625,-0.078125 10.28125,0 10.5,0 c 0.28125,0 0.40625,-0.203125 0.53125,-0.421875 L 20.984375,-16.1875 h 0.03125 l -3.59375,14.359375 c -0.21875,0.859375 -0.265625,1.109375 -2.015625,1.109375 -0.46875,0 -0.71875,0 -0.71875,0.453125 C 14.6875,0 14.921875,0 15.0625,0 c 0.421875,0 0.921875,-0.046875 1.34375,-0.046875 h 2.921875 C 19.75,-0.046875 20.265625,0 20.6875,0 c 0.203125,0 0.46875,0 0.46875,-0.46875 0,-0.25 -0.21875,-0.25 -0.59375,-0.25 -1.5,0 -1.5,-0.203125 -1.5,-0.453125 0,-0.015625 0,-0.1875 0.04687,-0.390625 z m 0,0"
             id="path8" />
        </g>
      </g>
    </g>
    <g
       inkscape:label=""
       transform="matrix(0.48769137,0,0,0.48769137,84.976117,117.80523)"
       id="g13">
      <g
         fill="#000000"
         fill-opacity="1"
         id="g5"
         transform="matrix(0.352778,0,0,0.352778,-0.935896,-0.568413)">
        <g
           id="use4"
           transform="translate(0.55400002,19.205)">
          <path
             d="m 10.734375,-15.40625 c 0,-1.25 -1,-2.1875 -2.15625,-2.1875 -1.171875,0 -2.15625,0.9375 -2.15625,2.1875 0,1.234375 0.984375,2.171875 2.15625,2.171875 1.15625,0 2.15625,-0.9375 2.15625,-2.171875 z m -2.15625,1.78125 c -1.046875,0 -1.71875,-0.65625 -1.71875,-1.78125 0,-1.171875 0.703125,-1.796875 1.71875,-1.796875 1.03125,0 1.703125,0.65625 1.703125,1.796875 0,1.15625 -0.6875,1.78125 -1.703125,1.78125 z m 0,0"
             id="path9" />
        </g>
      </g>
      <g
         fill="#000000"
         fill-opacity="1"
         id="g6"
         transform="matrix(0.352778,0,0,0.352778,-0.935896,-0.568413)">
        <g
           id="use5"
           transform="translate(1.173,26.202)">
          <path
             d="m 13.265625,-14.796875 c -0.3125,0.28125 -1.21875,1.140625 -1.21875,1.484375 0,0.25 0.21875,0.46875 0.46875,0.46875 0.21875,0 0.328125,-0.140625 0.5,-0.390625 0.59375,-0.75 1.265625,-1.21875 1.828125,-1.53125 0.25,-0.15625 0.421875,-0.234375 0.421875,-0.5 0,-0.21875 -0.203125,-0.34375 -0.34375,-0.46875 -0.703125,-0.46875 -0.875,-1.140625 -0.9375,-1.4375 -0.07813,-0.203125 -0.15625,-0.5 -0.5,-0.5 -0.15625,0 -0.453125,0.109375 -0.453125,0.46875 0,0.234375 0.15625,0.828125 0.625,1.484375 H 5.328125 c -0.421875,0 -0.84375,0 -0.84375,0.484375 0,0.4375 0.453125,0.4375 0.84375,0.4375 z m 0,0"
             id="path10" />
        </g>
      </g>
      <g
         fill="#000000"
         fill-opacity="1"
         id="g7"
         transform="matrix(0.352778,0,0,0.352778,-0.935896,-0.568413)">
        <g
           id="use6"
           transform="translate(1.981059,26.202)">
          <path
             d="m 9.640625,-10.140625 c -0.765625,0.15625 -1.171875,0.703125 -1.171875,1.25 0,0.59375 0.484375,0.78125 0.828125,0.78125 0.6875,0 1.265625,-0.59375 1.265625,-1.328125 0,-0.796875 -0.78125,-1.484375 -2.015625,-1.484375 -0.984375,0 -2.125,0.4375 -3.171875,1.953125 -0.171875,-1.3125 -1.15625,-1.953125 -2.15625,-1.953125 -0.96875,0 -1.453125,0.734375 -1.75,1.28125 -0.421875,0.890625 -0.796875,2.375 -0.796875,2.5 0,0.109375 0.09375,0.234375 0.265625,0.234375 0.203125,0 0.234375,-0.03125 0.375,-0.609375 C 1.6875,-9 2.15625,-10.4375 3.140625,-10.4375 c 0.59375,0 0.78125,0.421875 0.78125,1.140625 0,0.546875 -0.25,1.515625 -0.421875,2.28125 L 2.796875,-4.34375 c -0.09375,0.484375 -0.375,1.59375 -0.5,2.046875 C 2.125,-1.65625 1.859375,-0.5 1.859375,-0.375 1.859375,-0.03125 2.125,0.25 2.5,0.25 2.78125,0.25 3.25,0.078125 3.390625,-0.421875 3.46875,-0.625 4.390625,-4.359375 4.53125,-4.9375 4.65625,-5.484375 4.8125,-6 4.9375,-6.546875 c 0.09375,-0.34375 0.1875,-0.734375 0.265625,-1.0625 0.078125,-0.21875 0.75,-1.4375 1.359375,-1.984375 0.296875,-0.265625 0.953125,-0.84375 1.96875,-0.84375 0.390625,0 0.78125,0.07813 1.109375,0.296875 z m 0,0"
             id="path11" />
        </g>
      </g>
      <g
         fill="#000000"
         fill-opacity="1"
         id="g12"
         transform="matrix(0.352778,0,0,0.352778,-0.935896,-0.568413)">
        <g
           id="use7"
           transform="translate(12.93,29.92)">
          <path
             d="m 4.875,-2.46875 c 0,-0.078125 -0.078125,-0.15625 -0.171875,-0.15625 -0.15625,0 -0.171875,0.0625 -0.265625,0.359375 -0.4375,1.5625 -1.15625,2.09375 -1.71875,2.09375 -0.203125,0 -0.453125,-0.046875 -0.453125,-0.5625 0,-0.46875 0.21875,-0.984375 0.40625,-1.5 L 3.875,-5.4375 c 0.046875,-0.140625 0.171875,-0.453125 0.171875,-0.78125 0,-0.71875 -0.515625,-1.375 -1.359375,-1.375 -1.578125,0 -2.21875,2.5 -2.21875,2.640625 0,0.0625 0.0625,0.15625 0.1875,0.15625 0.15625,0 0.171875,-0.078125 0.234375,-0.3125 C 1.3125,-6.5625 1.96875,-7.25 2.640625,-7.25 c 0.15625,0 0.4375,0.015625 0.4375,0.5625 0,0.453125 -0.21875,1.015625 -0.359375,1.40625 L 1.515625,-2.078125 C 1.40625,-1.8125 1.3125,-1.53125 1.3125,-1.21875 c 0,0.765625 0.53125,1.390625 1.359375,1.390625 C 4.25,0.171875 4.875,-2.34375 4.875,-2.46875 Z M 4.734375,-10.75 c 0,-0.25 -0.203125,-0.5625 -0.578125,-0.5625 -0.40625,0 -0.84375,0.375 -0.84375,0.828125 0,0.421875 0.359375,0.5625 0.5625,0.5625 0.46875,0 0.859375,-0.4375 0.859375,-0.828125 z m 0,0"
             id="path12" />
        </g>
      </g>
    </g>
    <g
       inkscape:label=""
       transform="matrix(0.55992966,0,0,0.55992966,29.390361,129.30402)"
       id="g14">
      <g
         fill="#000000"
         fill-opacity="1"
         id="g3"
         transform="matrix(0.352778,0,0,0.352778,-1.05035,-0.706217)">
        <g
           id="use2"
           transform="translate(1.993,19.205)">
          <path
             d="m 12.46875,-16.578125 c 0.01563,-0.09375 0.07813,-0.25 0.07813,-0.375 0,-0.25 -0.25,-0.25 -0.3125,-0.25 -0.01563,0 -1.234375,0.109375 -1.359375,0.125 -0.421875,0.03125 -0.78125,0.07813 -1.234375,0.109375 -0.625,0.04687 -0.796875,0.0625 -0.796875,0.515625 0,0.25 0.203125,0.25 0.546875,0.25 1.21875,0 1.234375,0.21875 1.234375,0.46875 0,0.140625 -0.04687,0.34375 -0.0625,0.421875 L 9.04688,-9.296875 c -0.28125,-0.640625 -0.9375,-1.625 -2.234375,-1.625 -2.796875,0 -5.828125,3.609375 -5.828125,7.28125 0,2.453125 1.4375,3.890625 3.125,3.890625 1.375,0 2.53125,-1.0625 3.21875,-1.890625 C 7.578125,-0.171875 8.75,0.25 9.484375,0.25 c 0.75,0 1.34375,-0.453125 1.796875,-1.34375 0.390625,-0.84375 0.734375,-2.34375 0.734375,-2.453125 0,-0.125 -0.09375,-0.21875 -0.25,-0.21875 -0.21875,0 -0.25,0.125 -0.34375,0.5 C 11.046875,-1.8125 10.578125,-0.25 9.5625,-0.25 c -0.71875,0 -0.765625,-0.640625 -0.765625,-1.140625 0,-0.09375 0,-0.609375 0.171875,-1.3125 z m -5.015625,13.625 c -0.125,0.421875 -0.125,0.46875 -0.46875,0.953125 -0.546875,0.6875 -1.625,1.75 -2.796875,1.75 -1.015625,0 -1.578125,-0.921875 -1.578125,-2.375 0,-1.359375 0.765625,-4.140625 1.234375,-5.1875 0.84375,-1.734375 2,-2.625 2.96875,-2.625 1.640625,0 1.953125,2.03125 1.953125,2.234375 0,0.03125 -0.0625,0.34375 -0.09375,0.390625 z m 0,0"
             id="path13" />
        </g>
        <g
           id="use3"
           transform="translate(14.604676,19.205)">
          <path
             d="m 15.34375,-14.171875 c 0.84375,-1.34375 1.609375,-1.9375 2.875,-2.03125 0.25,-0.03125 0.4375,-0.03125 0.4375,-0.46875 0,-0.109375 -0.04687,-0.25 -0.265625,-0.25 -0.453125,0 -1.515625,0.04687 -1.953125,0.04687 -0.71875,0 -1.46875,-0.04687 -2.15625,-0.04687 -0.203125,0 -0.453125,0 -0.453125,0.46875 0,0.21875 0.21875,0.25 0.328125,0.25 0.90625,0.07813 1.015625,0.515625 1.015625,0.8125 0,0.375 -0.359375,0.9375 -0.375,0.96875 L 7.015625,-2.078125 5.28125,-15.4375 c 0,-0.71875 1.28125,-0.765625 1.5625,-0.765625 0.375,0 0.59375,0 0.59375,-0.46875 0,-0.25 -0.28125,-0.25 -0.34375,-0.25 -0.421875,0 -0.921875,0.04687 -1.34375,0.04687 H 4.359375 c -1.8125,0 -2.546875,-0.04687 -2.578125,-0.04687 -0.140625,0 -0.4375,0 -0.4375,0.4375 0,0.28125 0.171875,0.28125 0.5625,0.28125 1.265625,0 1.34375,0.21875 1.421875,0.84375 l 1.96875,15.28125 C 5.375,0.453125 5.375,0.515625 5.71875,0.515625 c 0.296875,0 0.421875,-0.0625 0.671875,-0.46875 z m 0,0"
             id="path14" />
        </g>
      </g>
    </g>
    <path
       style="fill:none;fill-opacity:1;stroke:#000000;stroke-width:0.531;stroke-dasharray:none;stroke-opacity:0.991236"
       d="m 83.27466,144.43451 c -2.56023,-0.0393 -4.713766,1.70146 -6.94617,2.77302 -1.470186,0.70569 -3.011286,1.23113 -4.506158,1.87179 -1.746385,0.74845 -2.715456,1.80722 -3.951552,3.25829 -1.074801,1.26173 -2.48612,2.53169 -3.258294,4.02088 -1.304591,2.516 -2.4761,5.41237 -2.079757,8.31906 0.254802,1.86867 2.346817,3.55971 3.535598,4.78346 2.393304,2.46371 5.034338,4.4787 8.457708,5.19941 4.154239,0.87458 12.483417,0.27526 16.430135,-1.38651 0.903923,-0.3806 1.738575,-1.00175 2.565038,-1.52517 3.354813,-2.12469 6.589912,-4.52459 10.468152,-5.61535 0.93492,-0.26295 1.82384,-0.34969 2.77302,-0.48528 2.24514,-0.32074 4.4501,-0.7886 6.72456,-0.97056 3.19312,-0.25545 6.54878,-0.42168 8.94299,-2.91167 1.38777,-1.44329 4.61744,-6.60172 4.99143,-8.59636 0.28415,-1.51546 0.27731,-3.11599 0.27731,-4.6448 0,-0.76084 0.12951,-1.76195 -0.20609,-2.48627 -2.00097,-4.3187 -8.56897,-8.58725 -12.96386,-10.05218 -4.09367,-1.36453 -10.02134,-1.46085 -13.98706,0.27415 -1.116797,0.4886 -2.144232,1.27475 -3.258292,1.80246 -1.261787,0.5977 -2.599116,1.10885 -3.81291,1.80246 -2.018901,1.15367 -4.026379,3.10779 -6.141402,3.72826 -0.498303,0.14619 -0.990571,0.72354 -1.634869,0.87016 -0.628965,0.14313 -1.87997,-0.0135 -2.419527,-0.0292 z"
       id="path15" />
    <path
       style="fill:none;fill-opacity:1;stroke:#000000;stroke-width:0.531;stroke-dasharray:none;stroke-opacity:0.991236;marker-end:url(#ArrowWide)"
       d="m 39.6875,132.29167 c 0,0 20.689778,0.63783 33.072913,22.48958"
       id="path16" />
    <g
       inkscape:label=""
       transform="matrix(0.57112825,0,0,0.57112825,57.38421,141.83996)"
       id="g19">
      <g
         fill="#000000"
         fill-opacity="1"
         id="g18"
         transform="matrix(0.352778,0,0,0.352778,-1.10547,-0.724958)">
        <g
           id="g17"
           transform="translate(1.993,18.93)">
          <path
             d="m 7.359375,-8.078125 h 2.375 c 1.890625,0 2.03125,0.421875 2.03125,1.140625 0,0.328125 -0.04687,0.671875 -0.171875,1.21875 -0.04687,0.09375 -0.07813,0.21875 -0.07813,0.265625 0,0.171875 0.109375,0.28125 0.28125,0.28125 0.203125,0 0.21875,-0.109375 0.328125,-0.5 l 1.4375,-5.78125 c 0,-0.09375 -0.07813,-0.25 -0.25,-0.25 -0.234375,0 -0.25,0.109375 -0.359375,0.53125 -0.515625,1.859375 -1.015625,2.375 -3.171875,2.375 h -2.25 L 9.14062,-15.21875 c 0.234375,-0.859375 0.28125,-0.9375 1.296875,-0.9375 H 13.75 c 3.09375,0 3.546875,0.921875 3.546875,2.671875 0,0.15625 0,0.703125 -0.07813,1.34375 -0.01563,0.09375 -0.0625,0.421875 -0.0625,0.515625 0,0.203125 0.109375,0.28125 0.265625,0.28125 0.171875,0 0.265625,-0.109375 0.328125,-0.546875 l 0.515625,-4.34375 c 0,-0.07813 0.04687,-0.3125 0.04687,-0.375 0,-0.265625 -0.21875,-0.265625 -0.671875,-0.265625 h -11.75 c -0.46875,0 -0.71875,0 -0.71875,0.4375 0,0.28125 0.1875,0.28125 0.609375,0.28125 1.53125,0 1.53125,0.171875 1.53125,0.4375 0,0.125 -0.03125,0.234375 -0.09375,0.5 L 3.859375,-1.828125 c -0.21875,0.859375 -0.265625,1.109375 -2,1.109375 -0.46875,0 -0.71875,0 -0.71875,0.453125 C 1.140625,0 1.359375,0 1.515625,0 c 0.46875,0 0.96875,-0.046875 1.4375,-0.046875 h 3.21875 C 6.71875,-0.046875 7.3125,0 7.859375,0 8.078125,0 8.375,0 8.375,-0.453125 8.375,-0.71875 8.234375,-0.71875 7.6875,-0.71875 c -1.96875,0 -2.015625,-0.171875 -2.015625,-0.546875 0,-0.125 0.046875,-0.328125 0.109375,-0.5 z m 0,0"
             id="path17" />
        </g>
      </g>
    </g>
    <path
       style="fill:none;fill-opacity:1;stroke:#000000;stroke-width:0.531;stroke-dasharray:none;stroke-opacity:0.991236"
       d="m 55.562497,104.51042 c -0.334061,-0.14431 -0.64433,-0.36688 -1.002184,-0.43294 -0.257881,-0.0476 -0.517572,0.10397 -0.779812,0.10397 -0.659415,0 -1.317085,-0.0679 -1.975514,-0.10397 -1.971405,-0.10802 -3.968879,-0.2456 -5.926537,0.10397 -3.496421,0.62436 -6.294014,2.21213 -9.097753,4.31494 -1.113171,0.83488 -2.148652,1.58995 -3.119231,2.59936 -1.786771,1.85824 -3.294867,3.98837 -4.990769,5.92654 -0.396119,0.4527 -0.876589,0.8246 -1.299681,1.24769 -0.640379,0.64038 -1.211221,1.35834 -1.819551,2.0275 -0.998838,1.09873 -2.124322,2.01782 -3.015256,3.22321 -0.947023,1.28126 -1.573227,2.85976 -2.183461,4.31493 -1.56926,3.74207 -1.581311,6.43426 0.311922,10.08551 1.199142,2.31264 3.357305,3.99132 5.926537,4.52289 1.313471,0.27175 2.881527,0.25324 4.210965,0.15596 0.911974,-0.0667 1.805451,-0.38783 2.703333,-0.51987 0.754319,-0.11093 1.5406,-0.12807 2.287436,-0.36392 1.042316,-0.32915 2.018509,-0.82453 3.067243,-1.14372 0.823167,-0.25053 1.672307,-0.42039 2.495384,-0.67582 3.067433,-0.95194 6.062424,-1.99269 9.305705,-2.18347 2.612155,-0.15366 5.294752,-0.005 7.902051,0.10397 1.739792,0.0725 3.516694,-0.15078 5.250707,0 1.588677,0.13815 3.183461,0.10398 4.782819,0.10398 4.124907,0 7.903914,-0.23164 11.749098,-1.92352 0.612902,-0.26968 1.327672,-0.55506 1.871546,-0.93577 1.829248,-1.28048 3.714221,-2.91921 5.042752,-4.73083 1.063903,-1.45077 1.44738,-3.15471 2.235446,-4.73084 0.337826,-0.67565 0.610548,-1.31582 0.883785,-2.02326 0.952948,-2.46732 2.073347,-5.08205 1.397937,-7.78377 -0.396637,-1.58659 -1.447461,-3.87473 -2.287445,-5.30269 -0.882626,-1.50046 -3.611252,-4.42656 -4.990763,-5.56263 -0.49202,-0.40519 -1.138458,-0.68966 -1.663595,-1.03975 -0.640058,-0.4267 -1.209548,-0.90943 -1.915305,-1.24358 -0.641054,-0.30352 -1.406192,-0.38608 -2.079493,-0.62385 -0.723643,-0.25554 -1.444887,-0.66897 -2.210718,-0.77108 -0.697756,-0.093 -1.434772,0.0997 -2.131481,0 -1.284226,-0.18382 -2.633673,-0.10398 -3.945363,-0.10398 -1.000995,0 -2.07768,-0.11294 -3.067243,0.052 -1.168003,0.19467 -2.327799,0.48157 -3.47621,0.72782 -0.282318,0.0605 -0.744116,0.0687 -1.030351,0.15458 -0.534304,0.16029 -1.066961,0.61099 -1.593654,0.82461 -0.270878,0.10987 -0.533532,0.12253 -0.807,0.24004 -0.400013,0.17188 -0.808392,0.50599 -1.230588,0.61529 -0.07813,0.0202 -0.203671,-0.034 -0.276532,0 -0.513416,0.23991 -0.991428,0.53126 -1.530339,0.72271 -0.440433,0.15647 -1.728176,0.0475 -1.978837,0.0278 z"
       id="path19" />
    <circle
       style="fill:none;fill-opacity:1;stroke:#000000;stroke-width:0.531;stroke-dasharray:none;stroke-opacity:0.991236"
       id="path20"
       cx="107.8177"
       cy="152.79688"
       r="8.598958" />
    <circle
       style="fill:#000000;fill-opacity:1;stroke:#000000;stroke-width:0.531;stroke-dasharray:none;stroke-opacity:0.991236"
       id="path21"
       cx="107.8177"
       cy="152.79688"
       r="0.66145831" />
    <path
       style="fill:#000000;fill-opacity:1;stroke:#000000;stroke-width:0.531;stroke-dasharray:none;stroke-opacity:0.991236;marker-end:url(#ArrowWide)"
       d="M 107.8177,152.13541 V 137.58334"
       id="path22" />
    <path
       style="fill:#000000;fill-opacity:1;stroke:#000000;stroke-width:0.531;stroke-dasharray:none;stroke-opacity:0.991236;marker-end:url(#ArrowWide)"
       d="m 107.8655,152.85968 8.59896,7.93751"
       id="path23" />
    <path
       style="fill:#000000;fill-opacity:1;stroke:#000000;stroke-width:0.531;stroke-dasharray:none;stroke-opacity:0.991236;marker-end:url(#ArrowWide)"
       d="m 107.8655,152.85968 12.51991,-3.37009"
       id="path24" />
    <g
       inkscape:label=""
       transform="matrix(0.56896078,0,0,0.56896078,84.070225,157.00941)"
       id="g26">
      <g
         fill="#000000"
         fill-opacity="1"
         id="g25"
         transform="matrix(0.352778,0,0,0.352778,-1.17713,-0.708422)">
        <g
           id="g24"
           transform="translate(1.993,18.93)">
          <path
             d="m 15.34375,-14.171875 c 0.84375,-1.34375 1.609375,-1.9375 2.875,-2.03125 0.25,-0.03125 0.4375,-0.03125 0.4375,-0.46875 0,-0.109375 -0.04687,-0.25 -0.265625,-0.25 -0.453125,0 -1.515625,0.04687 -1.953125,0.04687 -0.71875,0 -1.46875,-0.04687 -2.15625,-0.04687 -0.203125,0 -0.453125,0 -0.453125,0.46875 0,0.21875 0.21875,0.25 0.328125,0.25 0.90625,0.07813 1.015625,0.515625 1.015625,0.8125 0,0.375 -0.359375,0.9375 -0.375,0.96875 L 7.015625,-2.078125 5.28125,-15.4375 c 0,-0.71875 1.28125,-0.765625 1.5625,-0.765625 0.375,0 0.59375,0 0.59375,-0.46875 0,-0.25 -0.28125,-0.25 -0.34375,-0.25 -0.421875,0 -0.921875,0.04687 -1.34375,0.04687 H 4.359375 c -1.8125,0 -2.546875,-0.04687 -2.578125,-0.04687 -0.140625,0 -0.4375,0 -0.4375,0.4375 0,0.28125 0.171875,0.28125 0.5625,0.28125 1.265625,0 1.34375,0.21875 1.421875,0.84375 l 1.96875,15.28125 C 5.375,0.453125 5.375,0.515625 5.71875,0.515625 c 0.296875,0 0.421875,-0.0625 0.671875,-0.46875 z m 0,0"
             id="path2" />
        </g>
      </g>
    </g>
    <g
       inkscape:label=""
       transform="matrix(0.52586527,0,0,0.52586527,117.46244,156.97603)"
       id="g32">
      <g
         fill="#000000"
         fill-opacity="1"
         id="g4"
         transform="matrix(0.352778,0,0,0.352778,-0.935896,-0.701366)">
        <g
           id="g27"
           transform="translate(1.173,19.66)">
          <path
             d="m 13.265625,-14.796875 c -0.3125,0.28125 -1.21875,1.140625 -1.21875,1.484375 0,0.25 0.21875,0.46875 0.46875,0.46875 0.21875,0 0.328125,-0.140625 0.5,-0.390625 0.59375,-0.75 1.265625,-1.21875 1.828125,-1.53125 0.25,-0.15625 0.421875,-0.234375 0.421875,-0.5 0,-0.21875 -0.203125,-0.34375 -0.34375,-0.46875 -0.703125,-0.46875 -0.875,-1.140625 -0.9375,-1.4375 -0.07813,-0.203125 -0.15625,-0.5 -0.5,-0.5 -0.15625,0 -0.453125,0.109375 -0.453125,0.46875 0,0.234375 0.15625,0.828125 0.625,1.484375 H 5.328125 c -0.421875,0 -0.84375,0 -0.84375,0.484375 0,0.4375 0.453125,0.4375 0.84375,0.4375 z m 0,0"
             id="path26" />
        </g>
      </g>
      <g
         fill="#000000"
         fill-opacity="1"
         id="g29"
         transform="matrix(0.352778,0,0,0.352778,-0.935896,-0.701366)">
        <g
           id="g28"
           transform="translate(1.981059,19.66)">
          <path
             d="m 9.640625,-10.140625 c -0.765625,0.15625 -1.171875,0.703125 -1.171875,1.25 0,0.59375 0.484375,0.78125 0.828125,0.78125 0.6875,0 1.265625,-0.59375 1.265625,-1.328125 0,-0.796875 -0.78125,-1.484375 -2.015625,-1.484375 -0.984375,0 -2.125,0.4375 -3.171875,1.953125 -0.171875,-1.3125 -1.15625,-1.953125 -2.15625,-1.953125 -0.96875,0 -1.453125,0.734375 -1.75,1.28125 -0.421875,0.890625 -0.796875,2.375 -0.796875,2.5 0,0.109375 0.09375,0.234375 0.265625,0.234375 0.203125,0 0.234375,-0.03125 0.375,-0.609375 C 1.6875,-9 2.15625,-10.4375 3.140625,-10.4375 c 0.59375,0 0.78125,0.421875 0.78125,1.140625 0,0.546875 -0.25,1.515625 -0.421875,2.28125 L 2.796875,-4.34375 c -0.09375,0.484375 -0.375,1.59375 -0.5,2.046875 C 2.125,-1.65625 1.859375,-0.5 1.859375,-0.375 1.859375,-0.03125 2.125,0.25 2.5,0.25 2.78125,0.25 3.25,0.078125 3.390625,-0.421875 3.46875,-0.625 4.390625,-4.359375 4.53125,-4.9375 4.65625,-5.484375 4.8125,-6 4.9375,-6.546875 c 0.09375,-0.34375 0.1875,-0.734375 0.265625,-1.0625 0.078125,-0.21875 0.75,-1.4375 1.359375,-1.984375 0.296875,-0.265625 0.953125,-0.84375 1.96875,-0.84375 0.390625,0 0.78125,0.07813 1.109375,0.296875 z m 0,0"
             id="path27" />
        </g>
      </g>
      <g
         fill="#000000"
         fill-opacity="1"
         id="g31"
         transform="matrix(0.352778,0,0,0.352778,-0.935896,-0.701366)">
        <g
           id="g30"
           transform="translate(12.93,23.378)">
          <path
             d="m 4.875,-2.46875 c 0,-0.078125 -0.078125,-0.15625 -0.171875,-0.15625 -0.15625,0 -0.171875,0.0625 -0.265625,0.359375 -0.4375,1.5625 -1.15625,2.09375 -1.71875,2.09375 -0.203125,0 -0.453125,-0.046875 -0.453125,-0.5625 0,-0.46875 0.21875,-0.984375 0.40625,-1.5 L 3.875,-5.4375 c 0.046875,-0.140625 0.171875,-0.453125 0.171875,-0.78125 0,-0.71875 -0.515625,-1.375 -1.359375,-1.375 -1.578125,0 -2.21875,2.5 -2.21875,2.640625 0,0.0625 0.0625,0.15625 0.1875,0.15625 0.15625,0 0.171875,-0.078125 0.234375,-0.3125 C 1.3125,-6.5625 1.96875,-7.25 2.640625,-7.25 c 0.15625,0 0.4375,0.015625 0.4375,0.5625 0,0.453125 -0.21875,1.015625 -0.359375,1.40625 L 1.515625,-2.078125 C 1.40625,-1.8125 1.3125,-1.53125 1.3125,-1.21875 c 0,0.765625 0.53125,1.390625 1.359375,1.390625 C 4.25,0.171875 4.875,-2.34375 4.875,-2.46875 Z M 4.734375,-10.75 c 0,-0.25 -0.203125,-0.5625 -0.578125,-0.5625 -0.40625,0 -0.84375,0.375 -0.84375,0.828125 0,0.421875 0.359375,0.5625 0.5625,0.5625 0.46875,0 0.859375,-0.4375 0.859375,-0.828125 z m 0,0"
             id="path29" />
        </g>
      </g>
    </g>
  </g>
</svg>
