<?xml version="1.0" encoding="UTF-8" standalone="no"?>
<!-- Created with Inkscape (http://www.inkscape.org/) -->

<svg
   width="68.718109mm"
   height="58.652279mm"
   viewBox="0 0 68.718109 58.652279"
   version="1.1"
   id="svg1"
   inkscape:version="1.3.2 (091e20ef0f, 2023-11-25, custom)"
   sodipodi:docname="epsilon-area.svg"
   xmlns:inkscape="http://www.inkscape.org/namespaces/inkscape"
   xmlns:sodipodi="http://sodipodi.sourceforge.net/DTD/sodipodi-0.dtd"
   xmlns="http://www.w3.org/2000/svg"
   xmlns:svg="http://www.w3.org/2000/svg">
  <sodipodi:namedview
     id="namedview1"
     pagecolor="#ffffff"
     bordercolor="#000000"
     borderopacity="0.25"
     inkscape:showpageshadow="2"
     inkscape:pageopacity="0.0"
     inkscape:pagecheckerboard="0"
     inkscape:deskcolor="#d1d1d1"
     inkscape:document-units="mm"
     showgrid="true"
     inkscape:zoom="2.8930516"
     inkscape:cx="39.750415"
     inkscape:cy="131.69485"
     inkscape:window-width="1920"
     inkscape:window-height="1011"
     inkscape:window-x="0"
     inkscape:window-y="32"
     inkscape:window-maximized="1"
     inkscape:current-layer="layer1">
    <inkscape:grid
       id="grid1"
       units="px"
       originx="-22.219159"
       originy="-108.29511"
       spacingx="0.26458333"
       spacingy="0.26458334"
       empcolor="#0099e5"
       empopacity="0.30196078"
       color="#0099e5"
       opacity="0.14901961"
       empspacing="5"
       dotted="false"
       gridanglex="30"
       gridanglez="30"
       visible="true" />
  </sodipodi:namedview>
  <defs
     id="defs1">
    <marker
       style="overflow:visible"
       id="ArrowWide"
       refX="0"
       refY="0"
       orient="auto-start-reverse"
       inkscape:stockid="Wide arrow"
       markerWidth="1"
       markerHeight="1"
       viewBox="0 0 1 1"
       inkscape:isstock="true"
       inkscape:collect="always"
       preserveAspectRatio="xMidYMid">
      <path
         style="fill:none;stroke:context-stroke;stroke-width:1;stroke-linecap:butt"
         d="M 3,-3 0,0 3,3"
         transform="rotate(180,0.125,0)"
         sodipodi:nodetypes="ccc"
         id="path4" />
    </marker>
  </defs>
  <g
     inkscape:label="Layer 1"
     inkscape:groupmode="layer"
     id="layer1"
     transform="translate(-22.219159,-108.29511)">
    <path
       style="fill:none;stroke:#000000;stroke-width:0.531;stroke-dasharray:1.062, 0.531;stroke-dashoffset:0;stroke-opacity:0.991236"
       d="m 37.041666,111.125 c -0.958408,0.65792 -2.063631,0.21101 -3.127658,0.42382 -3.052014,0.6104 -6.846615,2.84218 -7.99587,5.90686 -1.988152,5.30172 -0.359592,12.50852 0.576282,17.93668 0.460912,2.67335 -0.06297,5.84538 -1.368668,8.21198 -0.705424,1.27859 -1.93994,2.86555 -2.377152,4.25006 -0.702064,2.2232 0.09545,5.13988 1.224597,7.05943 1.769749,3.00857 5.407157,4.42299 8.284011,6.12296 3.603266,2.12921 7.027582,4.93499 11.30948,5.54669 1.159581,0.16565 2.362475,0.072 3.529708,0.072 2.147803,0 4.235842,-0.20044 6.122964,-1.36867 2.019612,-1.25024 3.52435,-2.94807 5.186516,-4.61023 1.540851,-1.54085 3.291104,-2.8462 4.754303,-4.46616 1.509548,-1.67128 3.218249,-4.38616 5.114472,-5.61871 1.952604,-1.2692 4.459838,-1.43287 6.699248,-1.65681 1.631873,-0.16319 3.198048,-0.71187 4.826338,-0.93646 1.800225,-0.24831 3.930973,-0.30527 5.618726,-1.00849 2.353829,-0.98074 3.77067,-3.5165 4.466164,-5.83482 2.14748,-7.15827 -0.159641,-13.6036 -6.195007,-17.93669 -2.63797,-1.89393 -5.345789,-3.77814 -8.356047,-5.04244 -1.510514,-0.63442 -3.117455,-0.86631 -4.682267,-1.29663 -1.725832,-0.4746 -3.377354,-1.21012 -5.114475,-1.65681 -1.468245,-0.37754 -3.15086,-0.61763 -4.538197,-1.22459 -3.20666,-1.40291 -2.780287,-4.35037 -7.275529,-4.97041 -2.317011,-0.31959 -7.055053,-0.78867 -9.414216,-0.14731 -1.130398,0.3073 -2.004626,1.21998 -3.011096,1.79545 -0.301818,0.17258 -0.870074,0.26145 -1.278593,0.48841 -1.27593,0.70885 -1.763297,0.64167 -2.978034,-0.0391 z"
       id="path1" />
    <circle
       style="fill:none;stroke:#000000;stroke-width:0.531;stroke-dasharray:none;stroke-dashoffset:0;stroke-opacity:0.991236"
       id="path2"
       cx="47.625"
       cy="133.61459"
       r="13.229166" />
    <path
       style="fill:none;stroke:#000000;stroke-width:0.531;stroke-dasharray:none;stroke-dashoffset:0;stroke-opacity:0.991236;marker-end:url(#ArrowWide)"
       d="m 47.622064,133.62554 12.232981,-3.27783"
       id="path3" />
    <path
       style="fill:none;stroke:#000000;stroke-width:0.531;stroke-dasharray:none;stroke-dashoffset:0;stroke-opacity:0.991236;marker-end:url(#ArrowWide)"
       d="m 47.624997,133.61459 2.515481,9.3879"
       id="path5" />
    <ellipse
       style="fill:#000000;fill-opacity:1;stroke:#000000;stroke-width:0.531;stroke-dasharray:none;stroke-dashoffset:0;stroke-opacity:0.991236"
       id="path6"
       cx="47.644478"
       cy="133.61459"
       rx="0.13557103"
       ry="0.13743712" />
    <g
       inkscape:label=""
       transform="translate(65.699346,125.76528)"
       id="g10">
      <g
         fill="#000000"
         fill-opacity="1"
         id="g9"
         transform="matrix(0.352778,0,0,0.352778,-0.929084,-0.515364)">
        <g
           id="g8"
           transform="translate(1.993,12.664)">
          <path
             d="m 3.4375,-5.65625 c 0.796875,0.328125 1.640625,0.328125 2.109375,0.328125 0.640625,0 1.9375,0 1.9375,-0.71875 0,-0.453125 -0.46875,-0.625 -1.734375,-0.625 -0.625,0 -1.359375,0.078125 -2.234375,0.453125 -0.765625,-0.375 -1.0625,-0.9375 -1.0625,-1.484375 0,-1.546875 2.421875,-2.4375 4.640625,-2.4375 0.421875,0 1.3125,0 2.34375,0.765625 0.15625,0.109375 0.234375,0.1875 0.40625,0.1875 0.296875,0 0.609375,-0.328125 0.609375,-0.625 0,-0.453125 -1.4375,-1.390625 -3.140625,-1.390625 -2.78125,0 -5.40625,1.65625 -5.40625,3.5 0,0.90625 0.59375,1.484375 1.015625,1.78125 -1.4375,0.8125 -2.28125,2.15625 -2.28125,3.375 0,1.703125 1.546875,3.0625 3.921875,3.0625 3.265625,0 4.578125,-2.171875 4.578125,-2.515625 0,-0.125 -0.09375,-0.234375 -0.21875,-0.234375 -0.125,0 -0.171875,0.078125 -0.265625,0.234375 -0.28125,0.46875 -0.921875,1.453125 -3.875,1.453125 -1.53125,0 -3.5625,-0.390625 -3.5625,-2.15625 0,-0.84375 0.609375,-2.109375 2.21875,-2.953125 z m 0.78125,-0.296875 c 0.65625,-0.21875 1.3125,-0.21875 1.484375,-0.21875 0.6875,0 0.8125,0.046875 1.203125,0.15625 -0.40625,0.1875 -0.46875,0.1875 -1.359375,0.1875 -0.4375,0 -0.84375,0 -1.328125,-0.125 z m 0,0"
             id="path8" />
        </g>
      </g>
    </g>
    <g
       inkscape:label=""
       transform="matrix(0.83756791,0,0,0.83756791,39.706784,137.55853)"
       id="g11">
      <g
         fill="#000000"
         fill-opacity="1"
         id="g2"
         transform="matrix(0.352778,0,0,0.352778,-1.13303,-0.708422)">
        <g
           id="use1"
           transform="translate(1.993,18.93)">
          <path
             d="m 22.5,-15.109375 c 0.21875,-0.84375 0.28125,-1.09375 2.03125,-1.09375 0.46875,0 0.703125,0 0.703125,-0.46875 0,-0.25 -0.1875,-0.25 -0.65625,-0.25 h -2.96875 c -0.625,0 -0.640625,0.01563 -0.921875,0.421875 L 11.640625,-2.203125 9.78125,-16.375 C 9.71875,-16.921875 9.6875,-16.921875 9.046875,-16.921875 H 5.96875 c -0.46875,0 -0.6875,0 -0.6875,0.46875 0,0.25 0.21875,0.25 0.59375,0.25 1.515625,0 1.515625,0.1875 1.515625,0.46875 0,0.04687 0,0.203125 -0.109375,0.5625 L 4.109375,-2.53125 C 3.8125,-1.34375 3.25,-0.796875 1.59375,-0.71875 c -0.078125,0 -0.375,0.03125 -0.375,0.453125 C 1.21875,0 1.4375,0 1.53125,0 c 0.5,0 1.765625,-0.046875 2.265625,-0.046875 h 1.1875 C 5.328125,-0.046875 5.75,0 6.09375,0 c 0.171875,0 0.453125,0 0.453125,-0.46875 0,-0.21875 -0.25,-0.25 -0.359375,-0.25 C 5.375,-0.75 4.578125,-0.890625 4.578125,-1.78125 c 0,-0.25 0,-0.28125 0.109375,-0.625 L 8.109375,-16.0625 H 8.125 l 2.0625,15.390625 C 10.265625,-0.078125 10.28125,0 10.5,0 c 0.28125,0 0.40625,-0.203125 0.53125,-0.421875 L 20.984375,-16.1875 h 0.03125 l -3.59375,14.359375 c -0.21875,0.859375 -0.265625,1.109375 -2.015625,1.109375 -0.46875,0 -0.71875,0 -0.71875,0.453125 C 14.6875,0 14.921875,0 15.0625,0 c 0.421875,0 0.921875,-0.046875 1.34375,-0.046875 h 2.921875 C 19.75,-0.046875 20.265625,0 20.6875,0 c 0.203125,0 0.46875,0 0.46875,-0.46875 0,-0.25 -0.21875,-0.25 -0.59375,-0.25 -1.5,0 -1.5,-0.203125 -1.5,-0.453125 0,-0.015625 0,-0.1875 0.04687,-0.390625 z m 0,0"
             id="path10" />
        </g>
      </g>
    </g>
    <g
       inkscape:label=""
       transform="matrix(0.76926025,0,0,0.76926025,44.436304,127.75679)"
       id="g17">
      <g
         fill="#000000"
         fill-opacity="1"
         id="g16"
         transform="matrix(0.352778,0,0,0.352778,-1.00074,-0.438326)">
        <g
           id="g15"
           transform="translate(1.993,18.93)">
          <path
             d="M 4.21875,-2.75 C 3.34375,-1.28125 2.5,-0.796875 1.3125,-0.71875 1.046875,-0.6875 0.84375,-0.6875 0.84375,-0.25 c 0,0.15625 0.125,0.25 0.296875,0.25 0.453125,0 1.5625,-0.046875 2,-0.046875 C 3.859375,-0.046875 4.65625,0 5.359375,0 5.5,0 5.796875,0 5.796875,-0.46875 c 0,-0.21875 -0.203125,-0.25 -0.34375,-0.25 C 4.875,-0.765625 4.40625,-0.96875 4.40625,-1.5625 c 0,-0.34375 0.15625,-0.625 0.46875,-1.15625 l 1.890625,-3.125 h 6.3125 c 0.03125,0.21875 0.03125,0.421875 0.0625,0.640625 0.0625,0.640625 0.359375,3.21875 0.359375,3.6875 0,0.75 -1.265625,0.796875 -1.65625,0.796875 -0.265625,0 -0.546875,0 -0.546875,0.453125 C 11.296875,0 11.515625,0 11.671875,0 c 0.421875,0 0.921875,-0.046875 1.34375,-0.046875 h 1.40625 C 15.9375,-0.046875 17.03125,0 17.046875,0 17.21875,0 17.5,0 17.5,-0.46875 c 0,-0.25 -0.234375,-0.25 -0.59375,-0.25 -1.375,0 -1.390625,-0.21875 -1.46875,-0.96875 L 13.921875,-17.15625 C 13.875,-17.640625 13.78125,-17.6875 13.5,-17.6875 c -0.234375,0 -0.390625,0.04687 -0.609375,0.421875 z m 2.96875,-3.8125 4.984375,-8.328125 0.84375,8.328125 z m 0,0"
             id="path14" />
        </g>
      </g>
    </g>
  </g>
</svg>
