<?xml version="1.0" encoding="UTF-8" standalone="no"?>
<!-- Created with Inkscape (http://www.inkscape.org/) -->

<svg
   width="54.120823mm"
   height="27.620131mm"
   viewBox="0 0 54.120823 27.620131"
   version="1.1"
   id="svg1"
   inkscape:version="1.3.2 (091e20ef0f, 2023-11-25, custom)"
   sodipodi:docname="mss_in_a_nutshell.svg"
   xmlns:inkscape="http://www.inkscape.org/namespaces/inkscape"
   xmlns:sodipodi="http://sodipodi.sourceforge.net/DTD/sodipodi-0.dtd"
   xmlns="http://www.w3.org/2000/svg"
   xmlns:svg="http://www.w3.org/2000/svg">
  <sodipodi:namedview
     id="namedview1"
     pagecolor="#ffffff"
     bordercolor="#000000"
     borderopacity="0.25"
     inkscape:showpageshadow="2"
     inkscape:pageopacity="0.0"
     inkscape:pagecheckerboard="0"
     inkscape:deskcolor="#d1d1d1"
     inkscape:document-units="mm"
     showgrid="true"
     inkscape:zoom="3.6635685"
     inkscape:cx="118.46373"
     inkscape:cy="36.849318"
     inkscape:window-width="1920"
     inkscape:window-height="1011"
     inkscape:window-x="0"
     inkscape:window-y="32"
     inkscape:window-maximized="1"
     inkscape:current-layer="layer1">
    <inkscape:grid
       id="grid1"
       units="px"
       originx="-9.426622"
       originy="-48.016832"
       spacingx="0.26458333"
       spacingy="0.26458334"
       empcolor="#0099e5"
       empopacity="0.30196078"
       color="#0099e5"
       opacity="0.14901961"
       empspacing="5"
       dotted="false"
       gridanglex="30"
       gridanglez="30"
       visible="true" />
  </sodipodi:namedview>
  <defs
     id="defs1">
    <marker
       style="overflow:visible"
       id="ArrowWide"
       refX="0"
       refY="0"
       orient="auto-start-reverse"
       inkscape:stockid="Wide arrow"
       markerWidth="1"
       markerHeight="1"
       viewBox="0 0 1 1"
       inkscape:isstock="true"
       inkscape:collect="always"
       preserveAspectRatio="xMidYMid">
      <path
         style="fill:none;stroke:context-stroke;stroke-width:1;stroke-linecap:butt"
         d="M 3,-3 0,0 3,3"
         transform="rotate(180,0.125,0)"
         sodipodi:nodetypes="ccc"
         id="path35" />
    </marker>
    <marker
       style="overflow:visible"
       id="ArrowWide-8"
       refX="0"
       refY="0"
       orient="auto-start-reverse"
       inkscape:stockid="Wide arrow"
       markerWidth="1"
       markerHeight="1"
       viewBox="0 0 1 1"
       inkscape:isstock="true"
       inkscape:collect="always"
       preserveAspectRatio="xMidYMid">
      <path
         style="fill:none;stroke:context-stroke;stroke-width:1;stroke-linecap:butt"
         d="M 3,-3 0,0 3,3"
         transform="rotate(180,0.125,0)"
         sodipodi:nodetypes="ccc"
         id="path35-7" />
    </marker>
  </defs>
  <g
     inkscape:label="Layer 1"
     inkscape:groupmode="layer"
     id="layer1"
     transform="translate(-9.42662, -48.0168)">
    <path
       style="fill:#000000;stroke:#000000;stroke-width:0.531;stroke-opacity:0.991236"
       d="M 13.229166,67.468752 H 60.854163"
       id="path1" />
    <path
       style="fill:#000000;stroke:#000000;stroke-width:0.531;stroke-opacity:0.991236"
       d="m 19.843749,66.145835 v 2.645833"
       id="path2" />
    <path
       style="fill:#000000;stroke:#000000;stroke-width:0.531;stroke-opacity:0.991236"
       d="m 52.916663,66.145835 v 2.645833"
       id="path3" />
    <g
       inkscape:label=""
       transform="matrix(0.4673798,0,0,0.4673798,9.4266204,71.616093)"
       id="g3">
      <g
         fill="#000000"
         fill-opacity="1"
         id="g12"
         transform="matrix(0.352778,0,0,0.352778,-1.10547,-0.604661)">
        <g
           id="use11"
           transform="translate(1.993,22.084)">
          <path
             d="m 9.09375,-15.015625 c 0.21875,-0.9375 0.296875,-1.1875 2.484375,-1.1875 0.65625,0 0.84375,0 0.84375,-0.46875 0,-0.25 -0.28125,-0.25 -0.375,-0.25 -0.5,0 -1.0625,0.04687 -1.5625,0.04687 H 7.15625 c -0.46875,0 -1.015625,-0.04687 -1.484375,-0.04687 -0.1875,0 -0.46875,0 -0.46875,0.46875 0,0.25 0.21875,0.25 0.59375,0.25 1.515625,0 1.515625,0.1875 1.515625,0.46875 0,0.04687 0,0.203125 -0.09375,0.5625 l -3.359375,13.34375 c -0.21875,0.859375 -0.265625,1.109375 -2,1.109375 -0.46875,0 -0.71875,0 -0.71875,0.453125 C 1.140625,0 1.28125,0 1.78125,0 H 12.890625 C 13.4375,0 13.453125,-0.03125 13.625,-0.46875 L 15.53125,-5.75 c 0.0625,-0.125 0.109375,-0.265625 0.109375,-0.34375 0,-0.15625 -0.125,-0.25 -0.25,-0.25 -0.03125,0 -0.15625,0 -0.203125,0.09375 -0.04687,0.03125 -0.04687,0.078125 -0.25,0.546875 -0.78125,2.1875 -1.90625,4.984375 -6.09375,4.984375 h -2.375 c -0.34375,0 -0.390625,0 -0.546875,-0.03125 C 5.65625,-0.765625 5.625,-0.8125 5.625,-1.015625 5.625,-1.1875 5.671875,-1.34375 5.71875,-1.5625 Z m 0,0"
             id="path21" />
        </g>
      </g>
      <g
         fill="#000000"
         fill-opacity="1"
         id="g14"
         transform="matrix(0.352778,0,0,0.352778,-1.10547,-0.604661)">
        <g
           id="use12"
           transform="translate(18.506001,25.802)">
          <path
             d="M 3.546875,-5.046875 C 3.578125,-5.140625 4.015625,-6.015625 4.65625,-6.5625 5.09375,-6.96875 5.6875,-7.25 6.359375,-7.25 c 0.6875,0 0.921875,0.515625 0.921875,1.203125 0,0.109375 0,0.453125 -0.203125,1.265625 l -0.4375,1.765625 c -0.125,0.515625 -0.453125,1.796875 -0.5,1.984375 -0.0625,0.25 -0.171875,0.703125 -0.171875,0.765625 0,0.25 0.203125,0.4375 0.453125,0.4375 0.515625,0 0.609375,-0.390625 0.765625,-1.015625 L 8.21875,-4.953125 C 8.25,-5.09375 9.140625,-7.25 11.03125,-7.25 c 0.6875,0 0.9375,0.515625 0.9375,1.203125 0,0.96875 -0.671875,2.84375 -1.046875,3.875 -0.15625,0.421875 -0.25,0.640625 -0.25,0.953125 0,0.765625 0.53125,1.390625 1.359375,1.390625 1.609375,0 2.203125,-2.53125 2.203125,-2.640625 0,-0.078125 -0.0625,-0.15625 -0.171875,-0.15625 -0.15625,0 -0.171875,0.0625 -0.25,0.359375 -0.40625,1.375 -1.03125,2.09375 -1.71875,2.09375 -0.171875,0 -0.453125,-0.015625 -0.453125,-0.5625 0,-0.453125 0.203125,-1 0.28125,-1.1875 C 12.21875,-2.75 13,-4.78125 13,-5.78125 13,-6.8125 12.390625,-7.59375 11.09375,-7.59375 9.9375,-7.59375 9,-6.9375 8.3125,-5.921875 8.265625,-6.859375 7.703125,-7.59375 6.40625,-7.59375 4.875,-7.59375 4.0625,-6.515625 3.75,-6.078125 3.703125,-7.0625 3,-7.59375 2.234375,-7.59375 c -0.5,0 -0.890625,0.234375 -1.21875,0.890625 -0.3125,0.625 -0.546875,1.671875 -0.546875,1.75 0,0.0625 0.0625,0.15625 0.1875,0.15625 0.140625,0 0.15625,-0.03125 0.25,-0.421875 C 1.171875,-6.234375 1.5,-7.25 2.1875,-7.25 c 0.390625,0 0.53125,0.28125 0.53125,0.796875 0,0.375 -0.171875,1.046875 -0.296875,1.578125 l -0.46875,1.859375 C 1.875,-2.6875 1.6875,-1.90625 1.59375,-1.59375 c -0.109375,0.4375 -0.296875,1.25 -0.296875,1.328125 0,0.25 0.1875,0.4375 0.4375,0.4375 0.21875,0 0.453125,-0.109375 0.59375,-0.359375 0.03125,-0.09375 0.1875,-0.6875 0.265625,-1.03125 l 0.390625,-1.546875 z m 0,0"
             id="path22" />
        </g>
        <g
           id="use13"
           transform="translate(33.250992,25.802)">
          <path
             d="m 4.875,-2.46875 c 0,-0.078125 -0.078125,-0.15625 -0.171875,-0.15625 -0.15625,0 -0.171875,0.0625 -0.265625,0.359375 -0.4375,1.5625 -1.15625,2.09375 -1.71875,2.09375 -0.203125,0 -0.453125,-0.046875 -0.453125,-0.5625 0,-0.46875 0.21875,-0.984375 0.40625,-1.5 L 3.875,-5.4375 c 0.046875,-0.140625 0.171875,-0.453125 0.171875,-0.78125 0,-0.71875 -0.515625,-1.375 -1.359375,-1.375 -1.578125,0 -2.21875,2.5 -2.21875,2.640625 0,0.0625 0.0625,0.15625 0.1875,0.15625 0.15625,0 0.171875,-0.078125 0.234375,-0.3125 C 1.3125,-6.5625 1.96875,-7.25 2.640625,-7.25 c 0.15625,0 0.4375,0.015625 0.4375,0.5625 0,0.453125 -0.21875,1.015625 -0.359375,1.40625 L 1.515625,-2.078125 C 1.40625,-1.8125 1.3125,-1.53125 1.3125,-1.21875 c 0,0.765625 0.53125,1.390625 1.359375,1.390625 C 4.25,0.171875 4.875,-2.34375 4.875,-2.46875 Z M 4.734375,-10.75 c 0,-0.25 -0.203125,-0.5625 -0.578125,-0.5625 -0.40625,0 -0.84375,0.375 -0.84375,0.828125 0,0.421875 0.359375,0.5625 0.5625,0.5625 0.46875,0 0.859375,-0.4375 0.859375,-0.828125 z m 0,0"
             id="path23" />
        </g>
        <g
           id="use14"
           transform="translate(39.000935,25.802)">
          <path
             d="M 3.546875,-5.046875 C 3.578125,-5.140625 4.015625,-6.015625 4.65625,-6.5625 5.09375,-6.96875 5.6875,-7.25 6.359375,-7.25 c 0.6875,0 0.921875,0.515625 0.921875,1.203125 0,0.984375 -0.703125,2.953125 -1.046875,3.875 -0.15625,0.421875 -0.25,0.640625 -0.25,0.953125 0,0.765625 0.546875,1.390625 1.375,1.390625 1.59375,0 2.203125,-2.53125 2.203125,-2.640625 0,-0.078125 -0.078125,-0.15625 -0.171875,-0.15625 -0.15625,0 -0.171875,0.0625 -0.265625,0.359375 -0.390625,1.40625 -1.046875,2.09375 -1.71875,2.09375 -0.171875,0 -0.453125,-0.015625 -0.453125,-0.5625 0,-0.4375 0.1875,-0.953125 0.296875,-1.1875 0.34375,-0.953125 1.0625,-2.875 1.0625,-3.859375 0,-1.03125 -0.59375,-1.8125 -1.90625,-1.8125 C 4.875,-7.59375 4.0625,-6.515625 3.75,-6.078125 3.703125,-7.0625 3,-7.59375 2.234375,-7.59375 c -0.546875,0 -0.921875,0.328125 -1.21875,0.90625 -0.3125,0.625 -0.546875,1.65625 -0.546875,1.734375 0,0.0625 0.0625,0.15625 0.1875,0.15625 0.140625,0 0.15625,-0.03125 0.25,-0.421875 C 1.1875,-6.265625 1.5,-7.25 2.1875,-7.25 c 0.390625,0 0.53125,0.28125 0.53125,0.796875 0,0.375 -0.171875,1.046875 -0.296875,1.578125 l -0.46875,1.859375 C 1.875,-2.6875 1.6875,-1.90625 1.59375,-1.59375 c -0.109375,0.4375 -0.296875,1.25 -0.296875,1.328125 0,0.25 0.1875,0.4375 0.4375,0.4375 0.21875,0 0.453125,-0.109375 0.59375,-0.359375 0.03125,-0.09375 0.1875,-0.6875 0.265625,-1.03125 l 0.390625,-1.546875 z m 0,0"
             id="path24" />
        </g>
      </g>
      <g
         fill="#000000"
         fill-opacity="1"
         id="g15"
         transform="matrix(0.352778,0,0,0.352778,-1.10547,-0.604661)">
        <g
           id="use15"
           transform="translate(56.445999,22.084)">
          <path
             d="m 17.890625,-11.203125 c 0,-0.515625 -0.171875,-0.734375 -0.34375,-0.734375 -0.09375,0 -0.328125,0.09375 -0.34375,0.65625 -0.109375,1.71875 -1.84375,2.734375 -3.453125,2.734375 -1.4375,0 -2.671875,-0.765625 -3.96875,-1.640625 -1.328125,-0.890625 -2.671875,-1.78125 -4.28125,-1.78125 -2.296875,0 -4.140625,1.765625 -4.140625,4.03125 0,0.546875 0.203125,0.75 0.34375,0.75 0.25,0 0.359375,-0.46875 0.359375,-0.5625 0.125,-2.09375 2.15625,-2.828125 3.4375,-2.828125 1.4375,0 2.671875,0.765625 3.96875,1.625 1.328125,0.90625 2.671875,1.796875 4.28125,1.796875 2.3125,0 4.140625,-1.765625 4.140625,-4.046875 z m 0,5.796875 c 0,-0.71875 -0.296875,-0.765625 -0.34375,-0.765625 -0.09375,0 -0.328125,0.125 -0.34375,0.671875 -0.109375,1.703125 -1.84375,2.71875 -3.453125,2.71875 -1.4375,0 -2.671875,-0.765625 -3.96875,-1.625 C 8.453125,-5.296875 7.109375,-6.1875 5.5,-6.1875 c -2.296875,0 -4.140625,1.75 -4.140625,4.03125 0,0.546875 0.203125,0.75 0.34375,0.75 0.25,0 0.359375,-0.484375 0.359375,-0.578125 C 2.1875,-4.0625 4.21875,-4.8125 5.5,-4.8125 c 1.4375,0 2.671875,0.765625 3.96875,1.640625 1.328125,0.890625 2.671875,1.78125 4.28125,1.78125 2.359375,0 4.140625,-1.828125 4.140625,-4.015625 z m 0,0"
             id="path25" />
        </g>
      </g>
      <g
         fill="#000000"
         fill-opacity="1"
         id="g17"
         transform="matrix(0.352778,0,0,0.352778,-1.10547,-0.604661)">
        <g
           id="use16"
           transform="translate(82.610001,22.084)">
          <path
             d="m 6.59375,-15.828125 c 0,-0.53125 -0.03125,-0.546875 -0.375,-0.546875 -0.96875,1.15625 -2.421875,1.53125 -3.8125,1.578125 -0.078125,0 -0.203125,0 -0.21875,0.04687 -0.03125,0.0625 -0.03125,0.109375 -0.03125,0.625 0.765625,0 2.0625,-0.15625 3.046875,-0.75 v 13.0625 c 0,0.875 -0.046875,1.171875 -2.1875,1.171875 H 2.28125 V 0 c 1.1875,-0.03125 2.421875,-0.046875 3.609375,-0.046875 1.203125,0 2.4375,0.015625 3.625,0.046875 v -0.640625 h -0.75 c -2.125,0 -2.171875,-0.28125 -2.171875,-1.171875 z m 0,0"
             id="path26" />
        </g>
        <g
           id="use17"
           transform="translate(93.977364,22.084)">
          <path
             d="m 10.40625,-7.953125 c 0,-1.515625 -0.01563,-4.09375 -1.0625,-6.078125 -0.921875,-1.734375 -2.375,-2.34375 -3.671875,-2.34375 -1.1875,0 -2.703125,0.546875 -3.640625,2.328125 -0.984375,1.859375 -1.09375,4.15625 -1.09375,6.09375 0,1.40625 0.03125,3.5625 0.796875,5.453125 1.0625,2.546875 2.96875,2.890625 3.9375,2.890625 1.140625,0 2.875,-0.46875 3.890625,-2.8125 0.75,-1.71875 0.84375,-3.71875 0.84375,-5.53125 z M 5.671875,0 C 4.09375,0 3.140625,-1.359375 2.796875,-3.25 2.53125,-4.703125 2.53125,-6.84375 2.53125,-8.234375 c 0,-1.90625 0,-3.484375 0.3125,-5 0.484375,-2.109375 1.859375,-2.75 2.828125,-2.75 1.015625,0 2.328125,0.671875 2.796875,2.703125 0.328125,1.40625 0.359375,3.078125 0.359375,5.046875 0,1.625 0,3.59375 -0.296875,5.0625 C 8,-0.46875 6.546875,0 5.671875,0 Z m 0,0"
             id="path27" />
        </g>
      </g>
      <g
         fill="#000000"
         fill-opacity="1"
         id="g18"
         transform="matrix(0.352778,0,0,0.352778,-1.10547,-0.604661)">
        <g
           id="use18"
           transform="translate(105.346,13.089)">
          <path
             d="m 11.34375,-3.953125 c 0.296875,0 0.609375,0 0.609375,-0.359375 0,-0.34375 -0.3125,-0.34375 -0.609375,-0.34375 h -9.3125 c -0.296875,0 -0.609375,0 -0.609375,0.34375 0,0.359375 0.3125,0.359375 0.609375,0.359375 z m 0,0"
             id="path28" />
        </g>
      </g>
      <g
         fill="#000000"
         fill-opacity="1"
         id="g20"
         transform="matrix(0.352778,0,0,0.352778,-1.10547,-0.604661)">
        <g
           id="use19"
           transform="translate(118.736,13.089)">
          <path
             d="m 4.578125,-11 c 0,-0.359375 -0.015625,-0.375 -0.25,-0.375 -0.671875,0.796875 -1.6875,1.0625 -2.65625,1.09375 -0.046875,0 -0.140625,0 -0.15625,0.03125 C 1.5,-10.203125 1.5,-10.171875 1.5,-9.8125 c 0.53125,0 1.421875,-0.109375 2.109375,-0.515625 V -1.25 c 0,0.59375 -0.03125,0.796875 -1.515625,0.796875 H 1.578125 V 0 c 0.828125,-0.015625 1.6875,-0.03125 2.515625,-0.03125 0.828125,0 1.6875,0.015625 2.515625,0.03125 V -0.453125 H 6.09375 c -1.484375,0 -1.515625,-0.1875 -1.515625,-0.796875 z m 0,0"
             id="path29" />
        </g>
        <g
           id="use20"
           transform="translate(126.63098,13.089)">
          <path
             d="M 7.1875,-2.671875 H 6.875 c -0.171875,1.21875 -0.3125,1.4375 -0.390625,1.53125 C 6.40625,-1 5.171875,-1 4.921875,-1 H 1.625 c 0.609375,-0.671875 1.8125,-1.890625 3.28125,-3.3125 1.046875,-0.984375 2.28125,-2.15625 2.28125,-3.859375 0,-2.03125 -1.625,-3.203125 -3.4375,-3.203125 -1.890625,0 -3.046875,1.65625 -3.046875,3.21875 0,0.671875 0.5,0.75 0.703125,0.75 0.171875,0 0.6875,-0.09375 0.6875,-0.703125 0,-0.53125 -0.4375,-0.6875 -0.6875,-0.6875 -0.09375,0 -0.203125,0.015625 -0.265625,0.046875 0.328125,-1.453125 1.328125,-2.1875 2.375,-2.1875 1.5,0 2.46875,1.1875 2.46875,2.765625 0,1.484375 -0.875,2.78125 -1.859375,3.90625 l -3.421875,3.875 V 0 h 6.0625 z m 0,0"
             id="path30" />
        </g>
      </g>
      <g
         fill="#000000"
         fill-opacity="1"
         id="g21"
         transform="matrix(0.352778,0,0,0.352778,-1.10547,-0.604661)">
        <g
           id="use21"
           transform="translate(142.56599,22.084)">
          <path
             d="m 1.0625,-10.6875 v 0.328125 h 0.375 c 0.640625,0 1.171875,0.15625 1.171875,0.984375 v 6.921875 c 0,1.359375 -0.453125,2.03125 -1.546875,2.078125 v 0.34375 H 4.53125 V -0.375 C 3.125,-0.375 3,-1.5625 3,-2.453125 l 0.015625,-7.703125 c 0.203125,0.78125 0.625,1.6875 0.96875,2.46875 0.921875,2.390625 1.84375,4.78125 2.828125,7.140625 0.078125,0.171875 0.125,0.515625 0.375,0.515625 h 0.03125 c 0.296875,-0.015625 0.765625,-1.609375 1.078125,-2.390625 0.890625,-2.234375 1.796875,-4.484375 2.65625,-6.71875 0.15625,-0.34375 0.328125,-0.71875 0.421875,-1.09375 l 0.03125,8.890625 c 0,0.84375 -0.53125,0.96875 -1.171875,0.96875 h -0.375 v 0.34375 H 14 V -0.375 h -0.375 c -0.640625,0 -1.15625,-0.125 -1.15625,-0.96875 v -8.046875 c 0,-0.84375 0.515625,-0.96875 1.15625,-0.96875 H 14 V -10.6875 H 11.515625 L 11.25,-10.625 10.921875,-9.9375 7.5625,-1.390625 3.984375,-10.40625 3.84375,-10.625 3.5625,-10.6875 Z m 0,0"
             id="path31" />
        </g>
      </g>
    </g>
    <g
       inkscape:label=""
       transform="matrix(0.4673798,0,0,0.4673798,41.327812,71.636962)"
       id="g34">
      <g
         fill="#000000"
         fill-opacity="1"
         id="g10"
         transform="matrix(0.352778,0,0,0.352778,-1.10547,-0.604661)">
        <g
           id="use9"
           transform="translate(1.993,22.084)">
          <path
             d="m 9.09375,-15.015625 c 0.21875,-0.9375 0.296875,-1.1875 2.484375,-1.1875 0.65625,0 0.84375,0 0.84375,-0.46875 0,-0.25 -0.28125,-0.25 -0.375,-0.25 -0.5,0 -1.0625,0.04687 -1.5625,0.04687 H 7.15625 c -0.46875,0 -1.015625,-0.04687 -1.484375,-0.04687 -0.1875,0 -0.46875,0 -0.46875,0.46875 0,0.25 0.21875,0.25 0.59375,0.25 1.515625,0 1.515625,0.1875 1.515625,0.46875 0,0.04687 0,0.203125 -0.09375,0.5625 l -3.359375,13.34375 c -0.21875,0.859375 -0.265625,1.109375 -2,1.109375 -0.46875,0 -0.71875,0 -0.71875,0.453125 C 1.140625,0 1.28125,0 1.78125,0 H 12.890625 C 13.4375,0 13.453125,-0.03125 13.625,-0.46875 L 15.53125,-5.75 c 0.0625,-0.125 0.109375,-0.265625 0.109375,-0.34375 0,-0.15625 -0.125,-0.25 -0.25,-0.25 -0.03125,0 -0.15625,0 -0.203125,0.09375 -0.04687,0.03125 -0.04687,0.078125 -0.25,0.546875 -0.78125,2.1875 -1.90625,4.984375 -6.09375,4.984375 h -2.375 c -0.34375,0 -0.390625,0 -0.546875,-0.03125 C 5.65625,-0.765625 5.625,-0.8125 5.625,-1.015625 5.625,-1.1875 5.671875,-1.34375 5.71875,-1.5625 Z m 0,0"
             id="path17" />
        </g>
      </g>
      <g
         fill="#000000"
         fill-opacity="1"
         id="g6"
         transform="matrix(0.352778,0,0,0.352778,-1.10547,-0.604661)">
        <g
           id="use10"
           transform="translate(18.506001,25.802)">
          <path
             d="M 3.546875,-5.046875 C 3.578125,-5.140625 4.015625,-6.015625 4.65625,-6.5625 5.09375,-6.96875 5.6875,-7.25 6.359375,-7.25 c 0.6875,0 0.921875,0.515625 0.921875,1.203125 0,0.109375 0,0.453125 -0.203125,1.265625 l -0.4375,1.765625 c -0.125,0.515625 -0.453125,1.796875 -0.5,1.984375 -0.0625,0.25 -0.171875,0.703125 -0.171875,0.765625 0,0.25 0.203125,0.4375 0.453125,0.4375 0.515625,0 0.609375,-0.390625 0.765625,-1.015625 L 8.21875,-4.953125 C 8.25,-5.09375 9.140625,-7.25 11.03125,-7.25 c 0.6875,0 0.9375,0.515625 0.9375,1.203125 0,0.96875 -0.671875,2.84375 -1.046875,3.875 -0.15625,0.421875 -0.25,0.640625 -0.25,0.953125 0,0.765625 0.53125,1.390625 1.359375,1.390625 1.609375,0 2.203125,-2.53125 2.203125,-2.640625 0,-0.078125 -0.0625,-0.15625 -0.171875,-0.15625 -0.15625,0 -0.171875,0.0625 -0.25,0.359375 -0.40625,1.375 -1.03125,2.09375 -1.71875,2.09375 -0.171875,0 -0.453125,-0.015625 -0.453125,-0.5625 0,-0.453125 0.203125,-1 0.28125,-1.1875 C 12.21875,-2.75 13,-4.78125 13,-5.78125 13,-6.8125 12.390625,-7.59375 11.09375,-7.59375 9.9375,-7.59375 9,-6.9375 8.3125,-5.921875 8.265625,-6.859375 7.703125,-7.59375 6.40625,-7.59375 4.875,-7.59375 4.0625,-6.515625 3.75,-6.078125 3.703125,-7.0625 3,-7.59375 2.234375,-7.59375 c -0.5,0 -0.890625,0.234375 -1.21875,0.890625 -0.3125,0.625 -0.546875,1.671875 -0.546875,1.75 0,0.0625 0.0625,0.15625 0.1875,0.15625 0.140625,0 0.15625,-0.03125 0.25,-0.421875 C 1.171875,-6.234375 1.5,-7.25 2.1875,-7.25 c 0.390625,0 0.53125,0.28125 0.53125,0.796875 0,0.375 -0.171875,1.046875 -0.296875,1.578125 l -0.46875,1.859375 C 1.875,-2.6875 1.6875,-1.90625 1.59375,-1.59375 c -0.109375,0.4375 -0.296875,1.25 -0.296875,1.328125 0,0.25 0.1875,0.4375 0.4375,0.4375 0.21875,0 0.453125,-0.109375 0.59375,-0.359375 0.03125,-0.09375 0.1875,-0.6875 0.265625,-1.03125 l 0.390625,-1.546875 z m 0,0"
             id="path18" />
        </g>
        <g
           id="g4"
           transform="translate(33.250992,25.802)">
          <path
             d="M 5.1875,-2.046875 C 5.09375,-1.75 5.09375,-1.71875 4.859375,-1.390625 c -0.375,0.484375 -1.140625,1.21875 -1.953125,1.21875 -0.703125,0 -1.09375,-0.640625 -1.09375,-1.65625 0,-0.9375 0.53125,-2.875 0.859375,-3.59375 C 3.25,-6.625 4.0625,-7.25 4.734375,-7.25 c 1.140625,0 1.359375,1.40625 1.359375,1.546875 0,0.015625 -0.046875,0.25 -0.0625,0.28125 z m 1.09375,-4.40625 C 6.09375,-6.90625 5.625,-7.59375 4.734375,-7.59375 c -1.9375,0 -4.046875,2.515625 -4.046875,5.0625 0,1.703125 1,2.703125 2.171875,2.703125 0.953125,0 1.75,-0.734375 2.234375,-1.3125 0.171875,1.015625 0.984375,1.3125 1.5,1.3125 0.515625,0 0.9375,-0.3125 1.234375,-0.921875 C 8.109375,-1.34375 8.34375,-2.390625 8.34375,-2.46875 8.34375,-2.546875 8.28125,-2.625 8.171875,-2.625 8.03125,-2.625 8,-2.53125 7.9375,-2.265625 7.671875,-1.25 7.359375,-0.171875 6.640625,-0.171875 c -0.5,0 -0.53125,-0.453125 -0.53125,-0.796875 0,-0.390625 0.0625,-0.578125 0.203125,-1.25 0.125,-0.4375 0.21875,-0.8125 0.34375,-1.3125 0.640625,-2.578125 0.796875,-3.203125 0.796875,-3.296875 0,-0.25 -0.1875,-0.4375 -0.4375,-0.4375 -0.5625,0 -0.703125,0.609375 -0.734375,0.8125 z m 0,0"
             id="path19" />
        </g>
        <g
           id="g5"
           transform="translate(42.099705,25.802)">
          <path
             d="m 8.15625,-7.03125 c -0.546875,0.109375 -0.75,0.515625 -0.75,0.84375 0,0.421875 0.328125,0.5625 0.5625,0.5625 0.515625,0 0.875,-0.453125 0.875,-0.921875 0,-0.71875 -0.8125,-1.046875 -1.546875,-1.046875 -1.046875,0 -1.625,1.03125 -1.78125,1.359375 -0.40625,-1.296875 -1.46875,-1.359375 -1.78125,-1.359375 -1.75,0 -2.6875,2.25 -2.6875,2.640625 0,0.0625 0.078125,0.15625 0.1875,0.15625 0.140625,0 0.171875,-0.109375 0.21875,-0.171875 C 2.03125,-6.890625 3.1875,-7.25 3.6875,-7.25 c 0.765625,0 0.921875,0.71875 0.921875,1.140625 0,0.375 -0.09375,0.765625 -0.296875,1.59375 L 3.71875,-2.15625 c -0.25,1.03125 -0.75,1.984375 -1.671875,1.984375 -0.078125,0 -0.515625,0 -0.875,-0.21875 0.625,-0.125 0.75,-0.640625 0.75,-0.84375 0,-0.34375 -0.25,-0.5625 -0.578125,-0.5625 -0.40625,0 -0.859375,0.375 -0.859375,0.921875 0,0.71875 0.8125,1.046875 1.546875,1.046875 0.828125,0 1.40625,-0.65625 1.78125,-1.359375 0.265625,1.015625 1.125,1.359375 1.765625,1.359375 1.75,0 2.6875,-2.25 2.6875,-2.640625 0,-0.078125 -0.0625,-0.15625 -0.171875,-0.15625 -0.15625,0 -0.171875,0.09375 -0.21875,0.234375 -0.46875,1.515625 -1.46875,2.21875 -2.25,2.21875 -0.59375,0 -0.921875,-0.453125 -0.921875,-1.15625 0,-0.375 0.0625,-0.65625 0.34375,-1.78125 l 0.59375,-2.34375 C 5.90625,-6.484375 6.484375,-7.25 7.28125,-7.25 c 0.03125,0 0.515625,0 0.875,0.21875 z m 0,0"
             id="path20" />
        </g>
      </g>
      <g
         fill="#000000"
         fill-opacity="1"
         id="g13"
         transform="matrix(0.352778,0,0,0.352778,-1.10547,-0.604661)">
        <g
           id="g7"
           transform="translate(59.061001,22.084)">
          <path
             d="m 17.890625,-11.203125 c 0,-0.515625 -0.171875,-0.734375 -0.34375,-0.734375 -0.09375,0 -0.328125,0.09375 -0.34375,0.65625 -0.109375,1.71875 -1.84375,2.734375 -3.453125,2.734375 -1.4375,0 -2.671875,-0.765625 -3.96875,-1.640625 -1.328125,-0.890625 -2.671875,-1.78125 -4.28125,-1.78125 -2.296875,0 -4.140625,1.765625 -4.140625,4.03125 0,0.546875 0.203125,0.75 0.34375,0.75 0.25,0 0.359375,-0.46875 0.359375,-0.5625 0.125,-2.09375 2.15625,-2.828125 3.4375,-2.828125 1.4375,0 2.671875,0.765625 3.96875,1.625 1.328125,0.90625 2.671875,1.796875 4.28125,1.796875 2.3125,0 4.140625,-1.765625 4.140625,-4.046875 z m 0,5.796875 c 0,-0.71875 -0.296875,-0.765625 -0.34375,-0.765625 -0.09375,0 -0.328125,0.125 -0.34375,0.671875 -0.109375,1.703125 -1.84375,2.71875 -3.453125,2.71875 -1.4375,0 -2.671875,-0.765625 -3.96875,-1.625 C 8.453125,-5.296875 7.109375,-6.1875 5.5,-6.1875 c -2.296875,0 -4.140625,1.75 -4.140625,4.03125 0,0.546875 0.203125,0.75 0.34375,0.75 0.25,0 0.359375,-0.484375 0.359375,-0.578125 C 2.1875,-4.0625 4.21875,-4.8125 5.5,-4.8125 c 1.4375,0 2.671875,0.765625 3.96875,1.640625 1.328125,0.890625 2.671875,1.78125 4.28125,1.78125 2.359375,0 4.140625,-1.828125 4.140625,-4.015625 z m 0,0"
             id="path6" />
        </g>
      </g>
      <g
         fill="#000000"
         fill-opacity="1"
         id="g11"
         transform="matrix(0.352778,0,0,0.352778,-1.10547,-0.604661)">
        <g
           id="g8"
           transform="translate(85.224998,22.084)">
          <path
             d="m 6.59375,-15.828125 c 0,-0.53125 -0.03125,-0.546875 -0.375,-0.546875 -0.96875,1.15625 -2.421875,1.53125 -3.8125,1.578125 -0.078125,0 -0.203125,0 -0.21875,0.04687 -0.03125,0.0625 -0.03125,0.109375 -0.03125,0.625 0.765625,0 2.0625,-0.15625 3.046875,-0.75 v 13.0625 c 0,0.875 -0.046875,1.171875 -2.1875,1.171875 H 2.28125 V 0 c 1.1875,-0.03125 2.421875,-0.046875 3.609375,-0.046875 1.203125,0 2.4375,0.015625 3.625,0.046875 v -0.640625 h -0.75 c -2.125,0 -2.171875,-0.28125 -2.171875,-1.171875 z m 0,0"
             id="path7" />
        </g>
        <g
           id="g9"
           transform="translate(96.592361,22.084)">
          <path
             d="m 10.40625,-7.953125 c 0,-1.515625 -0.01563,-4.09375 -1.0625,-6.078125 -0.921875,-1.734375 -2.375,-2.34375 -3.671875,-2.34375 -1.1875,0 -2.703125,0.546875 -3.640625,2.328125 -0.984375,1.859375 -1.09375,4.15625 -1.09375,6.09375 0,1.40625 0.03125,3.5625 0.796875,5.453125 1.0625,2.546875 2.96875,2.890625 3.9375,2.890625 1.140625,0 2.875,-0.46875 3.890625,-2.8125 0.75,-1.71875 0.84375,-3.71875 0.84375,-5.53125 z M 5.671875,0 C 4.09375,0 3.140625,-1.359375 2.796875,-3.25 2.53125,-4.703125 2.53125,-6.84375 2.53125,-8.234375 c 0,-1.90625 0,-3.484375 0.3125,-5 0.484375,-2.109375 1.859375,-2.75 2.828125,-2.75 1.015625,0 2.328125,0.671875 2.796875,2.703125 0.328125,1.40625 0.359375,3.078125 0.359375,5.046875 0,1.625 0,3.59375 -0.296875,5.0625 C 8,-0.46875 6.546875,0 5.671875,0 Z m 0,0"
             id="path8" />
        </g>
      </g>
      <g
         fill="#000000"
         fill-opacity="1"
         id="g19"
         transform="matrix(0.352778,0,0,0.352778,-1.10547,-0.604661)">
        <g
           id="g16"
           transform="translate(107.961,13.089)">
          <path
             d="m 1.828125,-5.9375 c 0,-4.125 1.921875,-5.046875 3.046875,-5.046875 0.359375,0 1.234375,0.0625 1.578125,0.734375 -0.265625,0 -0.78125,0 -0.78125,0.609375 0,0.46875 0.375,0.625 0.609375,0.625 0.15625,0 0.625,-0.078125 0.625,-0.65625 0,-1.09375 -0.859375,-1.703125 -2.046875,-1.703125 -2.046875,0 -4.203125,2.125 -4.203125,5.9375 0,4.6875 1.9375,5.71875 3.328125,5.71875 1.65625,0 3.25,-1.5 3.25,-3.8125 0,-2.15625 -1.390625,-3.71875 -3.15625,-3.71875 -1.046875,0 -1.828125,0.6875 -2.25,1.890625 z m 2.15625,5.796875 c -2.125,0 -2.125,-3.171875 -2.125,-3.796875 0,-1.25 0.578125,-3.03125 2.1875,-3.03125 0.296875,0 1.140625,0 1.703125,1.1875 0.3125,0.671875 0.3125,1.375 0.3125,2.234375 0,0.921875 0,1.625 -0.359375,2.3125 -0.375,0.703125 -0.9375,1.09375 -1.71875,1.09375 z m 0,0"
             id="path11" />
        </g>
      </g>
      <g
         fill="#000000"
         fill-opacity="1"
         id="g33"
         transform="matrix(0.352778,0,0,0.352778,-1.10547,-0.604661)">
        <g
           id="g32"
           transform="translate(123.895,22.084)">
          <path
             d="m 1.0625,-10.6875 v 0.328125 h 0.375 c 0.640625,0 1.171875,0.15625 1.171875,0.984375 v 6.921875 c 0,1.359375 -0.453125,2.03125 -1.546875,2.078125 v 0.34375 H 4.53125 V -0.375 C 3.125,-0.375 3,-1.5625 3,-2.453125 l 0.015625,-7.703125 c 0.203125,0.78125 0.625,1.6875 0.96875,2.46875 0.921875,2.390625 1.84375,4.78125 2.828125,7.140625 0.078125,0.171875 0.125,0.515625 0.375,0.515625 h 0.03125 c 0.296875,-0.015625 0.765625,-1.609375 1.078125,-2.390625 0.890625,-2.234375 1.796875,-4.484375 2.65625,-6.71875 0.15625,-0.34375 0.328125,-0.71875 0.421875,-1.09375 l 0.03125,8.890625 c 0,0.84375 -0.53125,0.96875 -1.171875,0.96875 h -0.375 v 0.34375 H 14 V -0.375 h -0.375 c -0.640625,0 -1.15625,-0.125 -1.15625,-0.96875 v -8.046875 c 0,-0.84375 0.515625,-0.96875 1.15625,-0.96875 H 14 V -10.6875 H 11.515625 L 11.25,-10.625 10.921875,-9.9375 7.5625,-1.390625 3.984375,-10.40625 3.84375,-10.625 3.5625,-10.6875 Z m 0,0"
             id="path32" />
        </g>
      </g>
    </g>
    <path
       style="fill:#000000;stroke:#000000;stroke-width:0.531;stroke-opacity:0.991236;marker-end:url(#ArrowWide)"
       d="m 25.135416,70.114585 h -3.96875"
       id="path34" />
    <path
       style="fill:#000000;stroke:#000000;stroke-width:0.531;stroke-opacity:0.991236;marker-end:url(#ArrowWide-8)"
       d="m 47.624998,70.114586 h 3.96875"
       id="path34-2" />
    <path
       style="fill:none;stroke:#000000;stroke-width:0.531;stroke-opacity:0.991236"
       d="m 32.269686,55.562502 c -0.919395,-0.0094 -1.944346,-0.06344 -2.843506,0.161351 -0.86151,0.215376 -1.812615,1.073563 -2.213962,1.839769 -0.461883,0.881775 -0.732718,1.852616 -1.169348,2.744068 -0.05077,0.103651 -0.21346,0.455949 -0.280643,0.576877 -0.281512,0.506722 -0.754367,1.006345 -0.686017,1.621493 0.06214,0.559274 0.972334,1.264261 1.387624,1.512356 0.471704,0.281797 0.812831,0.371107 1.325261,0.561287 0.3855,0.143073 0.760571,0.316193 1.153755,0.436557 0.681572,0.208645 1.683469,0.266311 2.401057,0.155914 0.373086,-0.0574 0.735663,-0.13801 1.09139,-0.265055 0.337841,-0.120657 0.632714,-0.308562 0.951068,-0.467738 0.977691,-0.488847 1.954448,-1.076904 3.040304,-1.294077 1.196366,-0.239273 2.437865,-0.140322 3.64836,-0.140322 0.626687,0 1.233509,0.03799 1.83977,-0.140321 0.484931,-0.142627 0.966901,-0.505429 1.356442,-0.810747 1.164905,-0.913038 1.56088,-1.629987 1.964502,-3.071485 0.192159,-0.686279 0.404855,-1.463788 0.265052,-2.182778 -0.06887,-0.354203 -0.251055,-0.693192 -0.374192,-1.029025 -0.146019,-0.39824 -0.245923,-0.763492 -0.530101,-1.091391 -0.489265,-0.564536 -2.313877,-1.073835 -3.055895,-1.231712 -0.759079,-0.161507 -1.504545,-0.192492 -2.276324,-0.09355 -0.245401,0.03146 -0.490117,0.113088 -0.732793,0.155911 -0.153093,0.02702 -0.314693,0.01013 -0.467738,0.01558 -0.182325,0.0065 -0.400619,0.04532 -0.576879,0.07796 -0.533578,0.09881 -1.061686,0.343609 -1.559126,0.545695 -0.184108,0.07479 -0.396201,0.131866 -0.576879,0.218279 -0.264298,0.126402 -0.509046,0.307499 -0.779563,0.420963 -0.200893,0.08426 -0.427898,0.126126 -0.635106,0.202019 -0.286795,0.105043 -0.558896,0.277757 -0.827082,0.399812 -0.06444,0.02932 -0.186854,0.07731 -0.260866,0.09204 -0.05603,0.01114 -0.154636,-0.02344 -0.208849,0 -0.227074,0.09819 -0.0249,0.09219 -0.369716,0.08026 z"
       id="path36" />
    <g
       inkscape:label=""
       transform="matrix(0.731521,0,0,0.731521,37.598452,55.833335)"
       id="g37">
      <g
         fill="#000000"
         fill-opacity="1"
         id="g2"
         transform="matrix(0.352778,0,0,0.352778,-1.17713,-0.708422)">
        <g
           id="use1"
           transform="translate(1.993,18.93)">
          <path
             d="m 15.34375,-14.171875 c 0.84375,-1.34375 1.609375,-1.9375 2.875,-2.03125 0.25,-0.03125 0.4375,-0.03125 0.4375,-0.46875 0,-0.109375 -0.04687,-0.25 -0.265625,-0.25 -0.453125,0 -1.515625,0.04687 -1.953125,0.04687 -0.71875,0 -1.46875,-0.04687 -2.15625,-0.04687 -0.203125,0 -0.453125,0 -0.453125,0.46875 0,0.21875 0.21875,0.25 0.328125,0.25 0.90625,0.07813 1.015625,0.515625 1.015625,0.8125 0,0.375 -0.359375,0.9375 -0.375,0.96875 L 7.015625,-2.078125 5.28125,-15.4375 c 0,-0.71875 1.28125,-0.765625 1.5625,-0.765625 0.375,0 0.59375,0 0.59375,-0.46875 0,-0.25 -0.28125,-0.25 -0.34375,-0.25 -0.421875,0 -0.921875,0.04687 -1.34375,0.04687 H 4.359375 c -1.8125,0 -2.546875,-0.04687 -2.578125,-0.04687 -0.140625,0 -0.4375,0 -0.4375,0.4375 0,0.28125 0.171875,0.28125 0.5625,0.28125 1.265625,0 1.34375,0.21875 1.421875,0.84375 l 1.96875,15.28125 C 5.375,0.453125 5.375,0.515625 5.71875,0.515625 c 0.296875,0 0.421875,-0.0625 0.671875,-0.46875 z m 0,0"
             id="path37" />
        </g>
      </g>
    </g>
    <g
       inkscape:label=""
       transform="matrix(0.72631445,0,0,0.72631445,30.098568,48.016831)"
       id="g39">
      <g
         fill="#000000"
         fill-opacity="1"
         id="g38"
         transform="matrix(0.352778,0,0,0.352778,-1.28737,-0.583627)">
        <g
           id="use2"
           transform="translate(1.993,18.92)">
          <path
             d="m 1.65625,-16.953125 v 0.59375 H 2.125 c 0.703125,0 1.3125,0.07813 1.3125,0.953125 0,0.171875 -0.015625,0.359375 -0.015625,0.515625 V -2.40625 c 0,0.796875 -0.125,1.78125 -1.765625,1.78125 v 0.59375 H 5.578125 V -0.625 C 5.0625,-0.625 4.65625,-0.71875 4.1875,-1.0625 3.84375,-1.4375 3.8125,-1.953125 3.8125,-2.421875 l 0.03125,-13.9375 c 0.140625,0.546875 0.375,1.0625 0.5625,1.59375 l 0.890625,2.53125 c 1.375,3.765625 2.65625,7.578125 4.09375,11.3125 0.09375,0.296875 0.25,0.890625 0.5,0.890625 0.3125,0 1.109375,-2.578125 1.5625,-3.828125 1.015625,-2.8125 2,-5.609375 3.015625,-8.40625 l 0.96875,-2.703125 c 0.171875,-0.46875 0.390625,-0.96875 0.515625,-1.46875 l 0.03125,14.921875 c 0,0.796875 -0.515625,0.890625 -1.765625,0.890625 v 0.59375 H 19.0625 V -0.625 h -0.53125 c -0.65625,0 -1.265625,-0.09375 -1.265625,-1.015625 0,-0.1875 0.03125,-0.359375 0.03125,-0.5625 v -13.15625 c 0,-0.953125 0.671875,-1 1.515625,-1 h 0.25 v -0.59375 H 16.125 l -0.296875,0.04687 -5.4375,15.046875 h -0.0625 L 4.875,-16.90625 4.578125,-16.953125 Z m 0,0"
             id="path4" />
        </g>
        <g
           id="use3"
           transform="translate(22.739803,18.92)">
          <path
             d="m 13.671875,-14.671875 c -1.15625,-1.515625 -2.640625,-2.59375 -4.65625,-2.59375 -4.609375,0 -7.734375,4.421875 -7.734375,8.765625 0,4.40625 3.078125,8.796875 7.8125,8.796875 H 9.421875 C 12.640625,0 15.0625,-2.71875 15.0625,-5.875 v -0.140625 c -0.01563,-0.078125 -0.125,-0.125 -0.1875,-0.125 -0.15625,0 -0.1875,0.125 -0.1875,0.25 L 14.625,-5.15625 c -0.34375,2.40625 -2.328125,4.890625 -5.203125,4.890625 -1.890625,0 -3.765625,-1.046875 -4.9375,-2.53125 C 3.25,-4.40625 2.84375,-6.46875 2.84375,-8.46875 c 0,-1.59375 0.25,-3.296875 1.015625,-4.734375 1.140625,-2.09375 3.203125,-3.46875 5.609375,-3.46875 2.890625,0 4.75,2.96875 5.078125,5.375 0.04687,0.265625 -0.03125,0.796875 0.296875,0.796875 0.203125,0 0.21875,-0.109375 0.21875,-0.296875 v -6.171875 c 0,-0.109375 0,-0.25 -0.09375,-0.28125 h -0.04687 c -0.171875,0 -0.25,0.375 -0.34375,0.578125 z m 0,0"
             id="path5" />
        </g>
        <g
           id="use4"
           transform="translate(39.09433,18.92)">
          <path
             d="m 13.671875,-14.671875 c -1.15625,-1.515625 -2.640625,-2.59375 -4.65625,-2.59375 -4.609375,0 -7.734375,4.421875 -7.734375,8.765625 0,4.40625 3.078125,8.796875 7.8125,8.796875 H 9.421875 C 12.640625,0 15.0625,-2.71875 15.0625,-5.875 v -0.140625 c -0.01563,-0.078125 -0.125,-0.125 -0.1875,-0.125 -0.15625,0 -0.1875,0.125 -0.1875,0.25 L 14.625,-5.15625 c -0.34375,2.40625 -2.328125,4.890625 -5.203125,4.890625 -1.890625,0 -3.765625,-1.046875 -4.9375,-2.53125 C 3.25,-4.40625 2.84375,-6.46875 2.84375,-8.46875 c 0,-1.59375 0.25,-3.296875 1.015625,-4.734375 1.140625,-2.09375 3.203125,-3.46875 5.609375,-3.46875 2.890625,0 4.75,2.96875 5.078125,5.375 0.04687,0.265625 -0.03125,0.796875 0.296875,0.796875 0.203125,0 0.21875,-0.109375 0.21875,-0.296875 v -6.171875 c 0,-0.109375 0,-0.25 -0.09375,-0.28125 h -0.04687 c -0.171875,0 -0.25,0.375 -0.34375,0.578125 z m 0,0"
             id="path38" />
        </g>
      </g>
    </g>
    <g
       inkscape:label=""
       transform="matrix(0.75381112,0,0,0.75381112,57.876721,61.822507)"
       id="g42">
      <g
         fill="#000000"
         fill-opacity="1"
         id="g41"
         transform="matrix(0.352778,0,0,0.352778,-1.10547,-0.708422)">
        <g
           id="g40"
           transform="translate(1.993,18.93)">
          <path
             d="m 9.09375,-15.015625 c 0.21875,-0.9375 0.296875,-1.1875 2.484375,-1.1875 0.65625,0 0.84375,0 0.84375,-0.46875 0,-0.25 -0.28125,-0.25 -0.375,-0.25 -0.5,0 -1.0625,0.04687 -1.5625,0.04687 H 7.15625 c -0.46875,0 -1.015625,-0.04687 -1.484375,-0.04687 -0.1875,0 -0.46875,0 -0.46875,0.46875 0,0.25 0.21875,0.25 0.59375,0.25 1.515625,0 1.515625,0.1875 1.515625,0.46875 0,0.04687 0,0.203125 -0.09375,0.5625 l -3.359375,13.34375 c -0.21875,0.859375 -0.265625,1.109375 -2,1.109375 -0.46875,0 -0.71875,0 -0.71875,0.453125 C 1.140625,0 1.28125,0 1.78125,0 H 12.890625 C 13.4375,0 13.453125,-0.03125 13.625,-0.46875 L 15.53125,-5.75 c 0.0625,-0.125 0.109375,-0.265625 0.109375,-0.34375 0,-0.15625 -0.125,-0.25 -0.25,-0.25 -0.03125,0 -0.15625,0 -0.203125,0.09375 -0.04687,0.03125 -0.04687,0.078125 -0.25,0.546875 -0.78125,2.1875 -1.90625,4.984375 -6.09375,4.984375 h -2.375 c -0.34375,0 -0.390625,0 -0.546875,-0.03125 C 5.65625,-0.765625 5.625,-0.8125 5.625,-1.015625 5.625,-1.1875 5.671875,-1.34375 5.71875,-1.5625 Z m 0,0"
             id="path39" />
        </g>
      </g>
    </g>
  </g>
</svg>
