<?xml version="1.0" encoding="UTF-8" standalone="no"?>
<!-- Created with Inkscape (http://www.inkscape.org/) -->

<svg
   width="132.36943mm"
   height="79.093018mm"
   viewBox="0 0 132.36943 79.093018"
   version="1.1"
   id="svg1"
   inkscape:version="1.3.2 (091e20ef0f, 2023-11-25, custom)"
   sodipodi:docname="curvedcoord.svg"
   xmlns:inkscape="http://www.inkscape.org/namespaces/inkscape"
   xmlns:sodipodi="http://sodipodi.sourceforge.net/DTD/sodipodi-0.dtd"
   xmlns:xlink="http://www.w3.org/1999/xlink"
   xmlns="http://www.w3.org/2000/svg"
   xmlns:svg="http://www.w3.org/2000/svg">
  <sodipodi:namedview
     id="namedview1"
     pagecolor="#ffffff"
     bordercolor="#000000"
     borderopacity="0.25"
     inkscape:showpageshadow="2"
     inkscape:pageopacity="0.0"
     inkscape:pagecheckerboard="0"
     inkscape:deskcolor="#d1d1d1"
     inkscape:document-units="mm"
     showgrid="true"
     inkscape:zoom="1.5596954"
     inkscape:cx="214.78553"
     inkscape:cy="117.97175"
     inkscape:window-width="1920"
     inkscape:window-height="1011"
     inkscape:window-x="0"
     inkscape:window-y="32"
     inkscape:window-maximized="1"
     inkscape:current-layer="layer1">
    <inkscape:grid
       id="grid1"
       units="px"
       originx="-23.377038"
       originy="-116.68125"
       spacingx="0.26458333"
       spacingy="0.26458334"
       empcolor="#0099e5"
       empopacity="0.30196078"
       color="#0099e5"
       opacity="0.14901961"
       empspacing="5"
       dotted="false"
       gridanglex="30"
       gridanglez="30"
       visible="true" />
  </sodipodi:namedview>
  <defs
     id="defs1">
    <marker
       style="overflow:visible"
       id="ArrowWide"
       refX="0"
       refY="0"
       orient="auto-start-reverse"
       inkscape:stockid="Wide arrow"
       markerWidth="1"
       markerHeight="1"
       viewBox="0 0 1 1"
       inkscape:isstock="true"
       inkscape:collect="always"
       preserveAspectRatio="xMidYMid">
      <path
         style="fill:none;stroke:context-stroke;stroke-width:1;stroke-linecap:butt"
         d="M 3,-3 0,0 3,3"
         transform="rotate(180,0.125,0)"
         sodipodi:nodetypes="ccc"
         id="path5" />
    </marker>
  </defs>
  <g
     inkscape:label="Layer 1"
     inkscape:groupmode="layer"
     id="layer1"
     transform="translate(-23.377038,-116.68125)">
    <path
       style="fill:none;stroke:#000000;stroke-width:0.531;stroke-opacity:0.991236;marker-end:url(#ArrowWide)"
       d="M 31.75,161.39584 V 121.70833"
       id="path1" />
    <path
       style="fill:none;stroke:#000000;stroke-width:0.531;stroke-opacity:0.991236;marker-end:url(#ArrowWide)"
       d="M 31.75,161.39584 63.499997,143.06497"
       id="path2" />
    <path
       style="fill:none;stroke:#000000;stroke-width:0.531;stroke-opacity:0.991236;marker-end:url(#ArrowWide)"
       d="M 31.75,161.39584 H 71.437496"
       id="path3" />
    <path
       style="fill:none;stroke:#000000;stroke-width:0.531;stroke-opacity:0.991236;marker-end:url(#ArrowWide)"
       d="m 31.75,161.39584 2.645833,18.52083"
       id="path4" />
    <path
       style="fill:none;stroke:#000000;stroke-width:0.531;stroke-opacity:0.991236"
       d="m 97.895829,140.22917 c -1.440677,-0.25908 -2.310309,0.46108 -3.544956,0.90203 -2.603338,0.92976 -4.693981,1.96094 -5.351923,4.92168 -0.362286,1.63029 0.312621,3.48246 -0.08812,5.08238 -0.13997,0.55881 -0.432753,1.12402 -0.612839,1.66428 -0.837684,2.51303 -4.685437,2.71839 -5.88383,5.57934 -0.430626,1.02804 -0.01087,3.28301 0.694996,4.16859 0.2104,0.26396 0.565468,0.53086 0.745144,0.82717 0.433308,0.7146 0.664067,1.60667 0.957604,2.41697 0.317846,0.87741 -0.259527,1.81895 -0.438285,2.63276 -0.10845,0.49372 -0.112665,3.37748 0.08681,3.63488 1.661961,2.14454 -0.42082,-0.84582 1.466352,1.72278 0.404858,0.55104 0.748218,1.15226 1.316884,1.57876 2.560918,1.92069 8.746781,1.32708 11.52217,0.25962 0.873718,-0.33605 1.800984,-1.0047 2.555604,-1.4981 2.43602,-1.59278 4.82324,-4.23727 7.87198,-4.56392 1.49966,-0.16068 3.16898,0 4.67058,0 1.26044,0 2.62144,-0.11435 3.87927,0 0.81424,0.074 1.65187,0.48365 2.4367,0.69832 2.33825,0.63957 4.87936,1.0707 7.24597,1.4031 1.96986,0.27668 4.17976,0 6.16871,0 4.34196,0 10.62374,0.0587 12.39252,-4.81226 0.31293,-0.86177 0.0881,-2.09396 0.0881,-2.98845 0,-1.16021 0.20244,-2.30077 -0.17625,-3.43684 -0.76458,-2.29374 -3.28569,-4.72718 -5.45814,-5.81344 -0.27401,-0.35589 -0.71924,-0.19873 -1.0575,-0.35248 -0.55878,-0.25398 -3.00649,-1.99616 -3.16201,-2.54817 -0.46156,-1.63836 0.32957,-3.53218 -0.0837,-5.15946 -0.26406,-1.03975 -0.64444,-2.0671 -0.87652,-3.13467 -0.37273,-1.71452 -0.48492,-3.94112 -1.57762,-5.39806 -0.91537,-1.22048 -2.89174,-1.78447 -4.30113,-2.01988 -1.97875,-0.33052 -5.39999,-0.34336 -7.24585,0.34626 -2.97119,1.11005 -5.04034,3.88843 -8.08658,4.83728 -0.35523,0.11065 -7.10905,0.17888 -7.73154,-0.0821 -0.47287,-0.19824 -0.70661,-0.34973 -1.23669,-0.4103 -2.44296,-0.27912 -4.81937,0.36566 -7.185927,-0.45808 z"
       id="path6" />
    <circle
       style="fill:none;stroke:#000000;stroke-width:0.531;stroke-opacity:0.991236"
       id="path7"
       cx="123.03125"
       cy="153.45833"
       r="9.260417" />
    <circle
       style="fill:#000000;fill-opacity:1;stroke:#000000;stroke-width:0.531;stroke-opacity:0.991236"
       id="path8"
       cx="123.03125"
       cy="153.45833"
       r="1.3229166" />
    <circle
       style="fill:#000000;fill-opacity:1;stroke:#000000;stroke-width:0.531;stroke-opacity:0.991236"
       id="path9"
       cx="126.33854"
       cy="158.08855"
       r="0.66145831" />
    <path
       style="fill:none;fill-opacity:1;stroke:#000000;stroke-width:0.531;stroke-opacity:0.991236"
       d="m 142.87499,177.27084 c -1.51781,0.51193 -3.20024,-0.13389 -4.7643,0.12888 -1.76195,0.29601 -2.77217,1.08315 -4.27908,1.88091 -0.95589,0.50605 -1.98687,0.94613 -2.96245,1.41069 -0.6512,0.3101 -1.39334,0.51025 -2.01324,0.8897 -0.74112,0.45364 -1.45558,1.05146 -2.30413,1.31663 -2.17352,0.67923 -3.72857,-0.37886 -5.58694,1.4107 -1.53829,1.48132 -2.6409,4.99268 -2.30413,7.18168 0.23151,1.5048 2.95997,3.60635 4.42016,3.94993 0.48601,0.11435 1.00954,0.047 1.50473,0.047 2.15228,0 3.6778,0.01 5.7368,-0.79939 1.46764,-0.57658 2.70291,-1.65601 4.13801,-2.30412 1.2504,-0.5647 2.55018,-0.82516 3.90291,-0.98749 1.98344,-0.23801 4.24461,-0.0814 6.20702,0.23512 0.21047,0.034 0.40253,0.1449 0.6113,0.18809 0.9577,0.19815 2.08477,0.22681 3.05649,0.14107 0.76365,-0.0674 1.4363,-0.26583 2.16305,-0.47023 1.15122,-0.32378 2.22311,-0.59861 3.19756,-1.31664 1.42132,-1.04729 1.88092,-2.60003 1.88092,-4.32611 0,-0.60537 0.0208,-1.24042 -0.14107,-1.83389 -0.18713,-0.68613 -0.54206,-1.36029 -0.79939,-2.02198 -0.51344,-1.32027 -0.8689,-2.95075 -2.30112,-3.61178 -1.16463,-0.53752 -2.50436,-0.99916 -3.75048,-1.31284 -0.29597,-0.0745 -4.45341,-0.11294 -4.89358,0 -0.24133,0.0619 -0.47936,0.13603 -0.71904,0.20405 z"
       id="path10" />
    <path
       style="fill:none;fill-opacity:1;stroke:#000000;stroke-width:0.531;stroke-opacity:0.991236;marker-end:url(#ArrowWide)"
       d="m 97.895829,165.36459 c 0,0 17.197921,0 29.104171,22.48958"
       id="path11" />
    <g
       inkscape:label=""
       transform="translate(23.377038,156.14827)"
       id="g12">
      <g
         fill="#000000"
         fill-opacity="1"
         id="g2"
         transform="matrix(0.352778,0,0,0.352778,-1.12201,-0.521009)">
        <g
           id="use1"
           transform="translate(1.993,18.93)">
          <path
             d="m 17.984375,-10.859375 c 0,-4.078125 -2.671875,-6.59375 -6.140625,-6.59375 -5.296875,0 -10.65625,5.703125 -10.65625,11.4375 0,3.890625 2.578125,6.53125 6.171875,6.53125 5.203125,0 10.625,-5.421875 10.625,-11.375 z m -10.46875,10.8125 c -2.03125,0 -4.1875,-1.484375 -4.1875,-5.359375 0,-2.25 0.8125,-5.9375 2.84375,-8.421875 1.8125,-2.1875 3.890625,-3.078125 5.546875,-3.078125 2.1875,0 4.296875,1.59375 4.296875,5.15625 0,2.203125 -0.953125,5.65625 -2.609375,8.015625 -1.8125,2.515625 -4.0625,3.6875 -5.890625,3.6875 z m 0,0"
             id="path12" />
        </g>
      </g>
    </g>
    <g
       inkscape:label=""
       transform="translate(35.978716,178.51475)"
       id="g15">
      <g
         fill="#000000"
         fill-opacity="1"
         id="g4"
         transform="matrix(0.352778,0,0,0.352778,-1.09599,-0.701366)">
        <g
           id="use3"
           transform="translate(0.991,19.66)">
          <path
             d="m 13.265625,-14.796875 c -0.3125,0.28125 -1.21875,1.140625 -1.21875,1.484375 0,0.25 0.21875,0.46875 0.46875,0.46875 0.21875,0 0.328125,-0.140625 0.5,-0.390625 0.59375,-0.75 1.265625,-1.21875 1.828125,-1.53125 0.25,-0.15625 0.421875,-0.234375 0.421875,-0.5 0,-0.21875 -0.203125,-0.34375 -0.34375,-0.46875 -0.703125,-0.46875 -0.875,-1.140625 -0.9375,-1.4375 -0.07813,-0.203125 -0.15625,-0.5 -0.5,-0.5 -0.15625,0 -0.453125,0.109375 -0.453125,0.46875 0,0.234375 0.15625,0.828125 0.625,1.484375 H 5.328125 c -0.421875,0 -0.84375,0 -0.84375,0.484375 0,0.4375 0.453125,0.4375 0.84375,0.4375 z m 0,0"
             id="path13" />
        </g>
      </g>
      <g
         fill="#000000"
         fill-opacity="1"
         id="g5"
         transform="matrix(0.352778,0,0,0.352778,-1.09599,-0.701366)">
        <g
           id="use4"
           transform="translate(1.9973561,19.66)">
          <path
             d="m 4.4375,-5.75 c 0.671875,0 2.359375,-0.046875 3.546875,-0.5 1.875,-0.71875 2.046875,-2.15625 2.046875,-2.59375 0,-1.09375 -0.9375,-2.078125 -2.578125,-2.078125 -2.59375,0 -6.34375,2.34375 -6.34375,6.765625 0,2.59375 1.5,4.40625 3.75,4.40625 3.375,0 5.5,-2.625 5.5,-2.953125 0,-0.140625 -0.15625,-0.265625 -0.25,-0.265625 -0.07813,0 -0.09375,0.015625 -0.328125,0.25 C 8.203125,-0.625 5.84375,-0.25 4.90625,-0.25 3.5,-0.25 2.75,-1.359375 2.75,-3.203125 2.75,-3.546875 2.75,-4.15625 3.125,-5.75 Z M 3.25,-6.25 c 1.0625,-3.8125 3.421875,-4.1875 4.203125,-4.1875 1.09375,0 1.84375,0.65625 1.84375,1.59375 0,2.59375 -3.96875,2.59375 -5.015625,2.59375 z m 0,0"
             id="path14" />
        </g>
      </g>
      <g
         fill="#000000"
         fill-opacity="1"
         id="g6"
         transform="matrix(0.352778,0,0,0.352778,-1.09599,-0.701366)">
        <g
           id="use5"
           transform="translate(13.241,23.378)">
          <path
             d="m 4.578125,-11 c 0,-0.359375 -0.015625,-0.375 -0.25,-0.375 -0.671875,0.796875 -1.6875,1.0625 -2.65625,1.09375 -0.046875,0 -0.140625,0 -0.15625,0.03125 C 1.5,-10.203125 1.5,-10.171875 1.5,-9.8125 c 0.53125,0 1.421875,-0.109375 2.109375,-0.515625 V -1.25 c 0,0.59375 -0.03125,0.796875 -1.515625,0.796875 H 1.578125 V 0 c 0.828125,-0.015625 1.6875,-0.03125 2.515625,-0.03125 0.828125,0 1.6875,0.015625 2.515625,0.03125 V -0.453125 H 6.09375 c -1.484375,0 -1.515625,-0.1875 -1.515625,-0.796875 z m 0,0"
             id="path15" />
        </g>
      </g>
    </g>
    <g
       inkscape:label=""
       transform="translate(67.972596,163.3474)"
       id="g22">
      <g
         fill="#000000"
         fill-opacity="1"
         id="g17"
         transform="matrix(0.352778,0,0,0.352778,-1.09599,-0.701366)">
        <g
           id="g16"
           transform="translate(0.991,19.66)">
          <path
             d="m 13.265625,-14.796875 c -0.3125,0.28125 -1.21875,1.140625 -1.21875,1.484375 0,0.25 0.21875,0.46875 0.46875,0.46875 0.21875,0 0.328125,-0.140625 0.5,-0.390625 0.59375,-0.75 1.265625,-1.21875 1.828125,-1.53125 0.25,-0.15625 0.421875,-0.234375 0.421875,-0.5 0,-0.21875 -0.203125,-0.34375 -0.34375,-0.46875 -0.703125,-0.46875 -0.875,-1.140625 -0.9375,-1.4375 -0.07813,-0.203125 -0.15625,-0.5 -0.5,-0.5 -0.15625,0 -0.453125,0.109375 -0.453125,0.46875 0,0.234375 0.15625,0.828125 0.625,1.484375 H 5.328125 c -0.421875,0 -0.84375,0 -0.84375,0.484375 0,0.4375 0.453125,0.4375 0.84375,0.4375 z m 0,0"
             id="path16" />
        </g>
      </g>
      <g
         fill="#000000"
         fill-opacity="1"
         id="g19"
         transform="matrix(0.352778,0,0,0.352778,-1.09599,-0.701366)">
        <g
           id="g18"
           transform="translate(1.9973561,19.66)">
          <path
             d="m 4.4375,-5.75 c 0.671875,0 2.359375,-0.046875 3.546875,-0.5 1.875,-0.71875 2.046875,-2.15625 2.046875,-2.59375 0,-1.09375 -0.9375,-2.078125 -2.578125,-2.078125 -2.59375,0 -6.34375,2.34375 -6.34375,6.765625 0,2.59375 1.5,4.40625 3.75,4.40625 3.375,0 5.5,-2.625 5.5,-2.953125 0,-0.140625 -0.15625,-0.265625 -0.25,-0.265625 -0.07813,0 -0.09375,0.015625 -0.328125,0.25 C 8.203125,-0.625 5.84375,-0.25 4.90625,-0.25 3.5,-0.25 2.75,-1.359375 2.75,-3.203125 2.75,-3.546875 2.75,-4.15625 3.125,-5.75 Z M 3.25,-6.25 c 1.0625,-3.8125 3.421875,-4.1875 4.203125,-4.1875 1.09375,0 1.84375,0.65625 1.84375,1.59375 0,2.59375 -3.96875,2.59375 -5.015625,2.59375 z m 0,0"
             id="path17" />
        </g>
      </g>
      <g
         fill="#000000"
         fill-opacity="1"
         id="g21"
         transform="matrix(0.352778,0,0,0.352778,-1.09599,-0.701366)">
        <g
           id="g20"
           transform="translate(13.241,23.378)">
          <path
             d="M 7.1875,-2.671875 H 6.875 c -0.171875,1.21875 -0.3125,1.4375 -0.390625,1.53125 C 6.40625,-1 5.171875,-1 4.921875,-1 H 1.625 c 0.609375,-0.671875 1.8125,-1.890625 3.28125,-3.3125 1.046875,-0.984375 2.28125,-2.15625 2.28125,-3.859375 0,-2.03125 -1.625,-3.203125 -3.4375,-3.203125 -1.890625,0 -3.046875,1.65625 -3.046875,3.21875 0,0.671875 0.5,0.75 0.703125,0.75 0.171875,0 0.6875,-0.09375 0.6875,-0.703125 0,-0.53125 -0.4375,-0.6875 -0.6875,-0.6875 -0.09375,0 -0.203125,0.015625 -0.265625,0.046875 0.328125,-1.453125 1.328125,-2.1875 2.375,-2.1875 1.5,0 2.46875,1.1875 2.46875,2.765625 0,1.484375 -0.875,2.78125 -1.859375,3.90625 l -3.421875,3.875 V 0 h 6.0625 z m 0,0"
             id="path19" />
        </g>
      </g>
    </g>
    <g
       inkscape:label=""
       transform="translate(34.803734,116.68125)"
       id="g29">
      <g
         fill="#000000"
         fill-opacity="1"
         id="g24"
         transform="matrix(0.352778,0,0,0.352778,-1.09599,-0.701366)">
        <g
           id="g23"
           transform="translate(0.991,19.66)">
          <path
             d="m 13.265625,-14.796875 c -0.3125,0.28125 -1.21875,1.140625 -1.21875,1.484375 0,0.25 0.21875,0.46875 0.46875,0.46875 0.21875,0 0.328125,-0.140625 0.5,-0.390625 0.59375,-0.75 1.265625,-1.21875 1.828125,-1.53125 0.25,-0.15625 0.421875,-0.234375 0.421875,-0.5 0,-0.21875 -0.203125,-0.34375 -0.34375,-0.46875 -0.703125,-0.46875 -0.875,-1.140625 -0.9375,-1.4375 -0.07813,-0.203125 -0.15625,-0.5 -0.5,-0.5 -0.15625,0 -0.453125,0.109375 -0.453125,0.46875 0,0.234375 0.15625,0.828125 0.625,1.484375 H 5.328125 c -0.421875,0 -0.84375,0 -0.84375,0.484375 0,0.4375 0.453125,0.4375 0.84375,0.4375 z m 0,0"
             id="path22" />
        </g>
      </g>
      <g
         fill="#000000"
         fill-opacity="1"
         id="g26"
         transform="matrix(0.352778,0,0,0.352778,-1.09599,-0.701366)">
        <g
           id="g25"
           transform="translate(1.9973561,19.66)">
          <path
             d="m 4.4375,-5.75 c 0.671875,0 2.359375,-0.046875 3.546875,-0.5 1.875,-0.71875 2.046875,-2.15625 2.046875,-2.59375 0,-1.09375 -0.9375,-2.078125 -2.578125,-2.078125 -2.59375,0 -6.34375,2.34375 -6.34375,6.765625 0,2.59375 1.5,4.40625 3.75,4.40625 3.375,0 5.5,-2.625 5.5,-2.953125 0,-0.140625 -0.15625,-0.265625 -0.25,-0.265625 -0.07813,0 -0.09375,0.015625 -0.328125,0.25 C 8.203125,-0.625 5.84375,-0.25 4.90625,-0.25 3.5,-0.25 2.75,-1.359375 2.75,-3.203125 2.75,-3.546875 2.75,-4.15625 3.125,-5.75 Z M 3.25,-6.25 c 1.0625,-3.8125 3.421875,-4.1875 4.203125,-4.1875 1.09375,0 1.84375,0.65625 1.84375,1.59375 0,2.59375 -3.96875,2.59375 -5.015625,2.59375 z m 0,0"
             id="path24" />
        </g>
      </g>
      <g
         fill="#000000"
         fill-opacity="1"
         id="g28"
         transform="matrix(0.352778,0,0,0.352778,-1.09599,-0.701366)">
        <g
           id="g27"
           transform="translate(13.241,23.378)">
          <path
             d="m 3.8125,-5.859375 c 1.53125,0 2.203125,1.328125 2.203125,2.859375 0,2.0625 -1.109375,2.859375 -2.109375,2.859375 C 3,-0.140625 1.515625,-0.578125 1.046875,-1.90625 1.140625,-1.875 1.21875,-1.875 1.3125,-1.875 c 0.40625,0 0.71875,-0.28125 0.71875,-0.71875 0,-0.5 -0.375,-0.734375 -0.71875,-0.734375 -0.296875,0 -0.75,0.140625 -0.75,0.78125 0,1.578125 1.5625,2.828125 3.375,2.828125 1.921875,0 3.375,-1.5 3.375,-3.265625 0,-1.671875 -1.375,-2.875 -3,-3.0625 1.296875,-0.265625 2.5625,-1.4375 2.5625,-3.015625 0,-1.34375 -1.359375,-2.3125 -2.921875,-2.3125 -1.5625,0 -2.9375,0.953125 -2.9375,2.328125 0,0.609375 0.453125,0.71875 0.671875,0.71875 0.359375,0 0.671875,-0.234375 0.671875,-0.671875 0,-0.453125 -0.3125,-0.671875 -0.671875,-0.671875 -0.0625,0 -0.15625,0 -0.21875,0.03125 0.5,-1.140625 1.859375,-1.34375 2.453125,-1.34375 0.609375,0 1.75,0.296875 1.75,1.9375 0,0.484375 -0.078125,1.34375 -0.65625,2.109375 C 4.5,-6.265625 3.90625,-6.234375 3.34375,-6.1875 c -0.09375,0 -0.484375,0.046875 -0.546875,0.046875 -0.125,0.015625 -0.203125,0.03125 -0.203125,0.15625 0,0.109375 0.03125,0.125 0.375,0.125 z m 0,0"
             id="path26" />
        </g>
      </g>
    </g>
    <g
       inkscape:label=""
       transform="translate(87.312495,157.42709)"
       id="g32">
      <g
         fill="#000000"
         fill-opacity="1"
         id="g31"
         transform="matrix(0.352778,0,0,0.352778,-1.17713,-0.708422)">
        <g
           id="g30"
           transform="translate(1.993,18.93)">
          <path
             d="m 15.34375,-14.171875 c 0.84375,-1.34375 1.609375,-1.9375 2.875,-2.03125 0.25,-0.03125 0.4375,-0.03125 0.4375,-0.46875 0,-0.109375 -0.04687,-0.25 -0.265625,-0.25 -0.453125,0 -1.515625,0.04687 -1.953125,0.04687 -0.71875,0 -1.46875,-0.04687 -2.15625,-0.04687 -0.203125,0 -0.453125,0 -0.453125,0.46875 0,0.21875 0.21875,0.25 0.328125,0.25 0.90625,0.07813 1.015625,0.515625 1.015625,0.8125 0,0.375 -0.359375,0.9375 -0.375,0.96875 L 7.015625,-2.078125 5.28125,-15.4375 c 0,-0.71875 1.28125,-0.765625 1.5625,-0.765625 0.375,0 0.59375,0 0.59375,-0.46875 0,-0.25 -0.28125,-0.25 -0.34375,-0.25 -0.421875,0 -0.921875,0.04687 -1.34375,0.04687 H 4.359375 c -1.8125,0 -2.546875,-0.04687 -2.578125,-0.04687 -0.140625,0 -0.4375,0 -0.4375,0.4375 0,0.28125 0.171875,0.28125 0.5625,0.28125 1.265625,0 1.34375,0.21875 1.421875,0.84375 l 1.96875,15.28125 C 5.375,0.453125 5.375,0.515625 5.71875,0.515625 c 0.296875,0 0.421875,-0.0625 0.671875,-0.46875 z m 0,0"
             id="path29" />
        </g>
      </g>
    </g>
    <g
       inkscape:label=""
       transform="translate(143.1752,181.23959)"
       id="g35">
      <g
         fill="#000000"
         fill-opacity="1"
         id="g3"
         transform="matrix(0.352778,0,0,0.352778,-1.17713,-0.708422)">
        <g
           id="use2"
           transform="translate(1.993,18.93)">
          <path
             d="m 15.34375,-14.171875 c 0.84375,-1.34375 1.609375,-1.9375 2.875,-2.03125 0.25,-0.03125 0.4375,-0.03125 0.4375,-0.46875 0,-0.109375 -0.04687,-0.25 -0.265625,-0.25 -0.453125,0 -1.515625,0.04687 -1.953125,0.04687 -0.71875,0 -1.46875,-0.04687 -2.15625,-0.04687 -0.203125,0 -0.453125,0 -0.453125,0.46875 0,0.21875 0.21875,0.25 0.328125,0.25 0.90625,0.07813 1.015625,0.515625 1.015625,0.8125 0,0.375 -0.359375,0.9375 -0.375,0.96875 L 7.015625,-2.078125 5.28125,-15.4375 c 0,-0.71875 1.28125,-0.765625 1.5625,-0.765625 0.375,0 0.59375,0 0.59375,-0.46875 0,-0.25 -0.28125,-0.25 -0.34375,-0.25 -0.421875,0 -0.921875,0.04687 -1.34375,0.04687 H 4.359375 c -1.8125,0 -2.546875,-0.04687 -2.578125,-0.04687 -0.140625,0 -0.4375,0 -0.4375,0.4375 0,0.28125 0.171875,0.28125 0.5625,0.28125 1.265625,0 1.34375,0.21875 1.421875,0.84375 l 1.96875,15.28125 C 5.375,0.453125 5.375,0.515625 5.71875,0.515625 c 0.296875,0 0.421875,-0.0625 0.671875,-0.46875 z m 0,0"
             id="path32" />
        </g>
      </g>
      <g
         fill="#000000"
         fill-opacity="1"
         id="g34"
         transform="matrix(0.352778,0,0,0.352778,-1.17713,-0.708422)">
        <g
           id="g33"
           transform="translate(16.142,22.648001)">
          <path
             d="m 8.15625,-7.03125 c -0.546875,0.109375 -0.75,0.515625 -0.75,0.84375 0,0.421875 0.328125,0.5625 0.5625,0.5625 0.515625,0 0.875,-0.453125 0.875,-0.921875 0,-0.71875 -0.8125,-1.046875 -1.546875,-1.046875 -1.046875,0 -1.625,1.03125 -1.78125,1.359375 -0.40625,-1.296875 -1.46875,-1.359375 -1.78125,-1.359375 -1.75,0 -2.6875,2.25 -2.6875,2.640625 0,0.0625 0.078125,0.15625 0.1875,0.15625 0.140625,0 0.171875,-0.109375 0.21875,-0.171875 C 2.03125,-6.890625 3.1875,-7.25 3.6875,-7.25 c 0.765625,0 0.921875,0.71875 0.921875,1.140625 0,0.375 -0.09375,0.765625 -0.296875,1.59375 L 3.71875,-2.15625 c -0.25,1.03125 -0.75,1.984375 -1.671875,1.984375 -0.078125,0 -0.515625,0 -0.875,-0.21875 0.625,-0.125 0.75,-0.640625 0.75,-0.84375 0,-0.34375 -0.25,-0.5625 -0.578125,-0.5625 -0.40625,0 -0.859375,0.375 -0.859375,0.921875 0,0.71875 0.8125,1.046875 1.546875,1.046875 0.828125,0 1.40625,-0.65625 1.78125,-1.359375 0.265625,1.015625 1.125,1.359375 1.765625,1.359375 1.75,0 2.6875,-2.25 2.6875,-2.640625 0,-0.078125 -0.0625,-0.15625 -0.171875,-0.15625 -0.15625,0 -0.171875,0.09375 -0.21875,0.234375 -0.46875,1.515625 -1.46875,2.21875 -2.25,2.21875 -0.59375,0 -0.921875,-0.453125 -0.921875,-1.15625 0,-0.375 0.0625,-0.65625 0.34375,-1.78125 l 0.59375,-2.34375 C 5.90625,-6.484375 6.484375,-7.25 7.28125,-7.25 c 0.03125,0 0.515625,0 0.875,0.21875 z m 0,0"
             id="path33" />
        </g>
      </g>
    </g>
    <g
       inkscape:label=""
       transform="translate(47.239147,141.72296)"
       id="g40">
      <g
         fill="#000000"
         fill-opacity="1"
         id="g37"
         transform="matrix(0.352778,0,0,0.352778,-0.948255,-0.701366)">
        <g
           id="g36"
           transform="translate(1.589,19.66)">
          <path
             d="m 13.265625,-14.796875 c -0.3125,0.28125 -1.21875,1.140625 -1.21875,1.484375 0,0.25 0.21875,0.46875 0.46875,0.46875 0.21875,0 0.328125,-0.140625 0.5,-0.390625 0.59375,-0.75 1.265625,-1.21875 1.828125,-1.53125 0.25,-0.15625 0.421875,-0.234375 0.421875,-0.5 0,-0.21875 -0.203125,-0.34375 -0.34375,-0.46875 -0.703125,-0.46875 -0.875,-1.140625 -0.9375,-1.4375 -0.07813,-0.203125 -0.15625,-0.5 -0.5,-0.5 -0.15625,0 -0.453125,0.109375 -0.453125,0.46875 0,0.234375 0.15625,0.828125 0.625,1.484375 H 5.328125 c -0.421875,0 -0.84375,0 -0.84375,0.484375 0,0.4375 0.453125,0.4375 0.84375,0.4375 z m 0,0"
             id="path35" />
        </g>
      </g>
      <g
         fill="#000000"
         fill-opacity="1"
         id="g39"
         transform="matrix(0.352778,0,0,0.352778,-0.948255,-0.701366)">
        <g
           id="g38"
           transform="translate(2.0004661,19.66)">
          <path
             d="m 11.75,-10.109375 c -0.796875,0.140625 -1.09375,0.734375 -1.09375,1.21875 0,0.59375 0.46875,0.78125 0.8125,0.78125 0.75,0 1.265625,-0.640625 1.265625,-1.3125 0,-1.03125 -1.1875,-1.5 -2.234375,-1.5 -1.5,0 -2.34375,1.484375 -2.5625,1.953125 -0.578125,-1.859375 -2.109375,-1.953125 -2.5625,-1.953125 -2.53125,0 -3.859375,3.234375 -3.859375,3.78125 0,0.109375 0.09375,0.234375 0.265625,0.234375 0.203125,0 0.25,-0.15625 0.296875,-0.25 0.84375,-2.75 2.5,-3.28125 3.21875,-3.28125 1.125,0 1.34375,1.046875 1.34375,1.640625 C 6.640625,-8.25 6.5,-7.6875 6.1875,-6.5 l -0.828125,3.40625 c -0.375,1.484375 -1.09375,2.84375 -2.40625,2.84375 -0.125,0 -0.75,0 -1.265625,-0.3125 0.890625,-0.1875 1.09375,-0.921875 1.09375,-1.21875 0,-0.5 -0.375,-0.796875 -0.84375,-0.796875 -0.59375,0 -1.25,0.515625 -1.25,1.3125 0,1.046875 1.171875,1.515625 2.234375,1.515625 1.1875,0 2.03125,-0.9375 2.5625,-1.953125 C 5.875,-0.25 7.109375,0.25 8.03125,0.25 c 2.53125,0 3.859375,-3.25 3.859375,-3.796875 0,-0.125 -0.09375,-0.21875 -0.25,-0.21875 -0.21875,0 -0.234375,0.125 -0.3125,0.328125 -0.671875,2.171875 -2.109375,3.1875 -3.21875,3.1875 -0.875,0 -1.34375,-0.640625 -1.34375,-1.65625 0,-0.546875 0.09375,-0.9375 0.5,-2.578125 L 8.125,-7.859375 C 8.5,-9.34375 9.34375,-10.4375 10.484375,-10.4375 c 0.04687,0 0.734375,0 1.265625,0.328125 z m 0,0"
             id="path37" />
        </g>
      </g>
    </g>
    <use
       x="0"
       y="0"
       xlink:href="#g40"
       id="use40" />
  </g>
</svg>
