<?xml version="1.0" encoding="UTF-8" standalone="no"?>
<!-- Created with Inkscape (http://www.inkscape.org/) -->

<svg
   width="55.611317mm"
   height="28.310194mm"
   viewBox="0 0 55.611317 28.310194"
   version="1.1"
   id="svg1"
   inkscape:version="1.3.2 (091e20ef0f, 2023-11-25, custom)"
   sodipodi:docname="continuum.svg"
   xmlns:inkscape="http://www.inkscape.org/namespaces/inkscape"
   xmlns:sodipodi="http://sodipodi.sourceforge.net/DTD/sodipodi-0.dtd"
   xmlns="http://www.w3.org/2000/svg"
   xmlns:svg="http://www.w3.org/2000/svg">
  <sodipodi:namedview
     id="namedview1"
     pagecolor="#ffffff"
     bordercolor="#000000"
     borderopacity="0.25"
     inkscape:showpageshadow="2"
     inkscape:pageopacity="0.0"
     inkscape:pagecheckerboard="0"
     inkscape:deskcolor="#d1d1d1"
     inkscape:document-units="mm"
     showgrid="true"
     inkscape:zoom="5.1283738"
     inkscape:cx="72.537614"
     inkscape:cy="53.81823"
     inkscape:window-width="1920"
     inkscape:window-height="1011"
     inkscape:window-x="0"
     inkscape:window-y="32"
     inkscape:window-maximized="1"
     inkscape:current-layer="layer1">
    <inkscape:grid
       id="grid1"
       units="px"
       originx="-54.570282"
       originy="-95.819559"
       spacingx="0.26458333"
       spacingy="0.26458334"
       empcolor="#0099e5"
       empopacity="0.30196078"
       color="#0099e5"
       opacity="0.14901961"
       empspacing="5"
       dotted="false"
       gridanglex="30"
       gridanglez="30"
       visible="true" />
  </sodipodi:namedview>
  <defs
     id="defs1">
    <filter
       y="-1.6688402"
       height="3.7936077"
       inkscape:menu-tooltip="Darkens the edge with an inner blur and adds a flexible glow"
       inkscape:menu="Shadows and Glows"
       inkscape:label="Dark and Glow"
       style="color-interpolation-filters:sRGB"
       id="filter19"
       x="-4.7551213"
       width="10.500276">
      <feGaussianBlur
         stdDeviation="0.23809998"
         result="result6"
         id="feGaussianBlur18" />
      <feComposite
         result="result8"
         in="SourceGraphic"
         operator="atop"
         in2="result6"
         id="feComposite18" />
      <feComposite
         result="result9"
         operator="over"
         in2="SourceAlpha"
         in="result8"
         id="feComposite19" />
      <feColorMatrix
         values="1 0 0 0 0 0 1 0 0 0 0 0 1 0 0 0 0 0 1 0 "
         result="result10"
         id="feColorMatrix19" />
      <feBlend
         in="result10"
         mode="normal"
         in2="result6"
         id="feBlend19" />
    </filter>
    <filter
       y="-2.0561205"
       height="5.2139052"
       inkscape:menu-tooltip="Darkens the edge with an inner blur and adds a flexible glow"
       inkscape:menu="Shadows and Glows"
       inkscape:label="Dark and Glow"
       style="color-interpolation-filters:sRGB"
       id="filter21"
       x="-5.9981911"
       width="17.731696">
      <feGaussianBlur
         stdDeviation="0.23809998"
         result="result6"
         id="feGaussianBlur19" />
      <feComposite
         result="result8"
         in="SourceGraphic"
         operator="atop"
         in2="result6"
         id="feComposite20" />
      <feComposite
         result="result9"
         operator="over"
         in2="SourceAlpha"
         in="result8"
         id="feComposite21" />
      <feColorMatrix
         values="1 0 0 0 0 0 1 0 0 0 0 0 1 0 0 0 0 0 1 0 "
         result="result10"
         id="feColorMatrix21" />
      <feBlend
         in="result10"
         mode="normal"
         in2="result6"
         id="feBlend21" />
    </filter>
    <filter
       y="-2.0447268"
       height="5.4018817"
       inkscape:menu-tooltip="Darkens the edge with an inner blur and adds a flexible glow"
       inkscape:menu="Shadows and Glows"
       inkscape:label="Dark and Glow"
       style="color-interpolation-filters:sRGB"
       id="filter23"
       x="-2.9455497"
       width="6.8985769">
      <feGaussianBlur
         stdDeviation="0.23809998"
         result="result6"
         id="feGaussianBlur21" />
      <feComposite
         result="result8"
         in="SourceGraphic"
         operator="atop"
         in2="result6"
         id="feComposite22" />
      <feComposite
         result="result9"
         operator="over"
         in2="SourceAlpha"
         in="result8"
         id="feComposite23" />
      <feColorMatrix
         values="1 0 0 0 0 0 1 0 0 0 0 0 1 0 0 0 0 0 1 0 "
         result="result10"
         id="feColorMatrix23" />
      <feBlend
         in="result10"
         mode="normal"
         in2="result6"
         id="feBlend23" />
    </filter>
    <filter
       y="-2.3586049"
       height="5.3031166"
       inkscape:menu-tooltip="Darkens the edge with an inner blur and adds a flexible glow"
       inkscape:menu="Shadows and Glows"
       inkscape:label="Dark and Glow"
       style="color-interpolation-filters:sRGB"
       id="filter25"
       x="-7.6293569"
       width="15.902402">
      <feGaussianBlur
         stdDeviation="0.23809998"
         result="result6"
         id="feGaussianBlur23" />
      <feComposite
         result="result8"
         in="SourceGraphic"
         operator="atop"
         in2="result6"
         id="feComposite24" />
      <feComposite
         result="result9"
         operator="over"
         in2="SourceAlpha"
         in="result8"
         id="feComposite25" />
      <feColorMatrix
         values="1 0 0 0 0 0 1 0 0 0 0 0 1 0 0 0 0 0 1 0 "
         result="result10"
         id="feColorMatrix25" />
      <feBlend
         in="result10"
         mode="normal"
         in2="result6"
         id="feBlend25" />
    </filter>
    <filter
       y="-6.8920219"
       height="14.784044"
       inkscape:menu-tooltip="Darkens the edge with an inner blur and adds a flexible glow"
       inkscape:menu="Shadows and Glows"
       inkscape:label="Dark and Glow"
       style="color-interpolation-filters:sRGB"
       id="filter27"
       x="-2.5797675"
       width="6.159535">
      <feGaussianBlur
         stdDeviation="0.23809998"
         result="result6"
         id="feGaussianBlur25" />
      <feComposite
         result="result8"
         in="SourceGraphic"
         operator="atop"
         in2="result6"
         id="feComposite26" />
      <feComposite
         result="result9"
         operator="over"
         in2="SourceAlpha"
         in="result8"
         id="feComposite27" />
      <feColorMatrix
         values="1 0 0 0 0 0 1 0 0 0 0 0 1 0 0 0 0 0 1 0 "
         result="result10"
         id="feColorMatrix27" />
      <feBlend
         in="result10"
         mode="normal"
         in2="result6"
         id="feBlend27" />
    </filter>
    <filter
       y="-1.7714008"
       height="6.5905447"
       inkscape:menu-tooltip="Darkens the edge with an inner blur and adds a flexible glow"
       inkscape:menu="Shadows and Glows"
       inkscape:label="Dark and Glow"
       style="color-interpolation-filters:sRGB"
       id="filter29"
       x="-16.883284"
       width="34.754432">
      <feGaussianBlur
         stdDeviation="0.23809998"
         result="result6"
         id="feGaussianBlur27" />
      <feComposite
         result="result8"
         in="SourceGraphic"
         operator="atop"
         in2="result6"
         id="feComposite28" />
      <feComposite
         result="result9"
         operator="over"
         in2="SourceAlpha"
         in="result8"
         id="feComposite29" />
      <feColorMatrix
         values="1 0 0 0 0 0 1 0 0 0 0 0 1 0 0 0 0 0 1 0 "
         result="result10"
         id="feColorMatrix29" />
      <feBlend
         in="result10"
         mode="normal"
         in2="result6"
         id="feBlend29" />
    </filter>
  </defs>
  <g
     inkscape:label="Layer 1"
     inkscape:groupmode="layer"
     id="layer1"
     transform="translate(-54.570284,-95.819561)">
    <path
       style="fill:none;stroke:#000000;stroke-width:0.531;stroke-opacity:0.991236"
       d="m 59.531247,103.1875 c -0.08244,0.21155 -0.119214,0.4472 -0.247314,0.63466 -0.115007,0.1683 -0.395915,0.0985 -0.589979,0.1609 -0.35428,0.11388 -0.712888,0.2894 -1.045877,0.4559 -1.187278,0.59363 -2.101916,1.69317 -2.520825,2.9499 -0.367012,1.10103 -0.359246,2.77561 -0.10727,3.88851 0.152585,0.67392 0.373687,1.25515 0.589981,1.90403 0.17232,0.51696 0.356261,1.00972 0.697251,1.44813 0.670261,0.86177 1.514234,1.54 2.252652,2.33311 0.789339,0.84781 1.221774,2.00551 2.118569,2.76218 0.514453,0.43407 1.076653,0.82175 1.60904,1.2336 0.649703,0.5026 1.220575,1.02596 1.957662,1.3945 0.531736,0.26587 1.188339,0.40505 1.743126,0.58998 0.400819,0.13361 0.779142,0.32229 1.179962,0.4559 1.701017,0.567 3.602879,0.65107 5.309827,0.0536 2.563091,-0.89708 3.419983,-2.27991 4.424858,-4.77348 0.319727,-0.7934 0.743413,-1.56562 0.992237,-2.38674 0.296119,-0.9772 0.491366,-2.0255 0.643618,-3.03036 0.06865,-0.45307 0.255262,-0.89167 0.32181,-1.34086 0.166468,-1.12366 0.188902,-2.27604 0.321807,-3.4058 0.157184,-1.33613 0.372179,-2.64494 0.294987,-3.99578 -0.09292,-1.62606 -0.924079,-3.12611 -1.743125,-4.47849 -0.56891,-0.939368 -0.59681,-1.1343 -1.233596,-1.877216 -0.78014,-0.910161 -1.539029,-1.188667 -2.601278,-1.528585 -0.488209,-0.156229 -0.931317,-0.439052 -1.448136,-0.509529 -0.870458,-0.1187 -1.670947,0.05064 -2.520828,0.187722 -1.689526,0.272505 -3.383018,0.690081 -4.984401,1.312841 -1.073552,0.417494 -1.980607,1.118346 -2.949903,1.71631 -0.518575,0.31991 -0.906372,0.696697 -1.359545,1.093227 -1.008359,0.88231 -1.450264,1.26283 -1.10531,2.75181 z"
       id="path1" />
    <rect
       style="fill:none;stroke:#000000;stroke-width:0.531;stroke-opacity:0.991236"
       id="rect1"
       width="3.96875"
       height="3.96875"
       x="62.177082"
       y="105.83333" />
    <path
       style="fill:none;stroke:#000000;stroke-width:0.531;stroke-dasharray:none;stroke-dashoffset:0;stroke-opacity:0.991236"
       d="m 68.869427,107.23635 -2.645833,2.64583"
       id="path3" />
    <path
       style="fill:none;stroke:#000000;stroke-width:0.531;stroke-dasharray:0.531, 0.531;stroke-dashoffset:0;stroke-opacity:0.991236"
       d="m 64.822915,107.23635 -2.645833,2.64583"
       id="path3-2" />
    <path
       style="fill:none;stroke:#000000;stroke-width:0.531;stroke-dasharray:none;stroke-dashoffset:0;stroke-opacity:0.991236"
       d="m 64.745152,103.08947 -2.645833,2.64583"
       id="path3-7" />
    <path
       style="fill:none;stroke:#000000;stroke-width:0.531;stroke-dasharray:none;stroke-dashoffset:0;stroke-opacity:0.991236"
       d="m 66.14583,105.83333 2.645833,-2.64583"
       id="path6" />
    <g
       id="g41">
      <path
         id="rect2"
         style="fill:none;stroke:#000000;stroke-width:0.531;stroke-dasharray:0.531, 0.531;stroke-dashoffset:0;stroke-opacity:0.991236;fill-opacity:1"
         d="M 69.056248,107.15625 H 66.145831" />
      <path
         id="path4"
         style="fill:none;stroke:#000000;stroke-width:0.531;stroke-opacity:0.991236;fill-opacity:1"
         d="m 65.352082,103.1875 h 3.439582 v 3.96875 0" />
      <path
         id="path5"
         style="fill:none;stroke:#000000;stroke-width:0.531;stroke-dasharray:0.531, 0.531;stroke-dashoffset:0;stroke-opacity:0.991236;fill-opacity:1"
         d="m 64.822912,105.83333 2e-6,-2.64583 v 0 h 0.529168" />
      <path
         id="path2"
         style="fill:none;stroke:#000000;stroke-width:0.531;stroke-dasharray:0.531, 0.531;stroke-dashoffset:0;stroke-opacity:0.991236;fill-opacity:1"
         d="m 66.145831,107.15625 h -1.322917 l -2e-6,-1.32292" />
      <path
         style="fill:none;stroke:#000000;stroke-width:0.531;stroke-dasharray:none;stroke-dashoffset:0;stroke-opacity:0.991236;fill-opacity:1"
         d="m 65.616663,103.1875 -1.059251,-0.004"
         id="path7" />
    </g>
    <g
       inkscape:label=""
       transform="matrix(0.48768067,0,0,0.48768067,70.757389,118.81049)"
       id="g29">
      <g
         fill="#000000"
         fill-opacity="1"
         id="g2"
         transform="matrix(0.352778,0,0,0.352778,-1.17713,-0.708422)">
        <g
           id="use1"
           transform="translate(1.993,18.93)">
          <path
             d="m 15.34375,-14.171875 c 0.84375,-1.34375 1.609375,-1.9375 2.875,-2.03125 0.25,-0.03125 0.4375,-0.03125 0.4375,-0.46875 0,-0.109375 -0.04687,-0.25 -0.265625,-0.25 -0.453125,0 -1.515625,0.04687 -1.953125,0.04687 -0.71875,0 -1.46875,-0.04687 -2.15625,-0.04687 -0.203125,0 -0.453125,0 -0.453125,0.46875 0,0.21875 0.21875,0.25 0.328125,0.25 0.90625,0.07813 1.015625,0.515625 1.015625,0.8125 0,0.375 -0.359375,0.9375 -0.375,0.96875 L 7.015625,-2.078125 5.28125,-15.4375 c 0,-0.71875 1.28125,-0.765625 1.5625,-0.765625 0.375,0 0.59375,0 0.59375,-0.46875 0,-0.25 -0.28125,-0.25 -0.34375,-0.25 -0.421875,0 -0.921875,0.04687 -1.34375,0.04687 H 4.359375 c -1.8125,0 -2.546875,-0.04687 -2.578125,-0.04687 -0.140625,0 -0.4375,0 -0.4375,0.4375 0,0.28125 0.171875,0.28125 0.5625,0.28125 1.265625,0 1.34375,0.21875 1.421875,0.84375 l 1.96875,15.28125 C 5.375,0.453125 5.375,0.515625 5.71875,0.515625 c 0.296875,0 0.421875,-0.0625 0.671875,-0.46875 z m 0,0"
             id="path29" />
        </g>
      </g>
    </g>
    <g
       inkscape:label=""
       transform="matrix(0.47993971,0,0,0.47993971,69.750764,103.08053)"
       id="g31">
      <g
         fill="#000000"
         fill-opacity="1"
         id="g3"
         transform="matrix(0.352778,0,0,0.352778,-1.05035,-0.706217)">
        <g
           id="use2"
           transform="translate(1.993,19.205)">
          <path
             d="m 12.46875,-16.578125 c 0.01563,-0.09375 0.07813,-0.25 0.07813,-0.375 0,-0.25 -0.25,-0.25 -0.3125,-0.25 -0.01563,0 -1.234375,0.109375 -1.359375,0.125 -0.421875,0.03125 -0.78125,0.07813 -1.234375,0.109375 -0.625,0.04687 -0.796875,0.0625 -0.796875,0.515625 0,0.25 0.203125,0.25 0.546875,0.25 1.21875,0 1.234375,0.21875 1.234375,0.46875 0,0.140625 -0.04687,0.34375 -0.0625,0.421875 L 9.04688,-9.296875 c -0.28125,-0.640625 -0.9375,-1.625 -2.234375,-1.625 -2.796875,0 -5.828125,3.609375 -5.828125,7.28125 0,2.453125 1.4375,3.890625 3.125,3.890625 1.375,0 2.53125,-1.0625 3.21875,-1.890625 C 7.578125,-0.171875 8.75,0.25 9.484375,0.25 c 0.75,0 1.34375,-0.453125 1.796875,-1.34375 0.390625,-0.84375 0.734375,-2.34375 0.734375,-2.453125 0,-0.125 -0.09375,-0.21875 -0.25,-0.21875 -0.21875,0 -0.25,0.125 -0.34375,0.5 C 11.046875,-1.8125 10.578125,-0.25 9.5625,-0.25 c -0.71875,0 -0.765625,-0.640625 -0.765625,-1.140625 0,-0.09375 0,-0.609375 0.171875,-1.3125 z m -5.015625,13.625 c -0.125,0.421875 -0.125,0.46875 -0.46875,0.953125 -0.546875,0.6875 -1.625,1.75 -2.796875,1.75 -1.015625,0 -1.578125,-0.921875 -1.578125,-2.375 0,-1.359375 0.765625,-4.140625 1.234375,-5.1875 0.84375,-1.734375 2,-2.625 2.96875,-2.625 1.640625,0 1.953125,2.03125 1.953125,2.234375 0,0.03125 -0.0625,0.34375 -0.09375,0.390625 z m 0,0"
             id="path30" />
        </g>
        <g
           id="use3"
           transform="translate(14.604676,19.205)">
          <path
             d="m 15.34375,-14.171875 c 0.84375,-1.34375 1.609375,-1.9375 2.875,-2.03125 0.25,-0.03125 0.4375,-0.03125 0.4375,-0.46875 0,-0.109375 -0.04687,-0.25 -0.265625,-0.25 -0.453125,0 -1.515625,0.04687 -1.953125,0.04687 -0.71875,0 -1.46875,-0.04687 -2.15625,-0.04687 -0.203125,0 -0.453125,0 -0.453125,0.46875 0,0.21875 0.21875,0.25 0.328125,0.25 0.90625,0.07813 1.015625,0.515625 1.015625,0.8125 0,0.375 -0.359375,0.9375 -0.375,0.96875 L 7.015625,-2.078125 5.28125,-15.4375 c 0,-0.71875 1.28125,-0.765625 1.5625,-0.765625 0.375,0 0.59375,0 0.59375,-0.46875 0,-0.25 -0.28125,-0.25 -0.34375,-0.25 -0.421875,0 -0.921875,0.04687 -1.34375,0.04687 H 4.359375 c -1.8125,0 -2.546875,-0.04687 -2.578125,-0.04687 -0.140625,0 -0.4375,0 -0.4375,0.4375 0,0.28125 0.171875,0.28125 0.5625,0.28125 1.265625,0 1.34375,0.21875 1.421875,0.84375 l 1.96875,15.28125 C 5.375,0.453125 5.375,0.515625 5.71875,0.515625 c 0.296875,0 0.421875,-0.0625 0.671875,-0.46875 z m 0,0"
             id="path31" />
        </g>
      </g>
    </g>
    <g
       inkscape:label=""
       transform="matrix(0.48467019,0,0,0.48467019,81.959719,104.40222)"
       id="g40">
      <g
         fill="#000000"
         fill-opacity="1"
         id="g18"
         transform="matrix(0.352778,0,0,0.352778,-0.702799,-0.590771)">
        <g
           id="use11"
           transform="translate(1.993,12.659)">
          <path
             d="M 8.703125,-8.328125 C 8.578125,-8.375 8.46875,-8.40625 8.34375,-8.40625 c -0.40625,0 -0.78125,0.359375 -0.78125,0.796875 0,0.421875 0.3125,0.8125 0.78125,0.8125 0.609375,0 0.828125,-0.484375 0.828125,-0.9375 C 9.171875,-8.171875 9,-8.46875 8.921875,-8.875 8.375,-10.09375 7.1875,-10.859375 5.875,-10.953125 h -0.25 c -2.875,0 -4.640625,2.96875 -4.640625,5.59375 0,2.5625 1.625,5.515625 4.671875,5.515625 1.609375,0 3.046875,-0.96875 3.59375,-2.5625 0.046875,-0.125 0.140625,-0.3125 0.140625,-0.5 v -0.0625 C 9.375,-3.015625 9.3125,-3.078125 9.25,-3.078125 c -0.25,0 -0.625,1.25 -0.953125,1.671875 -0.5625,0.734375 -1.5,1.1875 -2.421875,1.1875 -2.546875,0 -3.5,-2.953125 -3.5,-5.109375 0,-1.984375 0.546875,-4.4375 2.53125,-5.125 0.265625,-0.109375 0.546875,-0.15625 0.8125,-0.15625 1.3125,0 2.609375,1.015625 2.984375,2.28125 z m 0,0"
             id="path24" />
        </g>
        <g
           id="use12"
           transform="translate(12.051605,12.659)">
          <path
             d="m 1.015625,-10.6875 v 0.328125 h 0.375 c 0.640625,0 1.15625,0.125 1.15625,0.96875 v 8.046875 c 0,0.84375 -0.515625,0.96875 -1.15625,0.96875 h -0.375 v 0.34375 h 4.21875 V -0.375 h -0.375 C 4.21875,-0.375 3.6875,-0.5 3.6875,-1.34375 v -8.046875 c 0,-0.515625 0.046875,-1 0.796875,-1 0.171875,0 0.34375,0.03125 0.5,0.03125 h 3.25 c 0.46875,0 0.59375,0.34375 0.609375,0.6875 V -1.4375 c 0,0.921875 -0.4375,1.0625 -1.140625,1.0625 H 7.3125 v 0.34375 h 4.203125 V -0.375 H 11.15625 C 10.5,-0.375 9.984375,-0.5 9.984375,-1.34375 v -8.046875 c 0,-0.84375 0.515625,-0.96875 1.171875,-0.96875 h 0.359375 V -10.6875 Z m 0,0"
             id="path25" />
        </g>
        <g
           id="use13"
           transform="translate(24.62858,12.659)">
          <path
             d="m 3.09375,-10.6875 v 0.328125 H 3.5 c 0.59375,0 1.1875,0.09375 1.1875,0.875 v 0.1875 c 0,1.8125 -0.15625,3.578125 -0.46875,5.328125 -0.25,1.3125 -0.71875,3.8125 -2.109375,3.8125 C 1.6875,-0.171875 1.3125,-0.328125 1.046875,-0.625 c 0.046875,0 0.0625,0.03125 0.125,0.03125 0.390625,0 0.71875,-0.34375 0.71875,-0.75 0,-0.359375 -0.296875,-0.71875 -0.71875,-0.71875 -0.484375,0 -0.75,0.359375 -0.75,0.796875 0,0.921875 0.8125,1.484375 1.6875,1.484375 1.234375,0 1.75,-1.390625 2.078125,-2.40625 C 4.90625,-4.484375 5,-6.9375 5.078125,-9.34375 v -0.171875 c 0,-0.5 0.15625,-0.84375 0.765625,-0.84375 h 2.390625 c 0.46875,0 0.59375,0.34375 0.609375,0.6875 V -1.4375 c 0,0.921875 -0.4375,1.0625 -1.140625,1.0625 H 7.3125 v 0.34375 h 4.203125 V -0.375 H 11.15625 C 10.5,-0.375 9.984375,-0.5 9.984375,-1.34375 v -8.046875 c 0,-0.84375 0.515625,-0.96875 1.171875,-0.96875 h 0.359375 V -10.6875 Z m 0,0"
             id="path26" />
        </g>
        <g
           id="use14"
           transform="translate(37.205555,12.659)">
          <path
             d="m 5.328125,-10.953125 c -2.90625,0.34375 -4.453125,3 -4.453125,5.578125 0,2.703125 1.796875,5.53125 4.84375,5.53125 H 5.953125 C 8.875,-0.203125 10.4375,-2.78125 10.4375,-5.359375 c 0,-2.578125 -1.8125,-5.625 -4.734375,-5.625 -0.125,0 -0.25,0 -0.375,0.03125 z M 2.25,-4.90625 v -0.390625 c 0,-1.796875 0.203125,-4.09375 2.203125,-5.03125 0.375,-0.171875 0.78125,-0.28125 1.171875,-0.28125 2.453125,0 3.421875,2.625 3.421875,4.8125 0,1.875 -0.171875,4.78125 -2.734375,5.46875 C 6.09375,-0.265625 5.875,-0.25 5.65625,-0.25 3.25,-0.25 2.484375,-2.75 2.25,-4.90625 Z m 0,0"
             id="path27" />
        </g>
        <g
           id="use15"
           transform="translate(48.523342,12.659)">
          <path
             d="m 1.046875,-10.6875 v 0.328125 H 1.40625 c 0.65625,0 1.171875,0.125 1.171875,0.96875 V -1.34375 C 2.578125,-0.5 2.0625,-0.375 1.40625,-0.375 H 1.046875 v 0.34375 h 16.15625 V -0.375 h -0.375 C 16.1875,-0.375 15.65625,-0.5 15.65625,-1.34375 v -8.046875 c 0,-0.84375 0.53125,-0.96875 1.171875,-0.96875 h 0.375 V -10.6875 h -4.21875 v 0.328125 h 0.34375 c 0.671875,0 1.1875,0.125 1.1875,0.984375 v 8.03125 c 0,0.546875 -0.0625,1 -0.765625,1 -0.140625,0 -0.3125,-0.03125 -0.4375,-0.03125 -0.875,0 -1.734375,0.046875 -2.609375,0.046875 -0.5,0 -0.96875,-0.09375 -1.015625,-0.734375 v -8.203125 c 0,-0.796875 0.203125,-1.09375 1.53125,-1.09375 V -10.6875 H 7.015625 v 0.328125 h 0.34375 c 0.671875,0 1.1875,0.125 1.1875,0.984375 v 8.03125 c 0,0.546875 -0.078125,1 -0.765625,1 -0.15625,0 -0.328125,-0.03125 -0.453125,-0.03125 -0.859375,0 -1.734375,0.046875 -2.59375,0.046875 -0.5,0 -0.96875,-0.09375 -1.015625,-0.734375 v -8.203125 c 0,-0.796875 0.203125,-1.09375 1.53125,-1.09375 V -10.6875 Z m 0,0"
             id="path28" />
        </g>
        <g
           id="use16"
           transform="translate(66.764168,12.659)">
          <path
             d="m 1.015625,-10.6875 v 0.328125 h 0.375 c 0.640625,0 1.15625,0.125 1.15625,0.96875 v 8.046875 c 0,0.84375 -0.515625,0.96875 -1.15625,0.96875 h -0.375 v 0.34375 h 4.21875 V -0.375 H 4.875 c -0.640625,0 -1.1875,-0.078125 -1.1875,-1.21875 v -4.125 h 5.15625 v 4.125 c 0,0.828125 -0.046875,1.21875 -1.53125,1.21875 v 0.34375 h 4.203125 V -0.375 H 11.15625 C 10.5,-0.375 9.984375,-0.5 9.984375,-1.34375 v -8.046875 c 0,-0.84375 0.515625,-0.96875 1.171875,-0.96875 h 0.359375 V -10.6875 H 7.3125 v 0.328125 h 0.25 c 0.609375,0 1.28125,0.04687 1.28125,0.984375 v 3.296875 H 3.6875 V -9.375 c 0,-0.734375 0.25,-0.984375 1.546875,-0.984375 V -10.6875 Z m 0,0"
             id="path33" />
        </g>
        <g
           id="use17"
           transform="translate(79.341148,12.659)">
          <path
             d="m 2.28125,-8.28125 c 0.390625,-1.203125 1.3125,-2.328125 2.703125,-2.328125 1.359375,0 2.375,1.21875 2.546875,2.53125 0.046875,0.296875 0.046875,0.625 0.046875,0.921875 V -6.25 C 5,-6.25 1.1875,-5.421875 1.1875,-2.28125 c 0,1.734375 1.90625,2.4375 3.265625,2.4375 1.171875,0 2.6875,-0.65625 3.171875,-2.109375 h 0.03125 c 0,1.015625 0.6875,2.03125 1.765625,2.03125 1.40625,0 1.75,-1.4375 1.75,-2.5625 V -3.59375 h -0.375 v 1.234375 c 0,0.796875 -0.171875,1.9375 -1.03125,1.9375 -0.921875,0 -1.046875,-1.21875 -1.046875,-1.859375 v -4.75 C 8.71875,-7.703125 8.703125,-8.375 8.375,-9 7.75,-10.203125 6.421875,-10.953125 5.078125,-10.953125 c -1.359375,0 -3.25,1.015625 -3.25,3.390625 0,0.53125 0.40625,0.828125 0.828125,0.828125 0.4375,0 0.78125,-0.328125 0.78125,-0.796875 0,-0.453125 -0.34375,-0.796875 -0.78125,-0.796875 -0.125,0 -0.25,0.03125 -0.375,0.046875 z m 5.296875,2.359375 v 2.40625 c 0,1.65625 -1.015625,3.171875 -2.71875,3.3125 h -0.125 c -1.109375,0 -2.203125,-0.859375 -2.203125,-2.03125 0,-1.53125 1.0625,-2.640625 2.40625,-3.1875 0.859375,-0.359375 1.734375,-0.40625 2.640625,-0.5 z m 0,0"
             id="path34" />
        </g>
        <g
           id="use18"
           transform="translate(90.658936,12.659)">
          <path
             d="M 5.25,-5.484375 C 4.28125,-4.15625 3.328125,-2.78125 2.25,-1.53125 1.765625,-0.984375 1.140625,-0.421875 0.375,-0.375 v 0.34375 H 4.109375 V -0.375 H 3.9375 c -0.296875,0 -0.6875,-0.015625 -0.6875,-0.34375 0,-0.34375 0.4375,-0.84375 0.671875,-1.171875 0.78125,-1.03125 2.265625,-3.515625 2.875,-3.515625 h 1.75 v 3.875 c 0,0.765625 -0.046875,1.15625 -1.53125,1.15625 v 0.34375 h 4.1875 V -0.375 h -0.375 c -0.640625,0 -1.15625,-0.125 -1.15625,-0.96875 v -8.046875 c 0,-0.84375 0.515625,-0.96875 1.15625,-0.96875 h 0.375 V -10.6875 h -4.40625 c -1.96875,0 -5.234375,0.25 -5.234375,2.53125 0,1.734375 2.171875,2.671875 3.6875,2.671875 z M 8.546875,-5.75 c -0.5625,0 -1.15625,0.03125 -1.734375,0.03125 -1.65625,0 -3.859375,-0.234375 -3.859375,-2.4375 0,-1.8125 1.65625,-2.171875 3.71875,-2.171875 h 1.28125 c 0.515625,0 0.59375,0.46875 0.59375,0.984375 z m 0,0"
             id="path35" />
        </g>
      </g>
      <g
         fill="#000000"
         fill-opacity="1"
         id="g23"
         transform="matrix(0.352778,0,0,0.352778,-0.702799,-0.590771)">
        <g
           id="use19"
           transform="translate(110.45639,12.659)">
          <path
             d="M 8.703125,-8.328125 C 8.578125,-8.375 8.46875,-8.40625 8.34375,-8.40625 c -0.40625,0 -0.78125,0.359375 -0.78125,0.796875 0,0.421875 0.3125,0.8125 0.78125,0.8125 0.609375,0 0.828125,-0.484375 0.828125,-0.9375 C 9.171875,-8.171875 9,-8.46875 8.921875,-8.875 8.375,-10.09375 7.1875,-10.859375 5.875,-10.953125 h -0.25 c -2.875,0 -4.640625,2.96875 -4.640625,5.59375 0,2.5625 1.625,5.515625 4.671875,5.515625 1.609375,0 3.046875,-0.96875 3.59375,-2.5625 0.046875,-0.125 0.140625,-0.3125 0.140625,-0.5 v -0.0625 C 9.375,-3.015625 9.3125,-3.078125 9.25,-3.078125 c -0.25,0 -0.625,1.25 -0.953125,1.671875 -0.5625,0.734375 -1.5,1.1875 -2.421875,1.1875 -2.546875,0 -3.5,-2.953125 -3.5,-5.109375 0,-1.984375 0.546875,-4.4375 2.53125,-5.125 0.265625,-0.109375 0.546875,-0.15625 0.8125,-0.15625 1.3125,0 2.609375,1.015625 2.984375,2.28125 z m 0,0"
             id="path36" />
        </g>
        <g
           id="use20"
           transform="translate(120.515,12.659)">
          <path
             d="m 1.046875,-10.578125 v 0.59375 h 0.21875 c 0.796875,0 1.3125,0.046875 1.3125,1.328125 V 3.265625 c 0,0.890625 -0.59375,0.953125 -1.3125,0.953125 H 1.046875 V 4.8125 H 5.25 V 4.21875 H 4.8125 c -0.546875,0 -1.09375,-0.078125 -1.09375,-0.875 L 3.734375,-1.6875 c 0.625,1.09375 1.765625,1.84375 3.03125,1.84375 2.828125,0 4.8125,-2.734375 4.8125,-5.515625 0,-2.71875 -1.8125,-5.5 -4.5625,-5.5 -1.265625,0 -2.75,0.765625 -3.296875,1.90625 l -0.03125,-1.90625 z m 9.09375,5.671875 c -0.109375,1.78125 -1.09375,4.703125 -3.546875,4.703125 -1.359375,0 -2.875,-1.390625 -2.875,-2.640625 v -4.015625 c 0,-0.28125 -0.03125,-0.578125 -0.03125,-0.84375 0,-1.359375 1.640625,-2.78125 3.15625,-2.78125 2.40625,0 3.3125,3.25 3.3125,5.15625 0,0.15625 0,0.296875 -0.01563,0.421875 z m 0,0"
             id="path37" />
        </g>
        <g
           id="use21"
           transform="translate(133.09196,12.659)">
          <path
             d="m 2.25,-5.875 h 6.875 c 0.1875,0 0.265625,-0.078125 0.265625,-0.265625 0,-2.390625 -1.21875,-4.8125 -3.984375,-4.8125 -2.875,0 -4.53125,2.921875 -4.53125,5.53125 0,2.515625 1.484375,5.25 4.5,5.578125 h 0.25 c 1.765625,0 3.125,-1.21875 3.6875,-2.828125 0.03125,-0.078125 0.0625,-0.15625 0.0625,-0.25 0,-0.09375 -0.03125,-0.171875 -0.15625,-0.171875 -0.25,0 -0.25,0.3125 -0.328125,0.515625 -0.4375,1.265625 -1.65625,2.359375 -3.046875,2.359375 -0.984375,0 -1.953125,-0.546875 -2.546875,-1.34375 C 2.328125,-2.796875 2.25,-4.390625 2.25,-5.875 Z m 0.03125,-0.34375 c 0,-1.8125 0.9375,-4.390625 3.078125,-4.390625 0.71875,0 1.359375,0.375 1.828125,0.890625 0.84375,0.96875 0.890625,2.28125 0.984375,3.5 z m 0,0"
             id="path38" />
        </g>
        <g
           id="use22"
           transform="translate(143.15057,12.659)">
          <path
             d="m 3.171875,-10.6875 v 0.328125 h 0.34375 c 0.796875,0 1.1875,0.25 1.1875,1.0625 0,3 -0.1875,8.921875 -3.828125,8.921875 L 0.546875,3.984375 h 0.375 C 0.984375,2.84375 1.015625,1.28125 1.6875,0.625 2.25,0.078125 3.046875,-0.03125 3.796875,-0.03125 h 4.65625 c 1.15625,0 2.46875,0.03125 2.890625,1.6875 0.171875,0.75 0.234375,1.5625 0.28125,2.328125 H 12 L 11.671875,-0.375 H 11.375 c -0.6875,0 -1.390625,-0.046875 -1.390625,-0.984375 v -8.03125 c 0,-0.84375 0.515625,-0.96875 1.171875,-0.96875 h 0.359375 V -10.6875 Z m 5.65625,9.671875 c 0,0.5625 -0.40625,0.640625 -0.78125,0.640625 h -4.75 C 3.140625,-0.390625 3.015625,-0.5 3.015625,-0.640625 V -0.6875 c 0,-0.1875 0.40625,-0.546875 0.578125,-0.84375 1.46875,-2.40625 1.484375,-5.609375 1.484375,-7.984375 0,-0.546875 0.15625,-0.84375 0.765625,-0.84375 h 2.203125 c 0.609375,0 0.796875,0.265625 0.796875,0.796875 v 8.125 c 0,0.15625 0,0.265625 -0.015625,0.421875 z m 0,0"
             id="path39" />
        </g>
        <g
           id="use23"
           transform="translate(155.72755,12.659)">
          <path
             d="m 2.28125,-8.28125 c 0.390625,-1.203125 1.3125,-2.328125 2.703125,-2.328125 1.359375,0 2.375,1.21875 2.546875,2.53125 0.046875,0.296875 0.046875,0.625 0.046875,0.921875 V -6.25 C 5,-6.25 1.1875,-5.421875 1.1875,-2.28125 c 0,1.734375 1.90625,2.4375 3.265625,2.4375 1.171875,0 2.6875,-0.65625 3.171875,-2.109375 h 0.03125 c 0,1.015625 0.6875,2.03125 1.765625,2.03125 1.40625,0 1.75,-1.4375 1.75,-2.5625 V -3.59375 h -0.375 v 1.234375 c 0,0.796875 -0.171875,1.9375 -1.03125,1.9375 -0.921875,0 -1.046875,-1.21875 -1.046875,-1.859375 v -4.75 C 8.71875,-7.703125 8.703125,-8.375 8.375,-9 7.75,-10.203125 6.421875,-10.953125 5.078125,-10.953125 c -1.359375,0 -3.25,1.015625 -3.25,3.390625 0,0.53125 0.40625,0.828125 0.828125,0.828125 0.4375,0 0.78125,-0.328125 0.78125,-0.796875 0,-0.453125 -0.34375,-0.796875 -0.78125,-0.796875 -0.125,0 -0.25,0.03125 -0.375,0.046875 z m 5.296875,2.359375 v 2.40625 c 0,1.65625 -1.015625,3.171875 -2.71875,3.3125 h -0.125 c -1.109375,0 -2.203125,-0.859375 -2.203125,-2.03125 0,-1.53125 1.0625,-2.640625 2.40625,-3.1875 0.859375,-0.359375 1.734375,-0.40625 2.640625,-0.5 z m 0,0"
             id="path40" />
        </g>
      </g>
      <path
         fill="none"
         stroke-width="0.956"
         stroke-linecap="butt"
         stroke-linejoin="miter"
         stroke="#000000"
         stroke-opacity="1"
         stroke-miterlimit="10"
         d="M 0,19.1535 H 165.05859"
         id="path23"
         transform="scale(0.352778)" />
    </g>
    <path
       style="opacity:1;fill:#7f0000;fill-opacity:1;stroke:#000000;stroke-width:0.275803;stroke-dasharray:none;stroke-dashoffset:0;stroke-opacity:1"
       d="m 34.150255,33.325702 3.502331,-3.504352 h 1.066059 1.066059 v -0.48099 -0.480989 h 5.736628 5.73663 l -3.983564,3.985341 -3.983565,3.985342 H 41.537768 39.784704 V 36.280352 35.730649 H 38.754012 37.72332 v 0.549703 0.549702 h -3.537698 -3.537698 z m 5.634449,-0.48099 V 31.745308 H 38.754012 37.72332 v 1.099404 1.099405 h 1.030692 1.030692 z"
       id="path41"
       transform="matrix(0.26458333,0,0,0.26458333,54.570284,95.819561)" />
    <path
       style="opacity:1;fill:#7f0000;fill-opacity:1;stroke:#000000;stroke-width:0.275803;stroke-dasharray:none;stroke-dashoffset:0;stroke-opacity:1"
       d="m 44.86945,47.376562 v -3.400378 h 0.961979 0.961979 V 42.876779 41.777375 H 45.831429 44.86945 v -1.753081 -1.75308 l 3.916629,-3.91482 3.916629,-3.914821 v 6.252864 6.252863 l -3.916629,3.914821 -3.916629,3.91482 z m 5.9093,-4.499783 v -1.099404 h -1.030692 -1.030692 v 1.099404 1.099405 h 1.030692 1.030692 z"
       id="path42"
       transform="matrix(0.26458333,0,0,0.26458333,54.570284,95.819561)" />
    <path
       style="opacity:1;fill:#f31111;fill-opacity:1;stroke:#000000;stroke-width:0.275803;stroke-dasharray:none;stroke-dashoffset:0;stroke-opacity:1"
       d="m 30.121912,51.424001 -0.369275,-0.38544 v -6.073562 -6.073562 h 3.985341 3.985342 v 0.48099 0.48099 h 1.030692 1.030692 v -0.48099 -0.48099 h 1.442968 1.442969 v 1.442969 1.442969 h -0.48099 -0.480989 v 1.099404 1.099405 h 0.480989 0.48099 v 3.916629 3.916628 h -6.089727 -6.089727 z m 3.036889,-1.165108 0.716976,-0.725994 -0.756027,-0.746636 -0.756027,-0.746636 -0.756027,0.746636 -0.756028,0.746636 0.716977,0.725994 c 0.394337,0.399297 0.752122,0.725995 0.795078,0.725995 0.04296,0 0.400741,-0.326698 0.795078,-0.725995 z m 3.465115,-3.603382 c 0,-0.08101 -0.310041,-0.452664 -0.688978,-0.825904 l -0.688978,-0.678618 -0.785243,0.785243 -0.785243,0.785243 0.748226,0.757637 0.748227,0.757638 0.725994,-0.716977 c 0.399297,-0.394337 0.725995,-0.783255 0.725995,-0.864262 z m 2.130096,-1.992199 c 0.372238,-0.377921 0.756422,-0.687128 0.853744,-0.687128 0.129568,0 0.176948,-0.294379 0.176948,-1.099405 V 41.777375 H 38.754012 37.72332 v 0.453099 c 0,0.347537 -0.128068,0.578155 -0.549702,0.989869 -0.302336,0.295224 -0.549702,0.599397 -0.549702,0.675941 0,0.145531 1.236721,1.454155 1.374255,1.454155 0.04348,0 0.383603,-0.309207 0.755841,-0.687127 z"
       id="path43"
       transform="matrix(0.26458333,0,0,0.26458333,54.570284,95.819561)" />
    <path
       style="opacity:1;fill:#f31111;fill-opacity:1;stroke:#000000;stroke-width:0.275803;stroke-dasharray:none;stroke-dashoffset:0;stroke-opacity:1"
       d="m 34.425106,33.325702 3.364823,-3.366927 h 1.0661 1.0661 v -0.480989 -0.48099 h 5.461746 5.461747 l -3.846076,3.847916 -3.846075,3.847916 H 41.5378 39.922129 v -0.549702 -0.549702 h -1.168117 -1.168117 v 0.549702 0.549702 h -3.262806 -3.262806 z m 5.497023,-0.48099 v -1.23683 h -1.168117 -1.168117 v 1.23683 1.23683 h 1.168117 1.168117 z"
       id="path44"
       transform="matrix(0.26458333,0,0,0.26458333,54.570284,95.819561)" />
    <path
       style="opacity:1;fill:#a8a8a8;fill-opacity:1;stroke:#000000;stroke-width:0.275803;stroke-dasharray:none;stroke-dashoffset:0;stroke-opacity:1"
       d="m 45.006876,47.239104 v -3.125495 h 0.961979 0.961979 v -1.23683 -1.23683 h -0.961979 -0.961979 v -1.615688 -1.615687 l 3.779203,-3.777329 3.779203,-3.777329 v 5.978012 5.978012 l -3.779203,3.77733 -3.779203,3.777328 z m 5.909299,-4.362325 v -1.23683 H 49.748058 48.57994 v 1.23683 1.23683 h 1.168118 1.168117 z"
       id="path45"
       transform="matrix(0.26458333,0,0,0.26458333,54.570284,95.819561)" />
    <path
       style="opacity:1;fill:#a8a8a8;fill-opacity:1;stroke:#000000;stroke-width:0.307705;stroke-dasharray:none;stroke-dashoffset:0;stroke-opacity:1"
       d="m 34.727299,33.347407 3.140284,-3.143089 h 1.112983 1.112983 v -0.536625 -0.536625 h 5.173399 5.173399 l -3.677317,3.679714 -3.677318,3.679713 H 41.58963 40.093549 v -0.536624 -0.536625 h -1.379893 -1.379893 v 0.536625 0.536624 h -2.873374 -2.873374 z m 5.36625,-0.459965 v -1.456553 h -1.379893 -1.379893 v 1.456553 1.456554 h 1.379893 1.379893 z"
       id="path46"
       transform="matrix(0.26458333,0,0,0.26458333,54.570284,95.819561)" />
    <path
       style="opacity:1;fill:#a8a8a8;fill-opacity:1;stroke:#000000;stroke-width:0.307705;stroke-dasharray:none;stroke-dashoffset:0;stroke-opacity:1"
       d="m 30.307704,51.31446 c -0.330417,-0.351713 -0.333368,-0.407367 -0.333368,-6.286178 v -5.931323 h 3.756374 3.756375 v 0.459965 0.459964 h 1.226571 1.226571 v -0.459964 -0.459965 h 1.226571 1.226572 v 1.226572 1.226571 h -0.459964 -0.459965 v 1.303232 1.303232 h 0.459965 0.459964 v 3.756374 3.756375 h -5.876148 -5.876149 z m 3.1872,-1.090497 0.684122,-0.702336 -0.832206,-0.842674 c -0.457714,-0.46347 -0.905915,-0.842673 -0.996003,-0.842673 -0.09009,0 -0.54091,0.382718 -1.001826,0.850484 l -0.83803,0.850484 0.876543,0.844151 c 1.002459,0.965413 1.014549,0.96451 2.1074,-0.157436 z m 2.590048,-2.608487 c 0.433866,-0.45875 0.788847,-0.880858 0.788847,-0.938018 0,-0.146437 -0.90474,-1.160635 -1.344212,-1.506839 l -0.367084,-0.289179 -0.830888,0.820567 c -0.456988,0.451311 -0.830887,0.889748 -0.830887,0.974304 0,0.167186 1.537355,1.773254 1.697388,1.773254 0.05389,0 0.452969,-0.37534 0.886836,-0.834089 z m 2.943752,-2.883955 0.904391,-0.804937 0.0036,-1.188241 0.0036,-1.188241 h -1.226571 -1.226571 v 0.479712 c 0,0.332889 -0.164242,0.661508 -0.536625,1.073691 -0.295144,0.326689 -0.536625,0.677655 -0.536625,0.779924 0,0.211873 1.375528,1.65303 1.577753,1.65303 0.073,0 0.539702,-0.362222 1.037116,-0.804938 z"
       id="path47"
       transform="matrix(0.26458333,0,0,0.26458333,54.570284,95.819561)" />
  </g>
</svg>
