<?xml version="1.0" encoding="UTF-8" standalone="no"?>
<!-- Created with Inkscape (http://www.inkscape.org/) -->

<svg
   width="57.336502mm"
   height="35.317398mm"
   viewBox="0 0 57.336502 35.317398"
   version="1.1"
   id="svg1"
   inkscape:version="1.3.2 (091e20ef0f, 2023-11-25, custom)"
   sodipodi:docname="continuumaxiom.svg"
   xmlns:inkscape="http://www.inkscape.org/namespaces/inkscape"
   xmlns:sodipodi="http://sodipodi.sourceforge.net/DTD/sodipodi-0.dtd"
   xmlns="http://www.w3.org/2000/svg"
   xmlns:svg="http://www.w3.org/2000/svg">
  <sodipodi:namedview
     id="namedview1"
     pagecolor="#ffffff"
     bordercolor="#000000"
     borderopacity="0.25"
     inkscape:showpageshadow="2"
     inkscape:pageopacity="0.0"
     inkscape:pagecheckerboard="0"
     inkscape:deskcolor="#d1d1d1"
     inkscape:document-units="mm"
     showgrid="true"
     inkscape:zoom="2.0139461"
     inkscape:cx="111.72096"
     inkscape:cy="98.314447"
     inkscape:window-width="1920"
     inkscape:window-height="1011"
     inkscape:window-x="0"
     inkscape:window-y="32"
     inkscape:window-maximized="1"
     inkscape:current-layer="layer1">
    <inkscape:grid
       id="grid1"
       units="px"
       originx="-37.580541"
       originy="-92.199233"
       spacingx="0.26458333"
       spacingy="0.26458334"
       empcolor="#0099e5"
       empopacity="0.30196078"
       color="#0099e5"
       opacity="0.14901961"
       empspacing="5"
       dotted="false"
       gridanglex="30"
       gridanglez="30"
       visible="true" />
  </sodipodi:namedview>
  <defs
     id="defs1" />
  <g
     inkscape:label="Layer 1"
     inkscape:groupmode="layer"
     id="layer1"
     transform="translate(-37.580542,-92.199232)">
    <circle
       style="fill:none;stroke:#000000;stroke-width:0.531"
       id="path3"
       cx="78.713539"
       cy="110.46354"
       r="11.244792" />
    <circle
       style="fill:#000000;fill-opacity:1;stroke:#000000;stroke-width:0.531"
       id="path4"
       cx="78.713539"
       cy="110.46354"
       r="0.66145831" />
    <circle
       style="fill:#000000;fill-opacity:1;stroke:#000000;stroke-width:0.531"
       id="path5"
       cx="81.359375"
       cy="114.43229"
       r="0.66145831" />
    <g
       inkscape:label=""
       transform="matrix(1.1841854,0,0,1.1841854,47.312211,115.72476)"
       id="g23">
      <g
         fill="#000000"
         fill-opacity="1"
         id="g12"
         transform="matrix(0.352778,0,0,0.352778,-0.989718,-0.702116)">
        <g
           id="g11"
           transform="translate(1.993,10.959)">
          <path
             d="M 6.046875,-2.75 C 5.625,-1.078125 4.25,-0.09375 3.125,-0.09375 c -0.859375,0 -1.453125,-0.578125 -1.453125,-1.5625 0,-0.046875 0,-0.40625 0.140625,-0.9375 L 2.96875,-7.296875 C 3.078125,-7.703125 3.109375,-7.8125 3.953125,-7.8125 c 0.21875,0 0.34375,0 0.34375,-0.21875 0,-0.125 -0.109375,-0.125 -0.1875,-0.125 -0.21875,0 -0.46875,0.015625 -0.6875,0.015625 h -1.40625 c -0.234375,0 -0.484375,-0.015625 -0.71875,-0.015625 -0.078125,0 -0.21875,0 -0.21875,0.21875 0,0.125 0.078125,0.125 0.3125,0.125 0.71875,0 0.71875,0.09375 0.71875,0.21875 0,0.078125 -0.09375,0.421875 -0.15625,0.625 l -1.03125,4.1875 C 0.890625,-2.65625 0.8125,-2.328125 0.8125,-2.015625 0.8125,-0.6875 1.75,0.25 3.0625,0.25 c 1.203125,0 2.546875,-0.953125 3.15625,-2.46875 0.078125,-0.203125 0.1875,-0.625 0.265625,-0.953125 C 6.59375,-3.59375 6.84375,-4.65625 6.9375,-4.953125 L 7.390625,-6.75 c 0.15625,-0.625 0.25,-1.015625 1.296875,-1.0625 0.09375,-0.015625 0.140625,-0.109375 0.140625,-0.21875 0,-0.125 -0.109375,-0.125 -0.15625,-0.125 -0.15625,0 -0.375,0.015625 -0.546875,0.015625 H 7.5625 c -0.734375,0 -1.125,-0.015625 -1.125,-0.015625 -0.078125,0 -0.21875,0 -0.21875,0.21875 0,0.125 0.09375,0.125 0.171875,0.125 0.71875,0.015625 0.765625,0.296875 0.765625,0.515625 0,0.09375 0,0.140625 -0.046875,0.296875 z m 0,0"
             id="path6" />
        </g>
      </g>
      <g
         fill="#000000"
         fill-opacity="1"
         id="g16"
         transform="matrix(0.352778,0,0,0.352778,-0.989718,-0.702116)">
        <g
           id="g15"
           transform="translate(9.9429998,12.752)">
          <path
             d="m 2.171875,-3.46875 c -1.203125,0.328125 -1.828125,1.375 -1.828125,2.1875 0,0.890625 0.671875,1.375 1.375,1.375 0.9375,0 1.65625,-1.140625 1.65625,-2.3125 0,-0.765625 -0.359375,-1.1875 -0.640625,-1.5 -0.25,-0.3125 -0.8125,-0.953125 -0.8125,-1.3125 0,-0.1875 0.171875,-0.359375 0.421875,-0.359375 0.265625,0 0.4375,0.109375 0.65625,0.25 0.203125,0.109375 0.34375,0.171875 0.4375,0.171875 0.203125,0 0.328125,-0.1875 0.328125,-0.328125 0,-0.1875 -0.09375,-0.203125 -0.5,-0.296875 C 2.8125,-5.6875 2.578125,-5.6875 2.5625,-5.6875 c -0.34375,0 -0.90625,0.171875 -0.90625,0.84375 0,0.40625 0.21875,0.875 0.515625,1.375 z m 0.125,0.21875 C 2.578125,-2.78125 2.75,-2.375 2.75,-1.890625 c 0,0.625 -0.34375,1.765625 -1.03125,1.765625 -0.3125,0 -0.8125,-0.203125 -0.8125,-0.9375 0,-0.421875 0.234375,-1.890625 1.390625,-2.1875 z m 0,0"
             id="path15" />
        </g>
      </g>
      <g
         fill="#000000"
         fill-opacity="1"
         id="g18"
         transform="matrix(0.352778,0,0,0.352778,-0.989718,-0.702116)">
        <g
           id="g17"
           transform="translate(14.487,10.959)">
          <path
             d="m 3.890625,2.90625 c 0,-0.03125 0,-0.0625 -0.203125,-0.265625 C 2.484375,1.4375 1.8125,-0.53125 1.8125,-2.96875 c 0,-2.328125 0.5625,-4.328125 1.953125,-5.734375 0.125,-0.109375 0.125,-0.125 0.125,-0.171875 0,-0.0625 -0.0625,-0.09375 -0.109375,-0.09375 -0.15625,0 -1.140625,0.859375 -1.71875,2.03125 -0.609375,1.21875 -0.890625,2.484375 -0.890625,3.96875 0,1.0625 0.171875,2.484375 0.78125,3.75 C 2.671875,2.21875 3.640625,3 3.78125,3 3.828125,3 3.890625,2.96875 3.890625,2.90625 Z m 0,0"
             id="path16" />
        </g>
      </g>
      <g
         fill="#000000"
         fill-opacity="1"
         id="g20"
         transform="matrix(0.352778,0,0,0.352778,-0.989718,-0.702116)">
        <g
           id="g19"
           transform="translate(19.039,10.959)">
          <path
             d="m 10.859375,-7.296875 c 0.109375,-0.40625 0.125,-0.515625 0.96875,-0.515625 0.234375,0 0.34375,0 0.34375,-0.234375 0,-0.109375 -0.09375,-0.109375 -0.3125,-0.109375 h -1.4375 c -0.296875,0 -0.3125,0 -0.4375,0.203125 L 5.625,-1.0625 4.71875,-7.90625 c -0.03125,-0.25 -0.046875,-0.25 -0.359375,-0.25 H 2.875 c -0.21875,0 -0.328125,0 -0.328125,0.21875 0,0.125 0.109375,0.125 0.28125,0.125 0.734375,0 0.734375,0.09375 0.734375,0.21875 0,0.03125 0,0.09375 -0.046875,0.28125 l -1.53125,6.09375 c -0.140625,0.578125 -0.421875,0.84375 -1.21875,0.875 -0.03125,0 -0.1875,0.015625 -0.1875,0.21875 C 0.578125,0 0.6875,0 0.734375,0 c 0.25,0 0.859375,-0.03125 1.09375,-0.03125 H 2.40625 C 2.5625,-0.03125 2.765625,0 2.9375,0 c 0.09375,0 0.21875,0 0.21875,-0.234375 0,-0.09375 -0.125,-0.109375 -0.171875,-0.109375 C 2.59375,-0.359375 2.21875,-0.4375 2.21875,-0.859375 c 0,-0.125 0,-0.125 0.046875,-0.296875 L 3.90625,-7.75 H 3.921875 L 4.90625,-0.328125 C 4.953125,-0.03125 4.953125,0 5.0625,0 5.203125,0 5.265625,-0.09375 5.3125,-0.203125 L 10.125,-7.8125 h 0.01563 L 8.40625,-0.890625 C 8.296875,-0.46875 8.265625,-0.34375 7.4375,-0.34375 c -0.234375,0 -0.34375,0 -0.34375,0.21875 C 7.09375,0 7.203125,0 7.265625,0 7.46875,0 7.703125,-0.03125 7.90625,-0.03125 H 9.328125 C 9.53125,-0.03125 9.78125,0 9.984375,0 c 0.09375,0 0.21875,0 0.21875,-0.234375 0,-0.109375 -0.109375,-0.109375 -0.28125,-0.109375 -0.734375,0 -0.734375,-0.09375 -0.734375,-0.21875 0,-0.015625 0,-0.09375 0.03125,-0.1875 z m 0,0"
             id="path18" />
        </g>
      </g>
      <g
         fill="#000000"
         fill-opacity="1"
         id="g22"
         transform="matrix(0.352778,0,0,0.352778,-0.989718,-0.702116)">
        <g
           id="g21"
           transform="translate(31.613001,10.959)">
          <path
             d="M 3.375,-2.96875 C 3.375,-3.890625 3.25,-5.359375 2.578125,-6.75 1.875,-8.1875 0.890625,-8.96875 0.765625,-8.96875 c -0.046875,0 -0.109375,0.03125 -0.109375,0.09375 0,0.046875 0,0.0625 0.203125,0.265625 1.203125,1.203125 1.859375,3.1875 1.859375,5.625 0,2.3125 -0.5625,4.3125 -1.9375,5.71875 C 0.65625,2.84375 0.65625,2.875 0.65625,2.90625 0.65625,2.96875 0.71875,3 0.765625,3 0.921875,3 1.90625,2.140625 2.484375,0.96875 3.09375,-0.25 3.375,-1.546875 3.375,-2.96875 Z m 0,0"
             id="path20" />
        </g>
      </g>
    </g>
    <g
       inkscape:label=""
       transform="matrix(1.2163989,0,0,1.2163989,79.635893,105.30101)"
       id="g24">
      <g
         fill="#000000"
         fill-opacity="1"
         id="g2"
         transform="matrix(0.352778,0,0,0.352778,-0.907036,-0.707231)">
        <g
           id="use1"
           transform="translate(1.993,10.161)">
          <path
             d="m 10.859375,-7.296875 c 0.109375,-0.40625 0.125,-0.515625 0.96875,-0.515625 0.234375,0 0.34375,0 0.34375,-0.234375 0,-0.109375 -0.09375,-0.109375 -0.3125,-0.109375 h -1.4375 c -0.296875,0 -0.3125,0 -0.4375,0.203125 L 5.625,-1.0625 4.71875,-7.90625 c -0.03125,-0.25 -0.046875,-0.25 -0.359375,-0.25 H 2.875 c -0.21875,0 -0.328125,0 -0.328125,0.21875 0,0.125 0.109375,0.125 0.28125,0.125 0.734375,0 0.734375,0.09375 0.734375,0.21875 0,0.03125 0,0.09375 -0.046875,0.28125 l -1.53125,6.09375 c -0.140625,0.578125 -0.421875,0.84375 -1.21875,0.875 -0.03125,0 -0.1875,0.015625 -0.1875,0.21875 C 0.578125,0 0.6875,0 0.734375,0 c 0.25,0 0.859375,-0.03125 1.09375,-0.03125 H 2.40625 C 2.5625,-0.03125 2.765625,0 2.9375,0 c 0.09375,0 0.21875,0 0.21875,-0.234375 0,-0.09375 -0.125,-0.109375 -0.171875,-0.109375 C 2.59375,-0.359375 2.21875,-0.4375 2.21875,-0.859375 c 0,-0.125 0,-0.125 0.046875,-0.296875 L 3.90625,-7.75 H 3.921875 L 4.90625,-0.328125 C 4.953125,-0.03125 4.953125,0 5.0625,0 5.203125,0 5.265625,-0.09375 5.3125,-0.203125 L 10.125,-7.8125 h 0.01563 L 8.40625,-0.890625 C 8.296875,-0.46875 8.265625,-0.34375 7.4375,-0.34375 c -0.234375,0 -0.34375,0 -0.34375,0.21875 C 7.09375,0 7.203125,0 7.265625,0 7.46875,0 7.703125,-0.03125 7.90625,-0.03125 H 9.328125 C 9.53125,-0.03125 9.78125,0 9.984375,0 c 0.09375,0 0.21875,0 0.21875,-0.234375 0,-0.109375 -0.109375,-0.109375 -0.28125,-0.109375 -0.734375,0 -0.734375,-0.09375 -0.734375,-0.21875 0,-0.015625 0,-0.09375 0.03125,-0.1875 z m 0,0"
             id="path24" />
        </g>
      </g>
    </g>
    <g
       inkscape:label=""
       transform="matrix(1.1396412,0,0,1.1396412,77.202046,116.20995)"
       id="g26">
      <g
         fill="#000000"
         fill-opacity="1"
         id="g3"
         transform="matrix(0.352778,0,0,0.352778,-0.907036,-0.707584)">
        <g
           id="use2"
           transform="translate(1.993,10.162)">
          <path
             d="m 10.859375,-7.296875 c 0.109375,-0.40625 0.125,-0.515625 0.96875,-0.515625 0.234375,0 0.34375,0 0.34375,-0.234375 0,-0.109375 -0.09375,-0.109375 -0.3125,-0.109375 h -1.4375 c -0.296875,0 -0.3125,0 -0.4375,0.203125 L 5.625,-1.0625 4.71875,-7.90625 c -0.03125,-0.25 -0.046875,-0.25 -0.359375,-0.25 H 2.875 c -0.21875,0 -0.328125,0 -0.328125,0.21875 0,0.125 0.109375,0.125 0.28125,0.125 0.734375,0 0.734375,0.09375 0.734375,0.21875 0,0.03125 0,0.09375 -0.046875,0.28125 l -1.53125,6.09375 c -0.140625,0.578125 -0.421875,0.84375 -1.21875,0.875 -0.03125,0 -0.1875,0.015625 -0.1875,0.21875 C 0.578125,0 0.6875,0 0.734375,0 c 0.25,0 0.859375,-0.03125 1.09375,-0.03125 H 2.40625 C 2.5625,-0.03125 2.765625,0 2.9375,0 c 0.09375,0 0.21875,0 0.21875,-0.234375 0,-0.09375 -0.125,-0.109375 -0.171875,-0.109375 C 2.59375,-0.359375 2.21875,-0.4375 2.21875,-0.859375 c 0,-0.125 0,-0.125 0.046875,-0.296875 L 3.90625,-7.75 H 3.921875 L 4.90625,-0.328125 C 4.953125,-0.03125 4.953125,0 5.0625,0 5.203125,0 5.265625,-0.09375 5.3125,-0.203125 L 10.125,-7.8125 h 0.01563 L 8.40625,-0.890625 C 8.296875,-0.46875 8.265625,-0.34375 7.4375,-0.34375 c -0.234375,0 -0.34375,0 -0.34375,0.21875 C 7.09375,0 7.203125,0 7.265625,0 7.46875,0 7.703125,-0.03125 7.90625,-0.03125 H 9.328125 C 9.53125,-0.03125 9.78125,0 9.984375,0 c 0.09375,0 0.21875,0 0.21875,-0.234375 0,-0.109375 -0.109375,-0.109375 -0.28125,-0.109375 -0.734375,0 -0.734375,-0.09375 -0.734375,-0.21875 0,-0.015625 0,-0.09375 0.03125,-0.1875 z m 0,0"
             id="path25" />
        </g>
      </g>
      <g
         fill="#000000"
         fill-opacity="1"
         id="g4"
         transform="matrix(0.352778,0,0,0.352778,-0.907036,-0.707584)">
        <g
           id="use3"
           transform="translate(13.317,11.955)">
          <path
             d="m 2.5,-5.078125 c 0,-0.21875 -0.015625,-0.21875 -0.234375,-0.21875 -0.328125,0.3125 -0.75,0.5 -1.5,0.5 v 0.265625 c 0.21875,0 0.640625,0 1.109375,-0.203125 v 4.078125 c 0,0.296875 -0.03125,0.390625 -0.78125,0.390625 H 0.8125 V 0 c 0.328125,-0.03125 1.015625,-0.03125 1.375,-0.03125 0.359375,0 1.046875,0 1.375,0.03125 V -0.265625 H 3.28125 c -0.75,0 -0.78125,-0.09375 -0.78125,-0.390625 z m 0,0"
             id="path26" />
        </g>
      </g>
    </g>
    <path
       style="fill:none;fill-opacity:1;stroke:#000000;stroke-width:0.531"
       d="m 72.760413,93.927085 c -1.689857,-0.02299 -3.383436,0.04542 -5.069573,-0.069 -1.058992,-0.07186 -1.950124,-0.813414 -3.032183,-0.847225 -1.348613,-0.04214 -2.754908,-0.08439 -4.057771,0.312134 -1.04371,0.317651 -1.910628,1.032484 -2.89841,1.471499 -1.541172,0.684967 -2.868383,1.171514 -4.191545,2.274139 -1.83692,1.530752 -3.04577,3.685398 -5.127956,4.949588 -2.204963,1.33873 -4.914987,1.53448 -6.982933,3.1593 -1.176039,0.92403 -2.091585,2.47779 -2.586273,3.87941 -0.260017,0.73671 -0.322271,1.51709 -0.490501,2.27413 -0.244861,1.10187 -0.580379,2.27289 -0.445913,3.41739 0.103384,0.87992 0.545407,1.69258 0.799039,2.52956 0.308161,1.01693 0.425675,2.14247 1.013349,3.05662 1.24301,1.93354 3.332747,2.96649 5.432327,3.69327 2.177114,0.75362 4.417642,1.38256 6.733225,1.56069 0.719458,0.0553 1.463397,0 2.184953,0 1.723808,0 3.452429,-0.0138 5.172546,-0.13378 1.311066,-0.0915 2.604572,-0.26621 3.923998,-0.22295 1.574882,0.0516 3.177876,0.26806 4.726639,0.53509 0.826934,0.14257 1.675699,0.12961 2.49709,0.31214 0.901673,0.20037 1.732542,0.603 2.630863,0.80263 1.048607,0.23302 2.258581,0.30272 3.330969,0.35378 2.664097,0.12687 5.640829,-0.52669 7.93718,-1.87281 0.632441,-0.37074 1.166325,-0.82181 1.783633,-1.20396 1.468829,-0.90928 2.87102,-1.78546 4.23614,-2.85382 0.309028,-0.24185 0.66747,-0.4277 0.936413,-0.71346 2.526835,-2.68479 3.422756,-5.74877 3.422756,-9.38399 0,-0.74672 0.04815,-1.53225 -0.04459,-2.27413 -0.07913,-0.63308 -0.125955,-0.40725 -0.178364,-1.11478 -0.12152,-1.64051 -0.05043,-3.40642 -0.579683,-4.99418 -0.268682,-0.80604 -0.661046,-1.58301 -0.931201,-2.39346 -0.360849,-1.082551 -0.732838,-2.094046 -1.382321,-3.032181 -0.967938,-1.398125 -2.588538,-1.928585 -4.013179,-2.720047 -0.719402,-0.399663 -1.401654,-0.834604 -2.14036,-1.203957 -0.504761,-0.252381 -1.031261,-0.26896 -1.560687,-0.401317 -0.409758,-0.102439 -0.786728,-0.273283 -1.203949,-0.356727 -0.947328,-0.189469 -1.912858,-0.177173 -2.874764,-0.177173 -0.405149,0 -0.884037,-0.124228 -1.279988,-0.04459 -0.782723,0.157422 -1.465157,0.502883 -2.216211,0.754714 -0.678141,0.227385 -2.432042,0.06473 -2.809724,0.261747 -0.231286,0.120644 -0.442027,0.277138 -0.663041,0.415708 z"
       id="path27" />
  </g>
</svg>
