<?xml version="1.0" encoding="UTF-8" standalone="no"?>
<!-- Created with Inkscape (http://www.inkscape.org/) -->

<svg
   width="102.22243mm"
   height="50.536331mm"
   viewBox="0 0 102.22243 50.536331"
   version="1.1"
   id="svg1"
   inkscape:version="1.3.2 (091e20ef0f, 2023-11-25, custom)"
   sodipodi:docname="balka.svg"
   xmlns:inkscape="http://www.inkscape.org/namespaces/inkscape"
   xmlns:sodipodi="http://sodipodi.sourceforge.net/DTD/sodipodi-0.dtd"
   xmlns:xlink="http://www.w3.org/1999/xlink"
   xmlns="http://www.w3.org/2000/svg"
   xmlns:svg="http://www.w3.org/2000/svg">
  <sodipodi:namedview
     id="namedview1"
     pagecolor="#ffffff"
     bordercolor="#000000"
     borderopacity="0.25"
     inkscape:showpageshadow="2"
     inkscape:pageopacity="0.0"
     inkscape:pagecheckerboard="0"
     inkscape:deskcolor="#d1d1d1"
     inkscape:document-units="mm"
     showgrid="true"
     inkscape:zoom="1.6564006"
     inkscape:cx="226.99823"
     inkscape:cy="53.127246"
     inkscape:window-width="1920"
     inkscape:window-height="1011"
     inkscape:window-x="0"
     inkscape:window-y="32"
     inkscape:window-maximized="1"
     inkscape:current-layer="layer1">
    <inkscape:grid
       id="grid1"
       units="px"
       originx="-29.104167"
       originy="-152.13541"
       spacingx="0.26458333"
       spacingy="0.26458334"
       empcolor="#0099e5"
       empopacity="0.30196078"
       color="#0099e5"
       opacity="0.14901961"
       empspacing="5"
       dotted="false"
       gridanglex="30"
       gridanglez="30"
       visible="true" />
  </sodipodi:namedview>
  <defs
     id="defs1">
    <pattern
       inkscape:collect="always"
       xlink:href="#Strips1_4"
       preserveAspectRatio="xMidYMid"
       id="pattern11"
       patternTransform="scale(0.531,0.30458526)"
       x="0.5"
       y="0" />
    <pattern
       inkscape:collect="always"
       patternUnits="userSpaceOnUse"
       width="5"
       height="1"
       patternTransform="translate(0,0) scale(2,2)"
       preserveAspectRatio="xMidYMid"
       id="Strips1_4"
       style="fill:#000000"
       inkscape:stockid="Stripes 05 (1:4)"
       inkscape:isstock="true"
       inkscape:label="Stripes 05 (1:4)">
      <rect
         style="stroke:none"
         x="0"
         y="-0.5"
         width="1"
         height="2"
         id="rect158" />
    </pattern>
    <marker
       style="overflow:visible"
       id="ArrowWide"
       refX="0"
       refY="0"
       orient="auto-start-reverse"
       inkscape:stockid="Wide arrow"
       markerWidth="1"
       markerHeight="1"
       viewBox="0 0 1 1"
       inkscape:isstock="true"
       inkscape:collect="always"
       preserveAspectRatio="xMidYMid">
      <path
         style="fill:none;stroke:context-stroke;stroke-width:1;stroke-linecap:butt"
         d="M 3,-3 0,0 3,3"
         transform="rotate(180,0.125,0)"
         sodipodi:nodetypes="ccc"
         id="path5" />
    </marker>
    <pattern
       inkscape:collect="always"
       xlink:href="#Strips1_4-8"
       preserveAspectRatio="xMidYMid"
       id="pattern11-9"
       patternTransform="matrix(0,0.531,-0.531,0,0,0)"
       x="-0.5"
       y="0" />
    <pattern
       inkscape:collect="always"
       patternUnits="userSpaceOnUse"
       width="5"
       height="1"
       patternTransform="translate(0,0) scale(2,2)"
       preserveAspectRatio="xMidYMid"
       id="Strips1_4-8"
       style="fill:#000000"
       inkscape:stockid="Stripes 05 (1:4)"
       inkscape:isstock="true"
       inkscape:label="Stripes 05 (1:4)">
      <rect
         style="stroke:none"
         x="0"
         y="-0.5"
         width="1"
         height="2"
         id="rect158-4" />
    </pattern>
  </defs>
  <g
     inkscape:label="Layer 1"
     inkscape:groupmode="layer"
     id="layer1"
     transform="translate(-29.104166,-152.13542)">
    <path
       style="fill:none;stroke:#000000;stroke-width:0.531;stroke-dasharray:none"
       d="m 38.794171,183.88542 -9.260417,18.52083 h 18.520831 z"
       id="path1" />
    <path
       style="fill:none;stroke:#000000;stroke-width:0.531;stroke-dasharray:none"
       d="m 119.49209,183.88542 -9.26042,18.52083 h 18.52083 z"
       id="path1-0" />
    <circle
       style="fill:#000000;fill-opacity:1;stroke:#000000;stroke-width:0.531;stroke-dasharray:none"
       id="path2"
       cx="38.79417"
       cy="183.29175"
       r="0.66145831" />
    <circle
       style="fill:#000000;fill-opacity:1;stroke:#000000;stroke-width:0.531;stroke-dasharray:none"
       id="path2-0"
       cx="119.49209"
       cy="183.29175"
       r="0.66145831" />
    <path
       style="fill:#000000;fill-opacity:1;stroke:#000000;stroke-width:0.531;stroke-dasharray:none"
       d="M 38.794171,183.29174 H 119.49209"
       id="path3" />
    <path
       style="fill:#000000;fill-opacity:1;stroke:#000000;stroke-width:0.531;stroke-dasharray:none;marker-end:url(#ArrowWide)"
       d="M 38.794171,183.29174 V 154.78125"
       id="path4" />
    <rect
       style="fill:url(#pattern11);fill-opacity:1;stroke:none;stroke-width:0.402163;stroke-dasharray:none"
       id="rect5"
       width="80.646339"
       height="20.90279"
       x="38.845749"
       y="162.38895" />
    <rect
       style="fill:url(#pattern11-9);fill-opacity:1;stroke:none;stroke-width:0.531;stroke-dasharray:none"
       id="rect5-1"
       width="80.646339"
       height="20.902794"
       x="38.845749"
       y="162.38895" />
    <path
       style="fill:none;fill-opacity:1;stroke:#000000;stroke-width:0.531;stroke-dasharray:none;stroke-opacity:1;marker-end:url(#ArrowWide)"
       d="m 119.40008,175.23282 h 8.83082"
       id="path11" />
    <g
       inkscape:label=""
       transform="translate(33.282113,155.00346)"
       id="g12">
      <g
         fill="#000000"
         fill-opacity="1"
         id="g5"
         transform="matrix(0.352778,0,0,0.352778,-0.891339,-0.615597)">
        <g
           id="use4"
           transform="translate(2.4289999,8.7449999)">
          <path
             d="M 5.03125,-6.65625 V -7 H 0.8125 v 0.34375 z m 0,0"
             id="path8" />
        </g>
      </g>
      <g
         fill="#000000"
         fill-opacity="1"
         id="g6"
         transform="matrix(0.352778,0,0,0.352778,-0.891339,-0.615597)">
        <g
           id="use5"
           transform="translate(1.51,12.119)">
          <path
             d="M 6.390625,-7.140625 C 6.25,-7 5.8125,-6.59375 5.8125,-6.421875 c 0,0.125 0.109375,0.234375 0.21875,0.234375 0.109375,0 0.15625,-0.078125 0.25,-0.203125 0.28125,-0.34375 0.609375,-0.578125 0.875,-0.734375 0.125,-0.078125 0.203125,-0.109375 0.203125,-0.234375 0,-0.109375 -0.09375,-0.171875 -0.15625,-0.234375 C 6.859375,-7.8125 6.78125,-8.140625 6.734375,-8.28125 6.703125,-8.375 6.671875,-8.515625 6.5,-8.515625 c -0.0625,0 -0.21875,0.046875 -0.21875,0.21875 0,0.109375 0.078125,0.390625 0.3125,0.71875 H 2.5625 c -0.203125,0 -0.40625,0 -0.40625,0.234375 0,0.203125 0.21875,0.203125 0.40625,0.203125 z m 0,0"
             id="path9" />
        </g>
      </g>
      <g
         fill="#000000"
         fill-opacity="1"
         id="g7"
         transform="matrix(0.352778,0,0,0.352778,-0.891339,-0.615597)">
        <g
           id="use6"
           transform="translate(1.995381,12.119)">
          <path
             d="m 2.140625,-2.765625 c 0.328125,0 1.140625,-0.03125 1.703125,-0.25 0.90625,-0.34375 1,-1.03125 1,-1.25 0,-0.53125 -0.453125,-1 -1.25,-1 -1.25,0 -3.0625,1.125 -3.0625,3.25 C 0.53125,-0.75 1.25,0.125 2.34375,0.125 3.96875,0.125 5,-1.140625 5,-1.296875 5,-1.375 4.921875,-1.4375 4.875,-1.4375 c -0.03125,0 -0.046875,0.015625 -0.15625,0.125 -0.765625,1.015625 -1.890625,1.1875 -2.359375,1.1875 -0.671875,0 -1.03125,-0.53125 -1.03125,-1.421875 0,-0.15625 0,-0.46875 0.171875,-1.21875 z m -0.578125,-0.25 c 0.515625,-1.84375 1.65625,-2.015625 2.03125,-2.015625 0.53125,0 0.890625,0.3125 0.890625,0.765625 0,1.25 -1.921875,1.25 -2.421875,1.25 z m 0,0"
             id="path10" />
        </g>
      </g>
      <g
         fill="#000000"
         fill-opacity="1"
         id="g8"
         transform="matrix(0.352778,0,0,0.352778,-0.891339,-0.615597)">
        <g
           id="use7"
           transform="translate(7.4180002,13.912)">
          <path
             d="m 2.25,-1.625 c 0.125,-0.125 0.453125,-0.390625 0.59375,-0.5 0.484375,-0.453125 0.953125,-0.890625 0.953125,-1.609375 0,-0.953125 -0.796875,-1.5625 -1.78125,-1.5625 -0.96875,0 -1.59375,0.71875 -1.59375,1.4375 0,0.390625 0.3125,0.4375 0.421875,0.4375 0.171875,0 0.421875,-0.109375 0.421875,-0.421875 0,-0.40625 -0.40625,-0.40625 -0.5,-0.40625 C 1,-4.84375 1.53125,-5.03125 1.921875,-5.03125 c 0.734375,0 1.125,0.625 1.125,1.296875 0,0.828125 -0.578125,1.4375 -1.53125,2.390625 l -1,1.046875 C 0.421875,-0.21875 0.421875,-0.203125 0.421875,0 H 3.5625 l 0.234375,-1.421875 h -0.25 C 3.53125,-1.265625 3.46875,-0.875 3.375,-0.71875 c -0.046875,0.0625 -0.65625,0.0625 -0.78125,0.0625 H 1.171875 Z m 0,0"
             id="path12" />
        </g>
      </g>
    </g>
    <path
       style="fill:none;fill-opacity:1;stroke:#000000;stroke-width:0.531;stroke-dasharray:none;stroke-opacity:1;marker-end:url(#ArrowWide)"
       d="M 38.845749,183.29174 H 55.519542"
       id="path13" />
    <g
       inkscape:label=""
       transform="translate(55.716837,185.2583)"
       id="g22">
      <g
         fill="#000000"
         fill-opacity="1"
         id="g15"
         transform="matrix(0.352778,0,0,0.352778,-0.891339,-0.615597)">
        <g
           id="g14"
           transform="translate(2.4289999,8.7449999)">
          <path
             d="M 5.03125,-6.65625 V -7 H 0.8125 v 0.34375 z m 0,0"
             id="path14" />
        </g>
      </g>
      <g
         fill="#000000"
         fill-opacity="1"
         id="g17"
         transform="matrix(0.352778,0,0,0.352778,-0.891339,-0.615597)">
        <g
           id="g16"
           transform="translate(1.51,12.119)">
          <path
             d="M 6.390625,-7.140625 C 6.25,-7 5.8125,-6.59375 5.8125,-6.421875 c 0,0.125 0.109375,0.234375 0.21875,0.234375 0.109375,0 0.15625,-0.078125 0.25,-0.203125 0.28125,-0.34375 0.609375,-0.578125 0.875,-0.734375 0.125,-0.078125 0.203125,-0.109375 0.203125,-0.234375 0,-0.109375 -0.09375,-0.171875 -0.15625,-0.234375 C 6.859375,-7.8125 6.78125,-8.140625 6.734375,-8.28125 6.703125,-8.375 6.671875,-8.515625 6.5,-8.515625 c -0.0625,0 -0.21875,0.046875 -0.21875,0.21875 0,0.109375 0.078125,0.390625 0.3125,0.71875 H 2.5625 c -0.203125,0 -0.40625,0 -0.40625,0.234375 0,0.203125 0.21875,0.203125 0.40625,0.203125 z m 0,0"
             id="path15" />
        </g>
      </g>
      <g
         fill="#000000"
         fill-opacity="1"
         id="g19"
         transform="matrix(0.352778,0,0,0.352778,-0.891339,-0.615597)">
        <g
           id="g18"
           transform="translate(1.995381,12.119)">
          <path
             d="m 2.140625,-2.765625 c 0.328125,0 1.140625,-0.03125 1.703125,-0.25 0.90625,-0.34375 1,-1.03125 1,-1.25 0,-0.53125 -0.453125,-1 -1.25,-1 -1.25,0 -3.0625,1.125 -3.0625,3.25 C 0.53125,-0.75 1.25,0.125 2.34375,0.125 3.96875,0.125 5,-1.140625 5,-1.296875 5,-1.375 4.921875,-1.4375 4.875,-1.4375 c -0.03125,0 -0.046875,0.015625 -0.15625,0.125 -0.765625,1.015625 -1.890625,1.1875 -2.359375,1.1875 -0.671875,0 -1.03125,-0.53125 -1.03125,-1.421875 0,-0.15625 0,-0.46875 0.171875,-1.21875 z m -0.578125,-0.25 c 0.515625,-1.84375 1.65625,-2.015625 2.03125,-2.015625 0.53125,0 0.890625,0.3125 0.890625,0.765625 0,1.25 -1.921875,1.25 -2.421875,1.25 z m 0,0"
             id="path17" />
        </g>
      </g>
      <g
         fill="#000000"
         fill-opacity="1"
         id="g21"
         transform="matrix(0.352778,0,0,0.352778,-0.891339,-0.615597)">
        <g
           id="g20"
           transform="translate(7.4180002,13.912)">
          <path
             d="m 2.5,-5.078125 c 0,-0.21875 -0.015625,-0.21875 -0.234375,-0.21875 -0.328125,0.3125 -0.75,0.5 -1.5,0.5 v 0.265625 c 0.21875,0 0.640625,0 1.109375,-0.203125 v 4.078125 c 0,0.296875 -0.03125,0.390625 -0.78125,0.390625 H 0.8125 V 0 c 0.328125,-0.03125 1.015625,-0.03125 1.375,-0.03125 0.359375,0 1.046875,0 1.375,0.03125 V -0.265625 H 3.28125 c -0.75,0 -0.78125,-0.09375 -0.78125,-0.390625 z m 0,0"
             id="path19" />
        </g>
      </g>
    </g>
    <g
       inkscape:label=""
       transform="translate(126.41571,169.39876)"
       id="g23">
      <g
         fill="#000000"
         fill-opacity="1"
         id="g3"
         transform="matrix(0.352778,0,0,0.352778,-0.807817,-0.646333)">
        <g
           id="use2"
           transform="translate(1.993,11.467)">
          <path
             d="m 5.671875,-4.859375 -1.125,-2.609375 C 4.703125,-7.75 5.0625,-7.8125 5.21875,-7.8125 c 0.0625,0 0.203125,-0.015625 0.203125,-0.21875 0,-0.125 -0.109375,-0.125 -0.1875,-0.125 -0.203125,0 -0.4375,0.015625 -0.640625,0.015625 H 3.890625 c -0.71875,0 -1.25,-0.015625 -1.265625,-0.015625 -0.09375,0 -0.203125,0 -0.203125,0.21875 0,0.125 0.09375,0.125 0.25,0.125 0.703125,0 0.75,0.109375 0.859375,0.40625 l 1.421875,3.3125 -2.59375,2.78125 C 1.9375,-0.84375 1.421875,-0.390625 0.53125,-0.34375 0.390625,-0.328125 0.296875,-0.328125 0.296875,-0.125 0.296875,-0.078125 0.3125,0 0.4375,0 0.609375,0 0.78125,-0.03125 0.953125,-0.03125 h 0.5625 C 1.90625,-0.03125 2.3125,0 2.6875,0 c 0.078125,0 0.234375,0 0.234375,-0.21875 0,-0.109375 -0.09375,-0.125 -0.15625,-0.125 -0.25,-0.03125 -0.40625,-0.15625 -0.40625,-0.34375 0,-0.203125 0.15625,-0.359375 0.5,-0.71875 l 1.0625,-1.15625 C 4.1875,-2.828125 4.8125,-3.53125 5.078125,-3.796875 l 1.25,2.953125 c 0.015625,0.015625 0.0625,0.140625 0.0625,0.15625 0,0.109375 -0.265625,0.3125 -0.640625,0.34375 -0.078125,0 -0.203125,0.015625 -0.203125,0.21875 C 5.546875,0 5.671875,0 5.71875,0 5.921875,0 6.171875,-0.03125 6.375,-0.03125 H 7.6875 C 7.90625,-0.03125 8.125,0 8.328125,0 c 0.09375,0 0.21875,0 0.21875,-0.234375 0,-0.109375 -0.125,-0.109375 -0.234375,-0.109375 C 7.609375,-0.359375 7.578125,-0.421875 7.375,-0.859375 L 5.796875,-4.5625 7.3125,-6.1875 c 0.125,-0.125 0.390625,-0.421875 0.5,-0.546875 0.515625,-0.53125 1,-1.015625 1.96875,-1.078125 0.109375,-0.015625 0.234375,-0.015625 0.234375,-0.21875 0,-0.125 -0.109375,-0.125 -0.15625,-0.125 -0.171875,0 -0.34375,0.015625 -0.515625,0.015625 H 8.796875 C 8.421875,-8.140625 8,-8.15625 7.625,-8.15625 c -0.078125,0 -0.21875,0 -0.21875,0.203125 0,0.125 0.078125,0.140625 0.140625,0.140625 0.203125,0.015625 0.40625,0.109375 0.40625,0.34375 L 7.9375,-7.453125 C 7.921875,-7.359375 7.90625,-7.25 7.765625,-7.09375 Z m 0,0"
             id="path22" />
        </g>
      </g>
      <g
         fill="#000000"
         fill-opacity="1"
         id="g4"
         transform="matrix(0.352778,0,0,0.352778,-0.807817,-0.646333)">
        <g
           id="use3"
           transform="translate(12.648,7.1290002)">
          <path
             d="m 2.5,-5.078125 c 0,-0.21875 -0.015625,-0.21875 -0.234375,-0.21875 -0.328125,0.3125 -0.75,0.5 -1.5,0.5 v 0.265625 c 0.21875,0 0.640625,0 1.109375,-0.203125 v 4.078125 c 0,0.296875 -0.03125,0.390625 -0.78125,0.390625 H 0.8125 V 0 c 0.328125,-0.03125 1.015625,-0.03125 1.375,-0.03125 0.359375,0 1.046875,0 1.375,0.03125 V -0.265625 H 3.28125 c -0.75,0 -0.78125,-0.09375 -0.78125,-0.390625 z m 0,0"
             id="path23" />
        </g>
      </g>
    </g>
    <path
       style="fill:none;fill-opacity:1;stroke:#000000;stroke-width:0.531;stroke-dasharray:none;stroke-opacity:1;marker-end:url(#ArrowWide)"
       d="m 80.697913,152.13542 v 9.26042"
       id="path24" />
    <g
       inkscape:label=""
       transform="translate(82.643701,154.13836)"
       id="g29">
      <g
         fill="#000000"
         fill-opacity="1"
         id="g26"
         transform="matrix(0.352778,0,0,0.352778,-0.807817,-0.646333)">
        <g
           id="g25"
           transform="translate(1.993,11.467)">
          <path
             d="m 5.671875,-4.859375 -1.125,-2.609375 C 4.703125,-7.75 5.0625,-7.8125 5.21875,-7.8125 c 0.0625,0 0.203125,-0.015625 0.203125,-0.21875 0,-0.125 -0.109375,-0.125 -0.1875,-0.125 -0.203125,0 -0.4375,0.015625 -0.640625,0.015625 H 3.890625 c -0.71875,0 -1.25,-0.015625 -1.265625,-0.015625 -0.09375,0 -0.203125,0 -0.203125,0.21875 0,0.125 0.09375,0.125 0.25,0.125 0.703125,0 0.75,0.109375 0.859375,0.40625 l 1.421875,3.3125 -2.59375,2.78125 C 1.9375,-0.84375 1.421875,-0.390625 0.53125,-0.34375 0.390625,-0.328125 0.296875,-0.328125 0.296875,-0.125 0.296875,-0.078125 0.3125,0 0.4375,0 0.609375,0 0.78125,-0.03125 0.953125,-0.03125 h 0.5625 C 1.90625,-0.03125 2.3125,0 2.6875,0 c 0.078125,0 0.234375,0 0.234375,-0.21875 0,-0.109375 -0.09375,-0.125 -0.15625,-0.125 -0.25,-0.03125 -0.40625,-0.15625 -0.40625,-0.34375 0,-0.203125 0.15625,-0.359375 0.5,-0.71875 l 1.0625,-1.15625 C 4.1875,-2.828125 4.8125,-3.53125 5.078125,-3.796875 l 1.25,2.953125 c 0.015625,0.015625 0.0625,0.140625 0.0625,0.15625 0,0.109375 -0.265625,0.3125 -0.640625,0.34375 -0.078125,0 -0.203125,0.015625 -0.203125,0.21875 C 5.546875,0 5.671875,0 5.71875,0 5.921875,0 6.171875,-0.03125 6.375,-0.03125 H 7.6875 C 7.90625,-0.03125 8.125,0 8.328125,0 c 0.09375,0 0.21875,0 0.21875,-0.234375 0,-0.109375 -0.125,-0.109375 -0.234375,-0.109375 C 7.609375,-0.359375 7.578125,-0.421875 7.375,-0.859375 L 5.796875,-4.5625 7.3125,-6.1875 c 0.125,-0.125 0.390625,-0.421875 0.5,-0.546875 0.515625,-0.53125 1,-1.015625 1.96875,-1.078125 0.109375,-0.015625 0.234375,-0.015625 0.234375,-0.21875 0,-0.125 -0.109375,-0.125 -0.15625,-0.125 -0.171875,0 -0.34375,0.015625 -0.515625,0.015625 H 8.796875 C 8.421875,-8.140625 8,-8.15625 7.625,-8.15625 c -0.078125,0 -0.21875,0 -0.21875,0.203125 0,0.125 0.078125,0.140625 0.140625,0.140625 0.203125,0.015625 0.40625,0.109375 0.40625,0.34375 L 7.9375,-7.453125 C 7.921875,-7.359375 7.90625,-7.25 7.765625,-7.09375 Z m 0,0"
             id="path25" />
        </g>
      </g>
      <g
         fill="#000000"
         fill-opacity="1"
         id="g28"
         transform="matrix(0.352778,0,0,0.352778,-0.807817,-0.646333)">
        <g
           id="g27"
           transform="translate(12.648,7.1290002)">
          <path
             d="m 2.25,-1.625 c 0.125,-0.125 0.453125,-0.390625 0.59375,-0.5 0.484375,-0.453125 0.953125,-0.890625 0.953125,-1.609375 0,-0.953125 -0.796875,-1.5625 -1.78125,-1.5625 -0.96875,0 -1.59375,0.71875 -1.59375,1.4375 0,0.390625 0.3125,0.4375 0.421875,0.4375 0.171875,0 0.421875,-0.109375 0.421875,-0.421875 0,-0.40625 -0.40625,-0.40625 -0.5,-0.40625 C 1,-4.84375 1.53125,-5.03125 1.921875,-5.03125 c 0.734375,0 1.125,0.625 1.125,1.296875 0,0.828125 -0.578125,1.4375 -1.53125,2.390625 l -1,1.046875 C 0.421875,-0.21875 0.421875,-0.203125 0.421875,0 H 3.5625 l 0.234375,-1.421875 h -0.25 C 3.53125,-1.265625 3.46875,-0.875 3.375,-0.71875 c -0.046875,0.0625 -0.65625,0.0625 -0.78125,0.0625 H 1.171875 Z m 0,0"
             id="path26" />
        </g>
      </g>
    </g>
  </g>
</svg>
